<svg width="41" height="44" viewBox="0 0 41 44" fill="none" xmlns="http://www.w3.org/2000/svg">
<g clip-path="url(#clip0_3_6331)">
<path d="M20.1152 0.708008C12.3612 0.708008 6.05273 7.3943 6.05273 15.6128C6.05273 18.3896 6.77844 21.0994 8.15188 23.4504L19.3148 42.5167C19.5286 42.8819 19.9053 43.1039 20.3105 43.1039C20.3136 43.1039 20.3166 43.1039 20.3198 43.1039C20.7284 43.1005 21.1059 42.8717 21.3159 42.5L32.1942 23.249C33.4919 20.9477 34.1777 18.3072 34.1777 15.6128C34.1777 7.3943 27.8693 0.708008 20.1152 0.708008ZM30.1829 21.9737L20.2927 39.4759L10.1439 22.1416C9.0007 20.1848 8.38086 17.9272 8.38086 15.6128C8.38086 8.76405 13.6535 3.17558 20.1152 3.17558C26.577 3.17558 31.8418 8.76405 31.8418 15.6128C31.8418 17.8585 31.2628 20.0584 30.1829 21.9737Z" fill="#00BBE4"/>
<path d="M20.1152 8.16064C16.2382 8.16064 13.084 11.5038 13.084 15.613C13.084 19.696 16.1869 23.0654 20.1152 23.0654C24.092 23.0654 27.1465 19.6512 27.1465 15.613C27.1465 11.5038 23.9923 8.16064 20.1152 8.16064ZM20.1152 20.5979C17.517 20.5979 15.4121 18.3594 15.4121 15.613C15.4121 12.8735 17.5305 10.6282 20.1152 10.6282C22.6999 10.6282 24.8105 12.8735 24.8105 15.613C24.8105 18.3193 22.7546 20.5979 20.1152 20.5979Z" fill="#00BBE4"/>
</g>
<defs>
<clipPath id="clip0_3_6331">
<rect width="40" height="42.3958" fill="white" transform="translate(0.115234 0.708008)"/>
</clipPath>
</defs>
</svg>
