<svg width="41" height="43" viewBox="0 0 41 43" fill="none" xmlns="http://www.w3.org/2000/svg">
<g clip-path="url(#clip0_3_6322)">
<path d="M20.3359 0.251953C12.5819 0.251953 6.27344 6.93824 6.27344 15.1567C6.27344 17.9335 6.99914 20.6434 8.37258 22.9943L19.5355 42.0606C19.7493 42.4259 20.126 42.6478 20.5312 42.6478C20.5343 42.6478 20.5373 42.6478 20.5405 42.6478C20.9491 42.6444 21.3266 42.4156 21.5366 42.044L32.4149 22.793C33.7126 20.4917 34.3984 17.8511 34.3984 15.1567C34.3984 6.93824 28.09 0.251953 20.3359 0.251953Z" fill="#00BBE4"/>
<path d="M20.3359 7.70459C16.4589 7.70459 13.3047 11.0477 13.3047 15.157C13.3047 19.24 16.4076 22.6094 20.3359 22.6094C24.3127 22.6094 27.3672 19.1951 27.3672 15.157C27.3672 11.0477 24.213 7.70459 20.3359 7.70459ZM20.3359 20.1418C17.7377 20.1418 15.6328 17.9034 15.6328 15.157C15.6328 12.4175 17.7513 10.1722 20.3359 10.1722C22.9206 10.1722 25.0312 12.4175 25.0312 15.157C25.0312 17.8633 22.9753 20.1418 20.3359 20.1418Z" fill="#EFF6F8"/>
</g>
<defs>
<clipPath id="clip0_3_6322">
<rect width="40" height="42.3958" fill="white" transform="translate(0.335938 0.251953)"/>
</clipPath>
</defs>
</svg>
