<svg width="133" height="95" viewBox="0 0 133 95" fill="none" xmlns="http://www.w3.org/2000/svg">
<path d="M18.54 44V86H8.82V51.8H0.42V44H18.54ZM57.2161 78.08V86H25.4761V79.7L41.6761 64.4C43.3961 62.76 44.5561 61.36 45.1561 60.2C45.7561 59 46.0561 57.82 46.0561 56.66C46.0561 54.98 45.4761 53.7 44.3161 52.82C43.1961 51.9 41.5361 51.44 39.3361 51.44C37.4961 51.44 35.8361 51.8 34.3561 52.52C32.8761 53.2 31.6361 54.24 30.6361 55.64L23.5561 51.08C25.1961 48.64 27.4561 46.74 30.3361 45.38C33.2161 43.98 36.5161 43.28 40.2361 43.28C43.3561 43.28 46.0761 43.8 48.3961 44.84C50.7561 45.84 52.5761 47.28 53.8561 49.16C55.1761 51 55.8361 53.18 55.8361 55.7C55.8361 57.98 55.3561 60.12 54.3961 62.12C53.4361 64.12 51.5761 66.4 48.8161 68.96L39.1561 78.08H57.2161Z" fill="#00BBE4"/>
<g clip-path="url(#clip0_1_1876)">
<path d="M112.017 60.1091C110.706 59.5474 109.114 59.3601 107.802 59.641C104.243 60.2964 103.306 60.0155 101.62 57.2067C101.808 57.113 101.995 57.0194 102.089 56.9258C102.838 56.5513 103.587 56.1768 104.337 55.7086C105.18 55.2405 105.742 54.7723 106.116 54.3042C106.491 53.836 106.304 52.8998 106.023 52.5253C105.742 52.0571 104.805 52.0571 104.337 52.2444C103.213 52.8061 102.089 53.4615 101.058 54.1169L99.9345 54.7723C98.5295 55.615 98.1548 56.6449 98.8105 58.0493C100.496 61.7944 103.306 63.2925 107.428 62.4498C108.177 62.2626 108.926 62.3562 109.676 62.3562C109.114 62.5435 108.458 62.6371 107.802 62.7307C105.929 63.0116 103.962 63.3861 102.651 65.3523C102.557 65.3523 102.463 65.3523 102.37 65.3523C100.403 65.1651 99.0915 66.195 97.6865 67.2249L97.0308 67.693C96.3752 68.1611 95.8132 68.6293 95.1575 69.0038C94.7828 69.1911 94.5955 69.1911 94.5955 69.1911C94.5018 69.2847 94.5018 69.1911 94.5018 68.7229C94.5018 68.2548 94.5955 67.693 94.5955 67.2249C94.5955 66.6631 94.6892 66.195 94.6892 65.6332C94.7828 63.9479 94.4082 62.8244 93.7525 62.0753C93.0032 61.3263 91.9728 61.0454 90.2868 61.0454C90.1932 61.0454 90.0995 61.0454 90.0058 61.0454C90.0058 61.0454 90.0995 61.0454 90.0995 60.9518C90.9425 60.39 91.6918 59.8282 92.3475 59.3601C93.0968 58.7983 93.8462 58.1429 94.5955 57.5812L95.7195 56.6449L95.5322 55.3341L95.2512 55.2405C94.9702 55.1468 94.5955 54.9596 94.3145 54.866C93.5652 54.5851 92.9095 54.3042 92.1602 54.1169C91.4108 53.9297 90.7552 53.836 90.0058 53.6488C87.8515 53.2743 85.8845 52.8998 84.1049 51.3081C81.5759 48.9674 79.3279 49.061 76.7989 51.4953C76.0496 52.2444 75.3002 52.9934 74.5509 53.836C73.3332 55.0532 72.1156 56.364 70.8042 57.5812C69.9613 58.3302 69.0246 58.7983 68.1816 59.3601C67.5259 59.7346 66.7766 60.1091 66.1209 60.6709C65.9336 60.8582 65.3716 60.7645 64.9033 60.6709C64.8096 60.6709 64.7159 60.6709 64.6223 60.6709C64.6223 60.5773 64.6223 60.4836 64.6223 60.39C64.6223 59.9219 64.6223 59.3601 64.8096 59.1729C66.0273 57.9557 66.6829 56.364 66.7766 54.4914C66.8703 53.1807 67.4323 52.6189 68.8373 52.5253H69.2119C69.6803 52.5253 70.2422 52.5253 70.7106 52.4316C70.8979 52.4316 71.0852 52.338 71.2726 52.338C72.3029 52.1507 73.2396 51.9635 73.4269 51.3081C73.7079 50.3718 73.5206 49.061 73.0522 47.9375C72.6776 47.1885 72.2092 46.4394 71.7409 45.784C71.1789 45.035 70.7106 44.286 70.3359 43.537C69.9613 42.6007 69.7739 41.2899 69.9613 40.3536C70.6169 37.6384 70.3359 36.6085 67.4323 35.9531C65.5589 35.4849 64.3413 34.7359 63.4983 33.6124C61.9059 31.5526 59.7516 30.9908 57.41 32.1143C54.4126 33.5188 51.3216 35.0168 48.2306 36.5149C46.9193 37.1702 46.0763 37.1702 45.2333 36.234C44.6713 35.6722 43.8283 35.2977 42.9853 34.9232L42.517 34.7359C41.393 34.2678 40.269 33.7996 39.145 33.3315C36.9907 32.4888 34.8364 31.6462 32.682 30.6163C31.4644 30.0545 30.9024 29.5864 30.8087 29.1182C30.715 28.5565 31.1834 27.7138 31.9327 26.6839C32.5884 25.7476 33.1504 24.8113 33.7124 23.9687C34.087 23.4069 34.368 22.8452 34.7427 22.2834C35.1174 21.9089 35.3047 21.5344 35.492 21.1598C36.054 20.3172 36.5224 19.4745 37.178 18.8191C38.4893 17.602 40.1753 16.7593 41.674 16.0103C43.922 14.7931 45.046 13.1078 44.8587 10.7671C44.765 10.0181 44.6713 9.26908 44.484 8.61369C44.2967 7.86466 44.203 7.20927 44.1093 6.55387C44.0157 5.71122 44.2967 4.77494 44.484 4.68131C44.765 4.58768 45.046 4.40042 45.327 4.3068C47.294 3.37051 49.4483 2.34061 51.6026 2.996C52.914 3.37051 54.2253 4.02591 55.5366 4.58768C56.3796 4.96219 57.2226 5.3367 58.0656 5.71122C58.534 5.89847 59.0023 5.71122 59.377 5.61759C59.5643 5.61759 59.6579 5.52396 59.8453 5.52396L60.4073 5.43033L60.2199 4.86856C60.1263 4.77494 60.1263 4.58768 60.1263 4.40042C60.0326 3.93228 59.8453 3.46414 59.4706 3.27689C55.724 0.842557 50.7596 -1.49815 44.6713 1.3107C41.955 2.62149 40.4563 4.11954 41.4867 7.67741C42.6107 11.7034 42.3297 12.3588 38.6767 14.325C35.6794 16.0103 33.806 17.6956 32.4947 19.9427L31.9327 20.9726C31.0897 22.4706 30.2467 23.9687 29.31 25.2795C28.0924 26.9648 27.7177 28.4628 27.9987 29.7736C28.3734 30.8972 29.31 31.9271 30.8087 32.7697C33.0567 33.9869 35.3984 34.9232 37.74 35.8595C38.9577 36.3276 40.1753 36.7957 41.2993 37.3575C42.0487 37.732 42.9853 38.1065 43.8283 38.7619C45.5143 40.0727 47.1067 40.26 48.8863 39.3237L50.2913 38.5747C52.633 37.3575 55.0683 36.1403 57.5036 35.0168C59.8453 33.9869 59.9389 33.9869 61.7186 35.7658L61.9996 36.0467C62.8426 36.8894 63.8729 37.3575 64.9033 37.9193C65.1843 38.0129 65.4653 38.2002 65.7463 38.2938C66.2146 38.5747 66.6829 38.6683 67.2449 38.8556C67.3386 38.8556 67.4323 38.8556 67.4323 38.9492C65.9336 42.3198 67.5259 44.8478 69.1183 47.1885C69.6803 48.0311 70.2422 48.7801 70.6169 49.7164L68.5563 49.81C65.8399 49.9037 64.7159 50.9336 64.1539 53.5552C63.7793 55.3341 63.3109 56.7385 62.2806 58.1429C61.5313 59.0792 61.3439 60.9518 61.8123 62.0753C62.2806 63.1052 64.0603 64.3224 65.0906 64.1351C67.3386 63.667 69.7739 63.0116 71.3662 61.5136C71.8346 61.0454 72.3966 60.5773 72.9586 60.1091C73.7079 59.5474 74.3636 58.892 75.0192 58.2366C76.0496 57.2067 76.9862 56.0831 77.9229 55.0532C78.2976 54.5851 78.6722 54.2106 79.0469 53.7424C79.6089 53.1807 80.0772 52.8061 80.5456 52.8061C81.0139 52.8061 81.4822 52.9934 82.0442 53.5552C84.1049 55.4277 86.5402 56.5513 89.5375 56.7385C90.0058 56.7385 90.4742 56.9258 90.9425 57.0194C90.8488 57.113 90.7552 57.2067 90.6615 57.3003C90.2869 57.5812 89.8185 57.9557 89.4439 58.2366C88.4135 58.9856 87.4769 59.7346 86.5402 60.5773C85.9782 61.0454 85.6035 62.3562 85.9782 63.0116C86.3529 63.7606 87.3832 64.1351 88.1325 64.3224C88.6945 64.416 89.2565 64.3224 89.8185 64.3224C90.0995 64.3224 90.3805 64.2288 90.5679 64.2288C91.1299 64.2288 91.5045 64.3224 91.6918 64.5097C91.8792 64.6969 91.8792 64.9778 91.8792 65.4459C91.8792 65.6332 91.7855 65.9141 91.7855 66.1013C91.6918 66.8504 91.5982 67.5058 91.6918 68.2548C91.8792 69.2847 92.1602 70.8764 93.0968 71.6254C93.4715 71.9999 94.1272 72.0935 94.7828 72.0935C95.4385 72.0935 96.0942 71.9999 96.5625 71.719C97.4055 71.2509 98.1548 70.6891 98.9042 70.221C100.496 69.0974 101.995 67.9739 104.149 67.9739H104.43L104.618 67.7866C105.742 66.2886 107.428 65.9141 109.301 65.6332C109.676 65.5396 110.144 65.4459 110.519 65.3523C111.174 65.1651 111.924 64.8842 112.486 64.416C113.329 63.7606 113.797 62.918 113.703 62.0753C113.516 61.139 112.954 60.4836 112.017 60.1091Z" fill="#00BBE4"/>
<path d="M132.812 28.3691C133.187 27.0583 132.906 26.0284 131.876 25.0921C129.534 23.1259 126.63 21.0661 122.977 20.6916C121.853 20.598 120.729 20.3171 119.512 19.9426C118.481 19.6617 117.919 19.2872 117.545 18.2573C117.264 17.321 115.765 16.4783 114.828 16.4783C113.704 16.4783 112.487 16.6656 111.456 16.8528C110.801 16.9465 110.239 17.0401 109.583 17.1337C106.96 17.4146 106.679 17.2273 106.211 14.6058C105.555 11.0479 104.712 10.3925 101.059 10.2052C100.872 10.2052 100.685 10.2052 100.497 10.1116C100.591 9.83072 100.591 9.64347 100.685 9.45621C101.528 7.58365 101.059 5.14932 99.5606 3.0895C97.8746 0.936057 95.533 -0.0938523 93.3786 0.28066C91.88 0.561544 90.3813 0.655172 88.9763 0.748801C87.7586 0.842429 86.541 0.936057 85.3233 1.12331C81.2957 1.68508 80.2653 2.80862 79.8907 6.92825C79.797 7.95816 79.6097 8.51993 79.235 8.70719C78.954 8.89444 78.2983 8.89444 77.3617 8.61356C76.987 8.51993 76.706 8.33267 76.3313 8.23905C75.9567 8.05179 75.6757 7.95816 75.301 7.86453L74.2707 7.49002C71.929 6.741 69.5874 5.99197 67.152 5.24295C66.6837 5.14932 66.2154 5.33658 65.747 5.61746C65.5597 5.71109 65.3724 5.80472 65.2787 5.80472L64.623 6.0856L65.0914 6.55374C65.185 6.64737 65.2787 6.83463 65.466 7.02188C65.747 7.49002 66.1217 7.95816 66.6837 7.95816C69.3064 8.14542 71.648 9.26896 74.177 10.2989L74.9263 10.6734C78.7667 12.2651 80.2653 11.4224 80.64 11.1415C81.1083 10.767 81.5767 10.2989 81.8577 9.64347C82.2323 8.89444 82.7943 6.36649 82.7943 6.36649C82.7943 6.27286 82.7943 6.17923 82.7943 6.0856C82.7007 4.86844 83.2627 4.30667 84.6677 4.11941C87.8523 3.65127 90.475 3.27676 92.9103 3.0895C94.5963 2.90225 96.0949 3.37039 97.0316 4.49392C97.9683 5.61746 98.2493 7.20914 97.7809 8.89444C97.4063 10.3925 97.2189 11.4224 97.7809 12.1714C98.3429 12.8268 99.3733 13.0141 100.685 13.1077C102.652 13.1077 103.214 13.7631 103.495 15.7293C103.682 17.4146 104.338 18.6318 105.368 19.3808C106.492 20.2234 107.991 20.4107 109.864 20.0362L110.707 19.8489C111.737 19.6617 112.861 19.3808 113.985 19.2872C114.266 19.2872 114.828 19.4744 114.922 19.568C115.765 22.1896 117.919 22.845 119.886 23.1259C122.884 23.5941 126.256 24.3431 129.159 26.6838C129.815 27.1519 130.002 27.5264 129.815 28.3691C129.347 30.4289 129.066 32.5824 130.002 34.8294C130.564 36.2338 130.564 37.3574 130.002 38.1064C129.44 38.8554 128.223 39.2299 126.537 39.0427C124.289 38.7618 122.884 39.6045 122.228 41.5706C121.947 42.5069 121.572 43.3496 121.104 44.0986C120.823 44.4731 120.448 44.9413 120.074 45.0349C119.043 45.4094 118.107 45.8775 117.076 46.2521C115.859 46.7202 114.547 47.1883 113.33 47.7501C112.861 47.9374 112.58 48.4055 112.299 48.8736C112.206 49.0609 112.112 49.2481 112.018 49.3418L111.55 49.9972L112.299 50.0908C112.487 50.0908 112.674 50.1844 112.861 50.1844C113.236 50.2781 113.517 50.3717 113.892 50.3717C114.079 50.3717 114.266 50.3717 114.454 50.2781C116.795 49.4354 119.231 48.5928 121.572 47.4692C122.509 47.0011 123.633 45.9712 123.914 44.8476C124.57 42.226 125.975 41.3834 128.785 41.8515C130.19 42.1324 131.876 41.5706 132.25 39.8853L132.344 39.6045C132.718 37.7319 133.187 35.6721 132.812 33.8931C132.25 31.8333 132.25 30.0544 132.812 28.3691Z" fill="#00BBE4"/>
<path d="M84.3876 16.0095C84.3876 15.0732 83.6383 14.3242 82.7016 14.3242C81.765 14.3242 81.0156 15.0732 81.0156 16.0095C81.0156 16.9458 81.765 17.6948 82.7016 17.6948C83.6383 17.6012 84.3876 16.8522 84.3876 16.0095Z" fill="#00BBE4"/>
<path d="M92.0669 29.0239C93.0035 29.0239 93.7528 28.2749 93.7528 27.3386C93.7528 26.4023 93.0035 25.6533 92.0669 25.6533C91.1302 25.6533 90.3809 26.4023 90.3809 27.3386C90.3809 28.2749 91.1302 29.0239 92.0669 29.0239Z" fill="#00BBE4"/>
<path d="M109.582 35.3911C110.514 35.3911 111.268 34.6366 111.268 33.7058C111.268 32.775 110.514 32.0205 109.582 32.0205C108.651 32.0205 107.896 32.775 107.896 33.7058C107.896 34.6366 108.651 35.3911 109.582 35.3911Z" fill="#00BBE4"/>
<path d="M105.461 43.1616C106.393 43.1616 107.147 42.4071 107.147 41.4763C107.147 40.5456 106.393 39.791 105.461 39.791C104.53 39.791 103.775 40.5456 103.775 41.4763C103.775 42.4071 104.53 43.1616 105.461 43.1616Z" fill="#00BBE4"/>
<path d="M122.321 33.0503C123.257 33.0503 124.007 32.3013 124.007 31.365C124.007 30.4287 123.257 29.6797 122.321 29.6797C121.384 29.6797 120.635 30.4287 120.635 31.365C120.635 32.3013 121.384 33.0503 122.321 33.0503Z" fill="#00BBE4"/>
<path d="M94.6899 44.5669C95.6266 44.5669 96.3759 43.8179 96.3759 42.8816C96.3759 41.9453 95.6266 41.1963 94.6899 41.1963C93.7532 41.1963 93.0039 41.9453 93.0039 42.8816C93.0039 43.8179 93.7532 44.5669 94.6899 44.5669Z" fill="#00BBE4"/>
</g>
<defs>
<clipPath id="clip0_1_1876">
<rect width="105" height="72" fill="white" transform="translate(28)"/>
</clipPath>
</defs>
</svg>
