<svg width="158" height="112" viewBox="0 0 158 112" fill="none" xmlns="http://www.w3.org/2000/svg">
<g clip-path="url(#clip0_1_1891)">
<path d="M42.5533 4.01017C42.6466 4.01017 42.7399 4.01017 42.8332 4.01017C43.7664 4.01017 44.5129 3.35736 44.6062 2.42478C44.6995 1.39894 44.0463 0.559611 43.0198 0.373094C41.9934 0.279836 41.1535 0.932644 40.9669 1.95849C40.8736 2.98433 41.6201 3.82366 42.5533 4.01017Z" fill="#00BBE4"/>
<path d="M46.1929 29.1908C46.2862 29.1908 46.3795 29.1908 46.4728 29.1908C47.406 29.1908 48.1525 28.538 48.2458 27.6054C48.3392 26.5796 47.6859 25.7403 46.6595 25.5538C45.633 25.4605 44.7931 26.1133 44.6065 27.1392C44.5132 28.165 45.1664 29.0976 46.1929 29.1908Z" fill="#00BBE4"/>
<path d="M34.0601 25.0869C33.0336 25.0869 32.2871 25.9262 32.2871 26.9521C32.2871 27.8847 33.127 28.724 34.0601 28.724H34.1534C35.1799 28.724 35.9265 27.8847 35.9265 26.8588C35.9265 25.833 35.0866 25.0869 34.0601 25.0869Z" fill="#00BBE4"/>
<path d="M48.1517 5.31643C48.3383 5.40969 48.5249 5.40969 48.8049 5.40969C49.5514 5.40969 50.2046 4.9434 50.4846 4.19733C50.8578 3.26475 50.2979 2.2389 49.3648 1.86587C48.4316 1.49284 47.4051 2.05239 47.0319 2.98497C46.7519 3.91755 47.2185 4.9434 48.1517 5.31643Z" fill="#00BBE4"/>
<path d="M38.4473 26.8588C38.4473 27.8847 39.1938 28.724 40.2203 28.724H40.3136C41.2468 28.724 42.0866 27.9779 42.0866 26.9521C42.0866 25.9262 41.3401 25.0869 40.3136 25.0869C39.3804 25.0869 38.5406 25.833 38.4473 26.8588Z" fill="#00BBE4"/>
<path d="M54.8707 17.0664C53.8442 17.0664 53.0977 17.9057 53.0977 18.8383C53.0977 19.8642 53.9375 20.6102 54.8707 20.6102C55.8971 20.6102 56.6437 19.7709 56.6437 18.8383C56.737 17.9057 55.8971 17.0664 54.8707 17.0664Z" fill="#00BBE4"/>
<path d="M53.9381 8.57999C54.3114 8.57999 54.6846 8.48673 54.9646 8.30021C55.8044 7.74066 55.9911 6.62156 55.4312 5.78223C54.8713 4.94291 53.7515 4.75639 52.9116 5.31594C52.0718 5.87549 51.8851 6.99459 52.445 7.83392C52.8183 8.30021 53.3782 8.57999 53.9381 8.57999Z" fill="#00BBE4"/>
<path d="M53.0977 12.684C53.0977 13.7099 53.9375 14.4559 54.8707 14.4559C55.8972 14.4559 56.6437 13.6166 56.6437 12.684C56.6437 11.6582 55.8038 10.9121 54.8707 10.9121C53.8442 10.9121 53.0977 11.7514 53.0977 12.684Z" fill="#00BBE4"/>
<path d="M54.8707 23.2217C53.8442 23.2217 53.0977 24.061 53.0977 24.9936C53.0977 26.0194 53.9375 26.7655 54.8707 26.7655C55.8971 26.7655 56.6437 25.9262 56.6437 24.9936C56.737 24.061 55.8971 23.2217 54.8707 23.2217Z" fill="#00BBE4"/>
<path d="M36.6734 3.63757C37.6999 3.63757 38.4464 2.79824 38.4464 1.86566C38.4464 0.839817 37.6066 0.09375 36.6734 0.09375C35.6469 0.09375 34.9004 0.933076 34.9004 1.86566C34.9004 2.79824 35.6469 3.63757 36.6734 3.63757Z" fill="#00BBE4"/>
<path d="M18.4781 20.7967C19.5046 20.7967 20.2511 19.9574 20.2511 19.0248C20.2511 17.999 19.4113 17.2529 18.4781 17.2529C17.4516 17.2529 16.7051 18.0923 16.7051 19.0248C16.7051 20.0507 17.4516 20.7967 18.4781 20.7967Z" fill="#00BBE4"/>
<path d="M30.5157 4.01015C30.609 4.01015 30.7024 4.01015 30.7957 4.01015C31.8222 3.82363 32.4754 2.98431 32.2887 1.95846C32.1021 0.93262 31.2623 0.279811 30.2358 0.466328C29.2093 0.652845 28.5561 1.49217 28.7427 2.51801C28.9293 3.35734 29.6759 4.01015 30.5157 4.01015Z" fill="#00BBE4"/>
<path d="M18.4781 26.952C19.5046 26.952 20.2511 26.1127 20.2511 25.1801C20.2511 24.1543 19.4113 23.4082 18.4781 23.4082C17.4516 23.4082 16.7051 24.2475 16.7051 25.1801C16.7051 26.1127 17.4516 26.952 18.4781 26.952Z" fill="#00BBE4"/>
<path d="M18.3831 8.39396C18.663 8.58048 19.0363 8.67374 19.4095 8.67374C19.9694 8.67374 20.5293 8.39396 20.9026 7.92767C21.4625 7.08834 21.2759 5.96924 20.436 5.40969C19.5962 4.85014 18.4764 5.03666 17.9165 5.87598C17.4499 6.71531 17.6365 7.83441 18.3831 8.39396Z" fill="#00BBE4"/>
<path d="M18.4781 14.6425C19.5046 14.6425 20.2511 13.8031 20.2511 12.8705C20.2511 11.8447 19.4113 11.0986 18.4781 11.0986C17.4516 11.0986 16.7051 11.938 16.7051 12.8705C16.7051 13.8964 17.4516 14.6425 18.4781 14.6425Z" fill="#00BBE4"/>
<path d="M26.2217 27.6054C26.315 28.538 27.1549 29.1908 27.9947 29.1908C28.0881 29.1908 28.1814 29.1908 28.2747 29.1908C29.3012 29.0976 29.9544 28.165 29.8611 27.1392C29.7678 26.1133 28.8346 25.4605 27.8081 25.5538C26.7816 25.7403 26.1284 26.5796 26.2217 27.6054Z" fill="#00BBE4"/>
<path d="M24.6367 5.50317C24.8233 5.50317 25.1033 5.50317 25.2899 5.40991C26.2231 5.03687 26.6896 4.01103 26.3164 3.07845C25.9431 2.14586 24.9166 1.67957 23.9835 2.0526C23.0503 2.42564 22.5837 3.45148 22.957 4.38406C23.1436 5.13013 23.8901 5.50317 24.6367 5.50317Z" fill="#00BBE4"/>
<path d="M36.7663 7.83398C35.7398 7.83398 34.9933 8.67331 34.9933 9.6059V13.616H30.7007C29.6743 13.616 28.9277 14.4553 28.9277 15.3879C28.9277 16.3205 29.7676 17.1598 30.7007 17.1598H34.9933V21.1699C34.9933 22.1958 35.8332 22.9419 36.7663 22.9419C37.6995 22.9419 38.5393 22.1025 38.5393 21.1699V17.1598H42.8319C43.8584 17.1598 44.6049 16.3205 44.6049 15.3879C44.6049 14.4553 43.7651 13.616 42.8319 13.616H38.5393V9.6059C38.5393 8.67331 37.6995 7.83398 36.7663 7.83398Z" fill="#00BBE4"/>
<path d="M72.9741 71.6235L55.0573 60.1527C54.4974 57.4482 51.2313 55.7695 48.8051 55.4898V51.5729C52.0712 47.6561 54.2175 42.2471 54.2175 36.5583C54.2175 34.5999 54.2175 29.937 54.2175 29.0044C54.4041 28.165 53.9375 27.3257 53.0977 26.9527C52.1645 26.5797 51.138 27.1392 50.7648 28.0718C50.6714 28.3516 50.6714 28.6313 50.6714 28.9111H50.5781C50.5781 28.9111 50.5781 34.4134 50.5781 36.5583C50.5781 46.6302 43.2994 54.0909 36.7673 54.0909C33.6878 54.0909 30.795 52.5988 28.5554 50.174C28.4621 49.9875 28.2755 49.8943 28.1822 49.7077C25.3827 46.4437 23.6096 41.6875 23.6096 36.5583V29.2841C23.7963 29.0044 23.7963 28.7246 23.7963 28.3516C23.703 27.3257 22.8631 26.5797 21.9299 26.6729C21.9299 26.6729 21.9299 26.6729 21.8366 26.6729C21.8366 26.6729 21.8366 26.6729 21.7433 26.6729C20.7168 26.6729 19.9703 27.5122 19.9703 28.4448V36.465C19.9703 42.3403 22.0233 47.7493 25.196 51.6662V55.3032H24.6361C21.8366 55.3032 19.4104 57.2617 18.9438 60.0594L1.02705 71.6235C0.0938813 72.0898 -0.279385 73.1156 0.187198 74.0482C0.467147 74.701 1.12036 75.074 1.77358 75.074C2.05353 75.074 2.33348 74.9808 2.52011 74.8875L20.5302 63.4167C21.5567 62.9504 22.2099 62.0179 22.3965 60.992C22.5832 59.9662 23.5163 59.1268 24.5428 59.1268H24.8228L27.9022 66.3077C27.4356 66.3077 26.969 66.401 26.5958 66.774C26.0359 67.4268 26.0359 68.4527 26.6891 69.0122C28.6487 70.7841 30.2351 72.6493 31.1683 73.8617L31.8215 75.3538L31.9148 75.4471C31.9148 75.8201 31.8215 76.1931 31.7282 76.7527C31.6349 77.7785 31.4482 79.1774 31.1683 81.2291C31.075 82.0684 31.7282 82.8145 32.6613 82.9077C32.7547 82.9077 32.7547 82.9077 32.848 82.9077C33.6878 82.9077 34.341 82.2549 34.4344 81.5089C34.621 79.4572 34.8076 78.0583 34.9943 77.1257C35.1809 75.9134 35.1809 75.3538 35.1809 74.8875C35.2742 74.4212 35.2742 73.9549 34.9943 73.5819L28.8354 58.7538V55.1167C31.2616 56.7954 33.9678 57.728 36.7673 57.728C39.7534 57.728 42.6462 56.7021 45.1658 54.9302V58.8471L39.3801 73.4886C39.1002 73.9549 39.1002 74.4212 39.2868 74.8875C39.2868 75.3538 39.3801 75.9134 39.4734 76.9392C39.5668 77.965 39.7534 79.3639 40.0334 81.4156C40.1267 82.2549 40.7799 82.8145 41.6197 82.8145C41.713 82.8145 41.713 82.8145 41.8064 82.8145C42.6462 82.7212 43.2994 81.9752 43.2061 81.0426C43.0195 78.9909 42.8328 77.4987 42.6462 76.4729C42.5529 76.0066 42.5529 75.5403 42.4596 75.2605L42.5529 75.1673L43.2061 73.6752C44.046 72.5561 45.6323 70.7841 47.4987 69.0122C48.1519 68.4527 48.1519 67.4268 47.592 66.774C47.2187 66.401 46.7521 66.2145 46.1922 66.3077L49.0851 59.2201C50.2982 59.5931 51.418 60.3392 51.5113 60.8988C51.6979 61.9246 52.3511 62.8572 53.3776 63.3235L71.3877 74.7943C71.6677 74.8875 71.9476 74.9808 72.1342 74.9808C72.7875 74.9808 73.4407 74.6077 73.7206 73.9549C74.2805 73.1156 73.9072 71.9965 72.9741 71.6235Z" fill="#00BBE4"/>
</g>
<path d="M113.22 61V67.3L97.62 103H87.06L102.12 68.92H88.2V75.76H79.56V61H113.22ZM134.375 103.72C130.895 103.72 127.795 102.86 125.075 101.14C122.355 99.42 120.215 96.94 118.655 93.7C117.135 90.42 116.375 86.52 116.375 82C116.375 77.48 117.135 73.6 118.655 70.36C120.215 67.08 122.355 64.58 125.075 62.86C127.795 61.14 130.895 60.28 134.375 60.28C137.855 60.28 140.955 61.14 143.675 62.86C146.395 64.58 148.515 67.08 150.035 70.36C151.595 73.6 152.375 77.48 152.375 82C152.375 86.52 151.595 90.42 150.035 93.7C148.515 96.94 146.395 99.42 143.675 101.14C140.955 102.86 137.855 103.72 134.375 103.72ZM134.375 95.5C136.935 95.5 138.935 94.4 140.375 92.2C141.855 90 142.595 86.6 142.595 82C142.595 77.4 141.855 74 140.375 71.8C138.935 69.6 136.935 68.5 134.375 68.5C131.855 68.5 129.855 69.6 128.375 71.8C126.935 74 126.215 77.4 126.215 82C126.215 86.6 126.935 90 128.375 92.2C129.855 94.4 131.855 95.5 134.375 95.5Z" fill="#00BBE4"/>
<defs>
<clipPath id="clip0_1_1891">
<rect width="74" height="83" fill="white"/>
</clipPath>
</defs>
</svg>
