<svg width="84" height="71" viewBox="0 0 84 71" fill="none" xmlns="http://www.w3.org/2000/svg">
<path d="M77.4689 71C60.9904 71 44.512 71 27.933 71H3.21531C2.71292 71 2.11005 70.8991 1.70813 70.7983C1.50718 70.7983 1.4067 70.6974 1.20574 70.6974C0.502392 70.5966 0 69.9915 0 69.1847V66.0582C0 65.8565 0 65.7557 0.100478 65.554C1.30622 62.0241 4.11962 61.6207 6.5311 61.6207C6.5311 61.5199 6.5311 61.419 6.5311 61.3182C6.63158 60.0071 6.63158 58.7969 6.83254 57.5866C7.63636 53.4517 10.1483 50.2244 14.067 48.4091C14.1675 48.4091 14.2679 48.3082 14.2679 48.3082C14.2679 48.3082 14.2679 48.2074 14.2679 48.1065C14.2679 46.0895 14.2679 44.7784 15.1722 43.8707C16.0766 42.9631 17.2823 42.9631 19.3923 42.9631C20.8995 42.9631 22.4067 42.9631 23.9139 42.9631V36.4077V22.9943C23.9139 19.2628 25.622 17.5483 29.3397 17.5483C30.0431 17.5483 30.6459 17.5483 31.3493 17.5483C32.6555 17.5483 34.0622 17.5483 35.4689 17.5483C39.1866 17.4474 42 19.1619 43.5072 22.4901C44.512 24.8097 45.3158 27.1293 46.0191 29.4489L46.5215 30.9616C47.8278 35.1974 49.0335 39.1307 50.1388 42.9631V43.0639C51.0431 43.0639 51.8469 43.0639 52.6507 43.0639C53.1531 43.0639 53.756 43.0639 54.2584 43.0639C54.3589 43.0639 54.4593 43.0639 54.5598 43.0639C54.5598 36.8111 54.5598 30.5582 54.5598 24.3054V23.2969C51.244 22.9943 49.0335 21.0781 48.0287 17.75C47.2249 17.75 46.5215 17.75 45.7177 17.75C42.9043 17.6491 41.2966 16.0355 41.2966 13.3125V12.4048C41.2966 11.4972 41.2966 10.4886 41.2966 9.58097C41.3971 7.36222 43.0048 5.74858 45.2153 5.74858C46.1196 5.74858 47.0239 5.74858 48.0287 5.74858C48.4306 3.02557 50.2392 1.21023 53.1531 0.100852C53.2536 0 53.4545 0 53.6555 0H70.9378C71.6411 0 72.1435 0.403409 72.3445 1.10938L73.0478 3.32813C73.9522 3.42898 74.9569 3.52983 75.6603 4.33665C76.3636 5.04261 76.4641 6.05114 76.5646 6.85795C76.866 6.85795 77.067 6.7571 77.1675 6.7571C79.378 4.94176 82.1914 5.14347 83.6986 7.05966C83.8995 7.36222 84 7.66477 84 7.96733V15.3295C84 15.733 83.799 16.1364 83.4976 16.4389C81.689 17.9517 79.4785 18.0526 77.3684 16.6406C77.2679 16.5398 76.9665 16.5398 76.5646 16.5398C76.4641 17.4474 76.2632 18.3551 75.5598 19.0611C74.8565 19.8679 73.8517 19.9688 72.9474 20.0696C72.5455 22.7926 71.6411 23.196 68.3254 23.196H63.1005V23.2969C63.1005 25.0114 63.1005 26.8267 63.1005 28.5412C63.1005 32.777 63.1005 37.1136 63.1005 41.4503C63.1005 43.2656 63 45.2827 61.8947 47.1989C63.4019 47.1989 64.9091 47.1989 66.3158 47.1989C68.7273 47.1989 70.6364 47.9048 72.1435 49.4176C73.5502 50.9304 74.3541 52.8466 74.3541 55.267C74.3541 57.0824 74.3541 58.7969 74.3541 60.6122V61.5199C74.756 61.5199 75.2584 61.5199 75.6603 61.5199C78.6746 61.5199 80.6842 63.5369 80.7847 66.4617C80.7847 66.6634 80.7847 66.7642 80.7847 66.9659C80.7847 67.0668 80.7847 67.1676 80.7847 67.2685C80.8852 67.6719 80.9857 68.8821 80.1818 69.7898C79.378 70.8991 78.2727 71 77.4689 71ZM3.01435 67.9744C3.11483 67.9744 3.21531 67.9744 3.31579 67.9744H28.0335C44.512 67.9744 60.9904 67.9744 77.4689 67.9744C77.5694 67.9744 77.6699 67.9744 77.6699 67.9744C77.6699 67.9744 77.6699 67.9744 77.6699 67.8736C77.6699 67.571 77.6699 67.2685 77.6699 67.0668C77.6699 66.9659 77.6699 66.8651 77.6699 66.7642C77.5694 65.4531 76.866 64.7472 75.5598 64.7472C74.9569 64.7472 74.3541 64.7472 73.7512 64.7472H72.8469C72.0431 64.7472 71.3397 64.0412 71.3397 63.2344V60.8139C71.3397 58.9986 71.3397 57.1832 71.3397 55.4688C71.3397 53.8551 70.9378 52.6449 70.0335 51.7372C69.0287 50.8295 67.9234 50.4261 66.3158 50.4261C64.6077 50.4261 63 50.4261 61.1914 50.4261H58.7799C58.177 50.4261 57.5742 50.0227 57.3732 49.4176C57.1722 48.8125 57.3732 48.1065 57.7751 47.7031C59.7847 45.9886 60.1866 44.0724 60.0861 41.652C60.0861 37.3153 60.0861 32.9787 60.0861 28.7429C60.0861 27.0284 60.0861 25.2131 60.0861 23.4986V21.8849C60.0861 21.0781 60.7895 20.3722 61.5933 20.3722H68.3254C68.9282 20.3722 69.6316 20.3722 69.933 20.3722C70.0335 20.0696 70.0335 19.4645 70.134 18.8594C70.2345 18.1534 70.7368 17.5483 71.3397 17.4474C71.4402 17.4474 71.6412 17.4474 71.7416 17.4474C72.0431 17.4474 72.3445 17.3466 72.5455 17.3466C72.8469 17.3466 73.2488 17.2457 73.4498 17.2457C73.5502 17.044 73.5502 16.5398 73.6507 16.2372C73.7512 15.8338 73.7512 15.4304 73.8517 15.027C74.0526 14.2202 74.756 13.7159 75.5598 13.8168C75.7608 13.8168 76.0622 13.8168 76.3636 13.9176C77.1675 13.9176 78.1722 14.0185 79.0766 14.5227C79.9809 15.1278 80.5837 15.1278 81.0861 14.9261V8.6733C80.4833 8.37074 79.7799 8.57244 79.177 8.97585C78.3732 9.58097 77.2679 9.68182 76.4641 9.78267C76.1627 9.78267 75.9617 9.78267 75.6603 9.88352C74.8565 10.0852 74.0526 9.48011 73.8517 8.6733C73.7512 8.26989 73.7512 7.76563 73.6507 7.36222C73.6507 7.05966 73.5502 6.45455 73.4498 6.25284C73.2488 6.15199 72.8469 6.15199 72.5455 6.15199C72.1435 6.15199 71.8421 6.05114 71.5407 6.05114C70.9378 5.95028 70.5359 5.54688 70.3349 5.04261L69.8325 3.02557H53.9569C51.8469 3.83239 50.8421 5.24432 50.5407 7.36222C50.4402 8.16903 49.8373 8.6733 49.0335 8.6733H47.7273C46.823 8.6733 45.9187 8.6733 45.0144 8.6733C44.4115 8.6733 44.1101 8.97585 44.1101 9.58097C44.1101 10.4886 44.1101 11.3963 44.1101 12.304V13.2116C44.1101 14.321 44.4115 14.6236 45.6172 14.6236C46.4211 14.6236 47.1244 14.6236 47.9282 14.6236H49.0335C49.7368 14.6236 50.3397 15.1278 50.5407 15.8338C51.1435 18.9602 52.7512 20.2713 55.6651 20.1705C56.2679 20.1705 56.8708 20.473 57.0718 20.9773V21.0781C57.1722 21.2798 57.3732 21.5824 57.3732 21.9858V24.1037C57.3732 30.3565 57.3732 36.6094 57.3732 42.8622C57.3732 44.6776 56.067 45.8878 54.1579 45.9886C53.555 45.9886 53.0526 45.9886 52.4498 45.9886C51.6459 45.9886 50.8421 45.9886 50.0383 45.9886C48.4306 46.0895 47.4258 45.3835 47.0239 43.7699C45.9187 39.9375 44.7129 36.0043 43.4067 31.7685L42.9043 30.2557C42.201 28.0369 41.4976 25.7173 40.5933 23.5994C39.689 21.4815 37.8804 20.473 35.4689 20.473C34.0622 20.473 32.6555 20.473 31.2488 20.473C30.6459 20.473 29.9426 20.473 29.3397 20.473C27.2297 20.473 26.9282 20.7756 26.9282 22.8935V36.3068V44.2742C26.9282 44.9801 26.5263 45.4844 25.823 45.6861L25.622 45.7869C25.5215 45.7869 25.3206 45.8878 25.0191 45.8878C23.11 45.8878 21.201 45.8878 19.3923 45.8878C18.5885 45.8878 17.7847 45.8878 17.3828 45.9886C17.2823 46.392 17.3828 47.2997 17.3828 48.0057C17.3828 49.5185 16.7799 50.4261 15.3732 51.0312C12.2584 52.4432 10.4498 54.7628 9.84689 57.9901C9.64593 58.9986 9.64593 60.2088 9.54545 61.3182C9.54545 61.9233 9.44498 62.5284 9.44498 63.1335C9.3445 63.9403 8.64115 64.5455 7.83732 64.5455H7.53589C4.82297 64.4446 3.7177 64.4446 3.11483 66.1591V67.9744H3.01435Z" fill="#00BBE4"/>
<path d="M20.0949 48.2075C19.0901 48.2075 18.3867 49.0143 18.3867 49.922C18.3867 50.9305 19.1905 51.6365 20.0949 51.6365C21.0996 51.6365 21.803 50.8297 21.803 49.922C21.9035 49.0143 21.0996 48.2075 20.0949 48.2075Z" fill="#00BBE4"/>
<path d="M25.923 48.2075C24.9182 48.2075 24.2148 49.0143 24.2148 49.922C24.2148 50.9305 25.0187 51.6365 25.923 51.6365C26.9278 51.6365 27.6311 50.8297 27.6311 49.922C27.7316 49.0143 26.9278 48.2075 25.923 48.2075Z" fill="#00BBE4"/>
<path d="M31.7511 48.2075C30.7463 48.2075 30.043 49.0143 30.043 49.922C30.043 50.9305 30.8468 51.6365 31.7511 51.6365C32.7559 51.6365 33.4592 50.8297 33.4592 49.922C33.5597 49.0143 32.7559 48.2075 31.7511 48.2075Z" fill="#00BBE4"/>
<path d="M37.5792 48.2075C36.5744 48.2075 35.8711 49.0143 35.8711 49.922C35.8711 50.9305 36.6749 51.6365 37.5792 51.6365C38.584 51.6365 39.2874 50.8297 39.2874 49.922C39.3878 49.0143 38.584 48.2075 37.5792 48.2075Z" fill="#00BBE4"/>
<path d="M47.5265 9.37891C46.5217 9.37891 45.8184 10.1857 45.8184 11.0934C45.8184 12.1019 46.6222 12.8079 47.5265 12.8079C48.5313 12.8079 49.2346 12.0011 49.2346 11.0934C49.3351 10.1857 48.5313 9.37891 47.5265 9.37891Z" fill="#00BBE4"/>
<path d="M43.507 48.2075C42.5022 48.2075 41.7988 49.0143 41.7988 49.922C41.7988 50.9305 42.6027 51.6365 43.507 51.6365C44.5117 51.6365 45.2151 50.8297 45.2151 49.922C45.2151 49.0143 44.4113 48.2075 43.507 48.2075Z" fill="#00BBE4"/>
<path d="M49.3351 48.2075C48.3303 48.2075 47.627 49.0143 47.627 49.922C47.627 50.9305 48.4308 51.6365 49.3351 51.6365C50.3399 51.6365 51.0432 50.8297 51.0432 49.922C51.0432 49.0143 50.2394 48.2075 49.3351 48.2075Z" fill="#00BBE4"/>
<path d="M55.1632 48.2075C54.1584 48.2075 53.4551 49.0143 53.4551 49.922C53.4551 50.9305 54.2589 51.6365 55.1632 51.6365C56.168 51.6365 56.8713 50.8297 56.8713 49.922C56.8713 49.0143 56.0675 48.2075 55.1632 48.2075Z" fill="#00BBE4"/>
<path d="M12.5597 62.125C11.5549 62.125 10.8516 62.9318 10.8516 63.8395C10.8516 64.848 11.6554 65.554 12.5597 65.554C13.5645 65.554 14.2678 64.7472 14.2678 63.8395C14.2678 62.9318 13.464 62.125 12.5597 62.125Z" fill="#00BBE4"/>
<path d="M18.3878 62.125C17.383 62.125 16.6797 62.9318 16.6797 63.8395C16.6797 64.848 17.4835 65.554 18.3878 65.554C19.3926 65.554 20.096 64.7472 20.096 63.8395C20.096 62.9318 19.2921 62.125 18.3878 62.125Z" fill="#00BBE4"/>
<path d="M24.2159 62.125C23.2112 62.125 22.5078 62.9318 22.5078 63.8395C22.5078 64.848 23.3116 65.554 24.2159 65.554C25.2207 65.554 25.9241 64.7472 25.9241 63.8395C25.9241 62.9318 25.2207 62.125 24.2159 62.125Z" fill="#00BBE4"/>
<path d="M30.0421 62.125C29.0373 62.125 28.334 62.9318 28.334 63.8395C28.334 64.848 29.1378 65.554 30.0421 65.554C31.0469 65.554 31.7503 64.7472 31.7503 63.8395C31.7503 62.9318 31.0469 62.125 30.0421 62.125Z" fill="#00BBE4"/>
<path d="M35.8702 62.125C34.8655 62.125 34.1621 62.9318 34.1621 63.8395C34.1621 64.848 34.9659 65.554 35.8702 65.554C36.875 65.554 37.5784 64.7472 37.5784 63.8395C37.5784 62.9318 36.875 62.125 35.8702 62.125Z" fill="#00BBE4"/>
<path d="M41.6984 62.125C40.6936 62.125 39.9902 62.9318 39.9902 63.8395C39.9902 64.848 40.7941 65.554 41.6984 65.554C42.7032 65.554 43.4065 64.7472 43.4065 63.8395C43.507 62.9318 42.7032 62.125 41.6984 62.125Z" fill="#00BBE4"/>
<path d="M47.5265 62.125C46.5217 62.125 45.8184 62.9318 45.8184 63.8395C45.8184 64.848 46.6222 65.554 47.5265 65.554C48.5313 65.554 49.2346 64.7472 49.2346 63.8395C49.3351 62.9318 48.5313 62.125 47.5265 62.125Z" fill="#00BBE4"/>
<path d="M54.7609 62.125C53.7561 62.125 53.0527 62.9318 53.0527 63.8395C53.0527 64.848 53.8566 65.554 54.7609 65.554C55.7657 65.554 56.469 64.7472 56.469 63.8395C56.469 62.9318 55.6652 62.125 54.7609 62.125Z" fill="#00BBE4"/>
<path d="M60.589 62.125C59.5842 62.125 58.8809 62.9318 58.8809 63.8395C58.8809 64.848 59.6847 65.554 60.589 65.554C61.5938 65.554 62.2971 64.7472 62.2971 63.8395C62.2971 62.9318 61.4933 62.125 60.589 62.125Z" fill="#00BBE4"/>
<path d="M66.4171 62.125C65.4123 62.125 64.709 62.9318 64.709 63.8395C64.709 64.848 65.5128 65.554 66.4171 65.554C67.4219 65.554 68.1253 64.7472 68.1253 63.8395C68.1253 62.9318 67.4219 62.125 66.4171 62.125Z" fill="#00BBE4"/>
<path d="M68.9288 5.64746C67.924 5.64746 67.2207 6.45428 67.2207 7.36195C67.2207 8.37047 68.0245 9.07644 68.9288 9.07644C69.9336 9.07644 70.637 8.26962 70.637 7.36195C70.7375 6.35343 69.9336 5.64746 68.9288 5.64746Z" fill="#00BBE4"/>
<path d="M68.9288 9.78223C67.924 9.78223 67.2207 10.589 67.2207 11.4967C67.2207 12.5052 68.0245 13.2112 68.9288 13.2112C69.9336 13.2112 70.637 12.4044 70.637 11.4967C70.7375 10.589 69.9336 9.78223 68.9288 9.78223Z" fill="#00BBE4"/>
<path d="M68.9288 14.0186C67.924 14.0186 67.2207 14.8254 67.2207 15.733C67.2207 16.7416 68.0245 17.4475 68.9288 17.4475C69.9336 17.4475 70.637 16.6407 70.637 15.733C70.7375 14.7245 69.9336 14.0186 68.9288 14.0186Z" fill="#00BBE4"/>
<path d="M74.8566 8.06836C73.8518 8.06836 73.1484 8.87518 73.1484 9.78285C73.1484 10.7914 73.9523 11.4973 74.8566 11.4973C75.8614 11.4973 76.5647 10.6905 76.5647 9.78285C76.6652 8.87518 75.8614 8.06836 74.8566 8.06836Z" fill="#00BBE4"/>
<path d="M74.8566 12.2031C73.8518 12.2031 73.1484 13.0099 73.1484 13.9176C73.1484 14.9261 73.9523 15.6321 74.8566 15.6321C75.8614 15.6321 76.5647 14.8253 76.5647 13.9176C76.6652 13.0099 75.8614 12.2031 74.8566 12.2031Z" fill="#00BBE4"/>
</svg>
