<svg width="72" height="32" viewBox="0 0 72 32" fill="none" xmlns="http://www.w3.org/2000/svg">
<path d="M36 0C20.1869 0 6.39252 9.53191 1.00935 13.9574C0.336449 14.2979 0 15.3191 0 16C0 16.6809 0.336449 17.7021 1.00935 18.0426C6.39252 22.4681 20.1869 32 36 32C52.1495 32 65.6075 22.4681 70.9907 18.0426C72.3364 17.0213 72.3364 14.9787 70.9907 13.617C65.9439 9.53191 52.1495 0 36 0ZM37.0093 25.1915C31.6262 25.5319 26.9159 21.1064 27.2523 15.3191C27.5888 10.8936 30.9533 7.48936 35.3271 6.80851C40.7103 6.46809 45.4206 10.8936 45.0841 16.6809C44.7477 21.1064 41.3832 24.8511 37.0093 25.1915Z" fill="#00BBE3"/>
</svg>
