<svg width="39" height="28" viewBox="0 0 39 28" fill="none" xmlns="http://www.w3.org/2000/svg">
<path fill-rule="evenodd" clip-rule="evenodd" d="M32.799 0.724494C35.1366 0.856119 36.2846 1.20224 37.3425 3.08399C38.4442 4.96331 39 8.20031 39 13.9016V13.9089V13.9211C39 19.5956 38.4443 22.857 37.3449 24.7168C36.2871 26.5986 35.139 26.9398 32.8014 27.0982C30.4639 27.2323 24.5919 27.3127 19.5049 27.3127C14.4081 27.3127 8.53369 27.2323 6.19856 27.0958C3.86588 26.9374 2.71781 26.5961 1.65019 24.7144C0.560625 22.8546 0 19.5932 0 13.9187V13.9138V13.9065V13.8992C0 8.20031 0.560625 4.96331 1.65019 3.08399C2.71781 1.19981 3.86831 0.856119 6.201 0.722057C8.53369 0.566057 14.4081 0.500244 19.5049 0.500244C24.5919 0.500244 30.4639 0.566057 32.799 0.724494ZM26.8125 13.9065L14.625 6.59402V21.219L26.8125 13.9065Z" fill="#00BBE4"/>
</svg>
