<svg width="29" height="30" viewBox="0 0 29 30" fill="none" xmlns="http://www.w3.org/2000/svg">
<path fill-rule="evenodd" clip-rule="evenodd" d="M9.0101 0.407227H19.8222C24.7976 0.407227 28.8323 4.44195 28.8323 9.41733V20.2294C28.8323 25.2048 24.7976 29.2395 19.8222 29.2395H9.0101C4.03472 29.2395 0 25.2048 0 20.2294V9.41733C0 4.44195 4.03472 0.407227 9.0101 0.407227ZM19.8224 26.5366C23.3003 26.5366 26.1294 23.7074 26.1294 20.2295V9.4174C26.1294 5.93951 23.3003 3.11034 19.8224 3.11034H9.01024C5.53234 3.11034 2.70317 5.93951 2.70317 9.4174V20.2295C2.70317 23.7074 5.53234 26.5366 9.01024 26.5366H19.8224ZM7.2079 14.8232C7.2079 10.8425 10.4353 7.6151 14.416 7.6151C18.3966 7.6151 21.6241 10.8425 21.6241 14.8232C21.6241 18.8038 18.3966 22.0313 14.416 22.0313C10.4353 22.0313 7.2079 18.8038 7.2079 14.8232ZM9.91107 14.8233C9.91107 17.3064 11.9329 19.3283 14.4161 19.3283C16.8993 19.3283 18.9212 17.3064 18.9212 14.8233C18.9212 12.3383 16.8993 10.3182 14.4161 10.3182C11.9329 10.3182 9.91107 12.3383 9.91107 14.8233ZM23.1253 7.07489C23.1253 7.60535 22.6953 8.03537 22.1648 8.03537C21.6344 8.03537 21.2043 7.60535 21.2043 7.07489C21.2043 6.54444 21.6344 6.11442 22.1648 6.11442C22.6953 6.11442 23.1253 6.54444 23.1253 7.07489Z" fill="#00BBE4"/>
</svg>
