<svg width="416" height="37" viewBox="0 0 416 37" fill="none" xmlns="http://www.w3.org/2000/svg">
<g clip-path="url(#clip0_1_2135)">
<path d="M271.014 34.5755C271.226 34.5755 271.438 34.3647 271.438 34.0484C271.438 34.0484 267.52 9.17094 266.143 0.843305C266.143 0.632479 265.931 0.527066 265.719 0.527066H260.636C260.424 0.527066 260.318 0.632479 260.212 0.843305C260.212 0.843305 253.646 19.2906 252.163 23.2963C250.68 19.1852 244.008 0.843305 244.008 0.843305C243.902 0.632479 243.797 0.527066 243.585 0.527066H238.289C238.078 0.527066 237.866 0.632479 237.866 0.843305L232.676 34.0484C232.676 34.2593 232.888 34.5755 233.1 34.5755H238.184C238.395 34.5755 238.607 34.3647 238.607 34.1539C238.607 34.1539 240.937 17.8148 241.89 12.3333C243.797 16.9715 249.516 34.2593 249.516 34.2593C249.621 34.4701 249.727 34.5755 249.939 34.5755H254.493C254.705 34.5755 254.811 34.4701 254.917 34.2593C254.917 34.2593 260.318 17.8148 262.436 12.6496C263.389 18.0256 265.719 34.2593 265.719 34.2593C265.719 34.4701 265.931 34.6809 266.143 34.6809H271.014V34.5755ZM130.265 17.0769C131.854 15.3903 132.701 12.9658 132.701 10.2251C132.701 3.58405 126.982 0.527066 121.687 0.527066H110.99C110.778 0.527066 110.566 0.737892 110.566 0.948718V34.1539C110.566 34.3647 110.778 34.5755 110.99 34.5755H113.426H113.532H121.792C133.336 34.5755 134.289 26.9858 134.289 24.5613C134.184 22.0313 133.019 19.0798 130.265 17.0769ZM116.391 6.4302H121.687C124.97 6.4302 126.876 8.22222 126.876 10.2251C126.876 13.1766 124.97 14.6524 121.369 14.6524H116.497V6.4302H116.391ZM121.687 28.7778H116.391V20.5556H121.263C122.957 20.5556 128.359 20.8718 128.359 24.6667C128.359 25.7208 128.359 28.7778 121.687 28.7778ZM174.534 17.1823C176.44 15.4957 177.605 13.1766 177.605 10.2251C177.605 4.11111 173.475 0 167.226 0C162.249 0 159.601 2.00285 158.648 2.84615C158.436 3.05698 158.436 3.26781 158.648 3.47863L162.46 6.85185C162.566 6.95727 162.778 6.95727 162.884 6.85185C163.414 6.53561 164.685 5.79772 167.12 5.79772C170.086 5.79772 171.674 7.2735 171.674 10.2251C171.674 12.8604 168.921 14.6524 164.896 14.6524H163.625C163.414 14.6524 163.202 14.8632 163.202 15.0741V20.0285C163.202 20.2393 163.414 20.4501 163.625 20.4501H164.896C172.098 20.4501 172.098 23.1909 172.098 24.5613C172.098 28.1453 168.709 28.6724 166.697 28.6724C163.308 28.6724 161.19 27.0912 160.342 26.4587C160.131 26.3533 159.919 26.3533 159.707 26.4587L156.318 30.1482C156.106 30.359 156.212 30.5698 156.318 30.7806C157.377 31.7293 161.084 34.4701 166.485 34.4701C173.157 34.4701 177.711 30.4644 177.711 24.4558C178.029 22.453 177.393 19.396 174.534 17.1823ZM144.033 0.632479C143.821 0.632479 143.609 0.843305 143.609 1.05413V34.2593C143.609 34.4701 143.821 34.6809 144.033 34.6809H149.01C149.222 34.6809 149.434 34.4701 149.434 34.2593V1.05413C149.434 0.843305 149.222 0.632479 149.01 0.632479H144.033ZM187.56 0.632479C187.348 0.632479 187.137 0.843305 187.137 1.05413V34.2593C187.137 34.4701 187.348 34.6809 187.56 34.6809H192.538C192.75 34.6809 192.962 34.4701 192.962 34.2593V1.05413C192.962 0.843305 192.75 0.632479 192.538 0.632479H187.56ZM229.181 0.632479H223.78C223.568 0.632479 223.463 0.737892 223.357 0.948718C223.357 0.948718 218.273 12.8604 215.625 18.6581C212.342 11.2792 208.106 0.948718 208.106 0.948718C208 0.737892 207.894 0.632479 207.683 0.632479H202.175C201.858 0.632479 201.646 0.948718 201.752 1.26496C201.752 1.26496 207.788 16.0228 212.448 25.7208C210.966 28.8832 210.012 28.8832 209.059 28.8832C208.953 28.8832 206.094 28.8832 206.094 28.8832C205.882 28.8832 205.67 28.9886 205.67 29.1994L204.823 34.0484C204.823 34.2593 204.929 34.5755 205.247 34.5755C205.247 34.5755 208.742 34.5755 210.542 34.5755C213.825 34.5755 215.837 32.2564 218.379 26.8803C223.145 16.5499 229.605 1.26496 229.605 1.26496C229.817 0.737892 229.605 0.632479 229.181 0.632479ZM303.951 7.90598V2.52991L301.727 7.90598H301.304L299.08 2.52991V7.90598H298.021V1.05413H299.397L301.516 6.11396L303.634 1.05413H305.01V7.90598H303.951ZM310.2 8.0114C309.67 8.0114 309.247 7.90598 308.823 7.80057C308.399 7.58974 308.082 7.37892 307.764 7.06268C307.446 6.74644 307.234 6.32479 307.023 5.90313C306.811 5.48148 306.811 4.95442 306.811 4.42735C306.811 3.90029 306.917 3.47863 307.023 3.05698C307.234 2.63533 307.446 2.21368 307.764 1.89744C308.082 1.5812 308.399 1.37037 308.823 1.15954C309.247 0.948718 309.67 0.843305 310.2 0.843305C310.729 0.843305 311.153 0.948718 311.577 1.15954C312 1.37037 312.318 1.5812 312.636 1.89744C312.953 2.21368 313.165 2.63533 313.271 3.05698C313.377 3.47863 313.483 4.0057 313.483 4.53276V4.849H307.976C307.976 5.16524 308.082 5.48148 308.188 5.79772C308.294 6.11396 308.505 6.32479 308.717 6.53561C308.929 6.74644 309.141 6.95727 309.458 7.06268C309.776 7.16809 310.094 7.27351 310.412 7.27351C310.835 7.27351 311.153 7.16809 311.577 7.06268C311.894 6.95727 312.318 6.74644 312.53 6.4302L313.059 7.16809C312.742 7.48433 312.318 7.80057 311.894 7.90598C311.259 7.90598 310.729 8.0114 310.2 8.0114ZM312.318 4.0057C312.318 3.79487 312.318 3.47863 312.212 3.26781C312.106 2.95157 312 2.74074 311.788 2.52991C311.577 2.31909 311.365 2.10826 311.047 2.00285C310.729 1.89744 310.412 1.79202 310.094 1.79202C309.776 1.79202 309.353 1.89744 309.141 2.00285C308.823 2.10826 308.611 2.31909 308.505 2.52991C308.294 2.74074 308.188 2.95157 308.082 3.26781C307.976 3.58405 307.976 3.79487 307.87 4.11111H312.318V4.0057ZM318.355 8.0114C317.931 8.0114 317.401 7.90598 317.084 7.69516C316.66 7.48433 316.342 7.16809 316.131 6.85185V10.4359H315.072V1.05413H316.131V2.10826C316.342 1.79202 316.66 1.47578 317.084 1.26496C317.507 1.05413 317.931 0.948718 318.461 0.948718C318.884 0.948718 319.308 1.05413 319.731 1.15954C320.155 1.37037 320.473 1.5812 320.685 1.89744C321.002 2.21368 321.214 2.52991 321.32 3.05698C321.426 3.47863 321.532 4.0057 321.532 4.53276C321.532 5.05983 321.426 5.58689 321.32 6.00855C321.214 6.4302 321.002 6.85185 320.685 7.16809C320.367 7.48433 320.049 7.69516 319.731 7.90598C319.202 7.90598 318.778 8.0114 318.355 8.0114ZM318.037 7.06268C318.355 7.06268 318.672 6.95727 318.99 6.85185C319.308 6.74644 319.52 6.53561 319.731 6.32479C319.943 6.11396 320.049 5.79772 320.155 5.48148C320.261 5.16524 320.261 4.849 320.261 4.42735C320.261 4.0057 320.261 3.68946 320.155 3.37322C320.049 3.05698 319.943 2.74074 319.731 2.52991C319.52 2.31909 319.308 2.10826 318.99 2.00285C318.672 1.89744 318.461 1.79202 318.037 1.79202C317.613 1.79202 317.19 1.89744 316.872 2.10826C316.448 2.31909 316.236 2.52991 316.025 2.84615V5.90313C316.236 6.21937 316.448 6.4302 316.872 6.64103C317.19 6.95727 317.613 7.06268 318.037 7.06268ZM326.086 8.0114C325.556 8.0114 325.133 7.90598 324.709 7.80057C324.285 7.58974 323.968 7.37892 323.65 7.06268C323.332 6.74644 323.12 6.32479 322.909 5.90313C322.697 5.48148 322.697 4.95442 322.697 4.42735C322.697 3.90029 322.803 3.47863 322.909 3.05698C323.12 2.63533 323.332 2.21368 323.65 1.89744C323.968 1.5812 324.285 1.37037 324.709 1.15954C325.133 0.948718 325.556 0.843305 326.086 0.843305C326.615 0.843305 327.039 0.948718 327.463 1.15954C327.886 1.37037 328.204 1.5812 328.522 1.89744C328.839 2.21368 329.051 2.63533 329.157 3.05698C329.263 3.47863 329.369 4.0057 329.369 4.53276V4.849H323.862C323.862 5.16524 323.968 5.48148 324.074 5.79772C324.179 6.11396 324.391 6.32479 324.603 6.53561C324.815 6.74644 325.027 6.95727 325.344 7.06268C325.662 7.16809 325.98 7.27351 326.298 7.27351C326.721 7.27351 327.039 7.16809 327.463 7.06268C327.78 6.95727 328.204 6.74644 328.416 6.4302L328.945 7.16809C328.628 7.48433 328.204 7.80057 327.78 7.90598C327.145 7.90598 326.615 8.0114 326.086 8.0114ZM328.204 4.0057C328.204 3.79487 328.204 3.47863 328.098 3.26781C327.992 2.95157 327.886 2.74074 327.674 2.52991C327.463 2.31909 327.251 2.10826 326.933 2.00285C326.615 1.89744 326.298 1.79202 325.98 1.79202C325.662 1.79202 325.239 1.89744 325.027 2.00285C324.709 2.10826 324.497 2.31909 324.391 2.52991C324.179 2.74074 324.074 2.95157 323.968 3.26781C323.862 3.58405 323.862 3.79487 323.756 4.11111H328.204V4.0057ZM330.004 7.90598L333.076 4.21652L330.004 1.05413H331.381L334.346 4.0057V1.05413H335.406V4.0057L338.371 1.05413H339.748L336.676 4.11111L339.748 7.80057H338.371L335.935 4.74359L335.406 5.27066V7.80057H334.346V5.27066L333.817 4.74359L331.381 7.80057H330.004V7.90598ZM345.149 7.90598V7.06268C344.619 7.69516 343.772 8.0114 342.925 8.0114C342.607 8.0114 342.395 8.0114 342.078 7.90598C341.76 7.80057 341.548 7.69516 341.336 7.48433C341.124 7.2735 340.913 7.06268 340.807 6.74644C340.701 6.4302 340.595 6.11396 340.595 5.79772C340.595 5.37607 340.701 5.05983 340.807 4.849C340.913 4.63818 341.124 4.32194 341.336 4.11111C341.548 3.90029 341.866 3.79487 342.078 3.68946C342.395 3.58405 342.607 3.58405 342.925 3.58405C343.348 3.58405 343.772 3.68946 344.196 3.79487C344.619 3.90029 344.937 4.21652 345.149 4.53276V3.26781C345.149 2.84615 344.937 2.4245 344.619 2.21368C344.302 2.00285 343.878 1.79202 343.349 1.79202C342.501 1.79202 341.866 2.10826 341.23 2.74074L340.701 2.00285C341.442 1.26496 342.289 0.843305 343.454 0.843305C343.772 0.843305 344.196 0.843305 344.513 0.948718C344.831 1.05413 345.149 1.15954 345.361 1.37037C345.573 1.5812 345.784 1.79202 345.89 2.10826C345.996 2.4245 346.102 2.74074 346.102 3.16239V7.80057H345.149V7.90598ZM343.243 7.27351C343.666 7.27351 343.984 7.16809 344.302 7.06268C344.619 6.95727 344.937 6.74644 345.149 6.4302V5.16524C344.937 4.849 344.619 4.63818 344.302 4.53276C343.984 4.42735 343.56 4.32194 343.243 4.32194C342.713 4.32194 342.289 4.42735 341.972 4.74359C341.654 5.05983 341.548 5.37607 341.548 5.79772C341.548 6.21937 341.654 6.53561 341.972 6.85185C342.289 7.16809 342.713 7.27351 343.243 7.27351ZM301.092 21.2934C300.562 21.2934 300.139 21.188 299.715 20.9772C299.291 20.7664 298.974 20.5556 298.656 20.2393C298.338 19.9231 298.127 19.5014 298.021 19.0798C297.915 18.6581 297.809 18.1311 297.809 17.7094C297.809 17.1823 297.915 16.7607 298.021 16.339C298.127 15.9174 298.444 15.4957 298.656 15.1795C298.974 14.8632 299.291 14.6524 299.715 14.4416C300.139 14.2308 300.562 14.1254 301.092 14.1254C301.621 14.1254 302.045 14.2308 302.469 14.4416C302.892 14.6524 303.21 14.8632 303.528 15.1795C303.845 15.4957 304.057 15.9174 304.163 16.339C304.269 16.7607 304.375 17.2878 304.375 17.7094C304.375 18.2365 304.269 18.6581 304.163 19.0798C304.057 19.5014 303.74 19.9231 303.528 20.2393C303.21 20.5556 302.892 20.8718 302.469 20.9772C302.045 21.188 301.516 21.2934 301.092 21.2934ZM301.092 20.3447C301.41 20.3447 301.833 20.2393 302.045 20.1339C302.257 20.0285 302.575 19.8177 302.786 19.6068C302.998 19.396 303.104 19.0798 303.21 18.7635C303.316 18.4473 303.316 18.1311 303.316 17.8148C303.316 17.4986 303.316 17.1823 303.21 16.8661C303.104 16.5499 302.998 16.2336 302.786 16.0228C302.575 15.812 302.363 15.6011 302.045 15.4957C301.727 15.3903 301.41 15.2849 301.092 15.2849C300.774 15.2849 300.351 15.3903 300.139 15.4957C299.821 15.6011 299.609 15.812 299.397 16.0228C299.186 16.2336 299.08 16.5499 298.974 16.8661C298.868 17.1823 298.868 17.4986 298.868 17.8148C298.868 18.1311 298.868 18.4473 298.974 18.7635C299.08 19.0798 299.186 19.396 299.397 19.6068C299.609 19.8177 299.821 20.0285 300.139 20.1339C300.456 20.2393 300.668 20.3447 301.092 20.3447ZM308.294 14.1254C308.717 14.1254 309.035 14.2308 309.353 14.4416C309.67 14.6524 309.988 14.9687 310.2 15.2849V11.7009H311.259V15.2849C311.471 14.9687 311.683 14.6524 312 14.4416C312.318 14.2308 312.636 14.1254 313.059 14.1254C313.377 14.1254 313.801 14.2308 314.012 14.3362C314.33 14.547 314.542 14.7578 314.754 15.0741C314.966 15.3903 315.177 15.7066 315.283 16.2336C315.389 16.6553 315.495 17.1823 315.495 17.7094C315.495 18.2365 315.389 18.7635 315.283 19.1852C315.177 19.6068 314.966 20.0285 314.754 20.3447C314.542 20.661 314.33 20.8718 314.012 21.0826C313.695 21.2934 313.377 21.2934 313.059 21.2934C312.636 21.2934 312.318 21.188 312 20.9772C311.683 20.7664 311.365 20.4501 311.153 20.1339V23.718H310.094V20.1339C309.882 20.4501 309.67 20.7664 309.353 20.9772C309.035 21.188 308.717 21.2934 308.294 21.2934C307.976 21.2934 307.552 21.188 307.34 21.0826C307.023 20.8718 306.811 20.661 306.599 20.3447C306.387 20.0285 306.175 19.7123 306.069 19.1852C305.964 18.7635 305.858 18.2365 305.858 17.7094C305.858 17.1823 305.964 16.6553 306.069 16.2336C306.175 15.812 306.387 15.3903 306.599 15.0741C306.811 14.7578 307.129 14.547 307.34 14.3362C307.552 14.2308 307.87 14.1254 308.294 14.1254ZM308.505 15.0741C308.294 15.0741 307.976 15.1795 307.764 15.2849C307.552 15.3903 307.34 15.6011 307.234 15.812C307.129 16.0228 307.023 16.339 306.917 16.6553C306.811 16.9715 306.811 17.2878 306.811 17.7094C306.811 18.1311 306.811 18.4473 306.917 18.7635C307.023 19.0798 307.129 19.396 307.234 19.6068C307.34 19.8177 307.552 20.0285 307.764 20.1339C307.976 20.2393 308.188 20.3447 308.505 20.3447C308.823 20.3447 309.141 20.2393 309.458 20.0285C309.776 19.8177 309.988 19.6068 310.094 19.2906V16.2336C309.988 15.9174 309.776 15.7066 309.458 15.4957C309.247 15.1795 308.929 15.0741 308.505 15.0741ZM312.742 20.3447C312.953 20.3447 313.271 20.2393 313.483 20.1339C313.695 20.0285 313.907 19.8177 314.012 19.6068C314.118 19.396 314.224 19.0798 314.33 18.7635C314.436 18.4473 314.436 18.1311 314.436 17.7094C314.436 17.2878 314.436 16.9715 314.33 16.6553C314.224 16.339 314.118 16.0228 314.012 15.812C313.907 15.6011 313.695 15.3903 313.483 15.2849C313.271 15.1795 313.059 15.0741 312.742 15.0741C312.424 15.0741 312.106 15.1795 311.788 15.3903C311.471 15.6011 311.259 15.812 311.153 16.1282V19.1852C311.259 19.5014 311.471 19.7123 311.788 19.9231C312.106 20.2393 312.424 20.3447 312.742 20.3447ZM318.566 21.188V15.2849H316.554V14.3362H321.638V15.2849H319.625V21.188H318.566ZM327.145 21.188V20.4501C326.615 21.0826 325.768 21.3989 324.921 21.3989C324.603 21.3989 324.391 21.3989 324.074 21.2934C323.756 21.188 323.544 21.0826 323.332 20.8718C323.12 20.661 322.909 20.4501 322.803 20.1339C322.697 19.8177 322.591 19.5014 322.591 19.1852C322.591 18.7635 322.697 18.4473 322.803 18.2365C322.909 17.9202 323.12 17.7094 323.332 17.4986C323.544 17.2878 323.862 17.1823 324.074 17.0769C324.391 16.9715 324.603 16.9715 324.921 16.9715C325.344 16.9715 325.768 17.0769 326.192 17.1823C326.615 17.2878 326.933 17.604 327.145 17.9202V16.6553C327.145 16.2336 326.933 15.812 326.615 15.6011C326.298 15.3903 325.874 15.1795 325.344 15.1795C324.497 15.1795 323.862 15.4957 323.226 16.1282L322.697 15.3903C323.438 14.6524 324.285 14.2308 325.45 14.2308C325.768 14.2308 326.192 14.2308 326.509 14.3362C326.827 14.4416 327.145 14.547 327.357 14.7578C327.568 14.9687 327.78 15.1795 327.886 15.4957C327.992 15.812 328.098 16.1282 328.098 16.5499V21.188H327.145ZM325.239 20.5556C325.662 20.5556 325.98 20.4501 326.298 20.3447C326.615 20.2393 326.933 20.0285 327.145 19.7123V18.4473C326.933 18.1311 326.615 17.9202 326.298 17.8148C325.98 17.7094 325.556 17.604 325.239 17.604C324.709 17.604 324.285 17.7094 323.968 18.0256C323.65 18.3419 323.544 18.6581 323.544 19.0798C323.544 19.5014 323.65 19.8177 323.968 20.1339C324.391 20.4501 324.815 20.5556 325.239 20.5556ZM329.475 20.4501C329.792 20.4501 330.11 20.2393 330.216 19.8177C330.428 19.396 330.64 18.6581 330.746 17.7094L331.169 14.3362H335.935V21.188H334.876V15.2849H332.122L331.805 17.8148C331.699 18.4473 331.593 18.9744 331.487 19.396C331.381 19.8177 331.169 20.2393 330.957 20.4501C330.746 20.7664 330.534 20.9772 330.322 21.0826C330.11 21.188 329.792 21.2934 329.475 21.2934V20.4501ZM339.112 14.3362V16.9715H341.654C341.972 16.9715 342.289 17.0769 342.607 17.1823C342.925 17.2878 343.137 17.4986 343.243 17.604C343.454 17.8148 343.56 18.0256 343.666 18.2365C343.772 18.4473 343.772 18.7635 343.772 19.0798C343.772 19.396 343.772 19.6068 343.666 19.9231C343.56 20.1339 343.454 20.4501 343.243 20.5556C343.031 20.7664 342.819 20.8718 342.607 20.9772C342.289 21.0826 342.078 21.188 341.654 21.188H338.053V14.3362H339.112ZM339.112 17.9202V20.2393H341.548C341.972 20.2393 342.184 20.1339 342.395 19.9231C342.607 19.7123 342.713 19.396 342.713 19.0798C342.713 18.7635 342.607 18.4473 342.395 18.2365C342.184 18.0256 341.866 17.9202 341.548 17.9202H339.112ZM351.186 21.188V15.812L348.962 21.188H348.538L346.314 15.812V21.188H345.255V14.3362H346.632L348.75 19.396L350.868 14.3362H352.245V21.188H351.186ZM357.328 21.2934C356.799 21.2934 356.375 21.188 355.951 20.9772C355.528 20.7664 355.21 20.5556 354.892 20.2393C354.575 19.9231 354.363 19.5014 354.257 19.0798C354.151 18.6581 354.045 18.1311 354.045 17.7094C354.045 17.1823 354.151 16.7607 354.257 16.339C354.363 15.9174 354.68 15.4957 354.892 15.1795C355.21 14.8632 355.528 14.6524 355.951 14.4416C356.375 14.2308 356.799 14.1254 357.328 14.1254C357.858 14.1254 358.281 14.2308 358.705 14.4416C359.129 14.6524 359.446 14.8632 359.764 15.1795C360.082 15.4957 360.294 15.9174 360.399 16.339C360.505 16.7607 360.611 17.2878 360.611 17.7094C360.611 18.2365 360.505 18.6581 360.399 19.0798C360.294 19.5014 359.976 19.9231 359.764 20.2393C359.446 20.5556 359.129 20.8718 358.705 20.9772C358.281 21.188 357.858 21.2934 357.328 21.2934ZM357.328 20.3447C357.646 20.3447 358.069 20.2393 358.281 20.1339C358.493 20.0285 358.811 19.8177 359.023 19.6068C359.234 19.396 359.34 19.0798 359.446 18.7635C359.552 18.4473 359.552 18.1311 359.552 17.8148C359.552 17.4986 359.552 17.1823 359.446 16.8661C359.34 16.5499 359.234 16.2336 359.023 16.0228C358.811 15.812 358.599 15.6011 358.281 15.4957C357.964 15.3903 357.646 15.2849 357.328 15.2849C357.01 15.2849 356.587 15.3903 356.375 15.4957C356.057 15.6011 355.845 15.812 355.634 16.0228C355.422 16.2336 355.316 16.5499 355.21 16.8661C355.104 17.1823 355.104 17.4986 355.104 17.8148C355.104 18.1311 355.104 18.4473 355.21 18.7635C355.316 19.0798 355.422 19.396 355.634 19.6068C355.845 19.8177 356.057 20.0285 356.375 20.1339C356.587 20.2393 356.904 20.3447 357.328 20.3447ZM361.564 20.4501C361.882 20.4501 362.2 20.2393 362.306 19.8177C362.518 19.396 362.729 18.6581 362.835 17.7094L363.259 14.3362H368.025V21.188H366.966V15.2849H364.212L363.894 17.8148C363.788 18.4473 363.683 18.9744 363.577 19.396C363.471 19.8177 363.259 20.2393 363.047 20.4501C362.835 20.7664 362.623 20.9772 362.412 21.0826C362.2 21.188 361.882 21.2934 361.564 21.2934V20.4501ZM373.108 21.2934C372.579 21.2934 372.155 21.188 371.731 20.9772C371.308 20.7664 370.99 20.5556 370.672 20.2393C370.355 19.9231 370.143 19.5014 370.037 19.0798C369.931 18.6581 369.825 18.1311 369.825 17.7094C369.825 17.1823 369.931 16.7607 370.037 16.339C370.143 15.9174 370.461 15.4957 370.672 15.1795C370.99 14.8632 371.308 14.6524 371.731 14.4416C372.155 14.2308 372.579 14.1254 373.108 14.1254C373.638 14.1254 374.061 14.2308 374.485 14.4416C374.909 14.6524 375.226 14.8632 375.544 15.1795C375.862 15.4957 376.074 15.9174 376.179 16.339C376.285 16.7607 376.391 17.2878 376.391 17.7094C376.391 18.2365 376.285 18.6581 376.179 19.0798C376.074 19.5014 375.756 19.9231 375.544 20.2393C375.226 20.5556 374.909 20.8718 374.485 20.9772C374.061 21.188 373.532 21.2934 373.108 21.2934ZM373.108 20.3447C373.426 20.3447 373.85 20.2393 374.061 20.1339C374.273 20.0285 374.591 19.8177 374.803 19.6068C375.014 19.396 375.12 19.0798 375.226 18.7635C375.332 18.4473 375.332 18.1311 375.332 17.8148C375.332 17.4986 375.332 17.1823 375.226 16.8661C375.12 16.5499 375.014 16.2336 374.803 16.0228C374.591 15.812 374.379 15.6011 374.061 15.4957C373.744 15.3903 373.426 15.2849 373.108 15.2849C372.79 15.2849 372.367 15.3903 372.155 15.4957C371.837 15.6011 371.626 15.812 371.414 16.0228C371.202 16.2336 371.096 16.5499 370.99 16.8661C370.884 17.1823 370.884 17.4986 370.884 17.8148C370.884 18.1311 370.884 18.4473 370.99 18.7635C371.096 19.0798 371.202 19.396 371.414 19.6068C371.626 19.8177 371.837 20.0285 372.155 20.1339C372.367 20.2393 372.685 20.3447 373.108 20.3447ZM382.852 15.2849H379.145V21.188H378.086V14.3362H382.852V15.2849ZM384.652 13.3875C384.44 13.3875 384.334 13.2821 384.122 13.1766C384.017 13.0712 383.911 12.8604 383.911 12.6496C383.911 12.4387 384.017 12.3333 384.122 12.1225C384.228 12.0171 384.44 11.9117 384.652 11.9117C384.864 11.9117 384.97 12.0171 385.182 12.1225C385.287 12.2279 385.393 12.4387 385.393 12.6496C385.393 12.8604 385.287 12.9658 385.182 13.1766C385.076 13.2821 384.864 13.3875 384.652 13.3875ZM384.122 21.188V14.3362H385.182V21.188H384.122ZM388.147 14.3362V16.2336C388.147 16.5499 388.147 16.8661 388.253 16.9715C388.359 17.1823 388.465 17.3932 388.57 17.4986C388.676 17.604 388.888 17.7094 389.1 17.7094C389.312 17.7094 389.524 17.8148 389.841 17.8148C390.159 17.8148 390.583 17.8148 390.9 17.7094C391.218 17.604 391.536 17.604 391.642 17.4986V14.3362H392.701V21.188H391.642V18.4473C391.43 18.5527 391.112 18.6581 390.689 18.7635C390.371 18.8689 389.947 18.8689 389.524 18.8689C388.676 18.8689 387.935 18.6581 387.617 18.3419C387.194 18.0256 386.982 17.3932 386.982 16.6553V14.4416H388.147V14.3362ZM394.819 21.188V14.3362H395.878V17.1823H399.479V14.3362H400.538V21.188H399.479V18.1311H395.878V21.188H394.819ZM402.55 21.188V14.3362H403.609V19.5014L407.21 14.3362H408.269V21.188H407.21V15.9174L403.609 21.188H402.55ZM414.729 21.188L412.717 18.4473L410.705 21.188H409.434L412.082 17.7094L409.646 14.4416H410.917L412.823 17.0769L414.729 14.4416H416L413.564 17.7094L416.212 21.188H414.729ZM303.528 34.3647H298.127V27.5128H299.186V33.416H302.786V27.5128H303.845V33.416H304.587V36.0513H303.528V34.3647ZM309.035 34.5755C308.505 34.5755 308.082 34.4701 307.658 34.3647C307.234 34.1538 306.917 33.943 306.599 33.6268C306.281 33.3105 306.069 32.8889 305.858 32.4672C305.646 32.0456 305.646 31.5185 305.646 30.9915C305.646 30.4644 305.752 30.0427 305.858 29.6211C306.069 29.1994 306.281 28.7778 306.599 28.4615C306.917 28.1453 307.234 27.9345 307.658 27.7236C308.082 27.5128 308.505 27.4074 309.035 27.4074C309.564 27.4074 309.988 27.5128 310.412 27.7236C310.835 27.9345 311.153 28.1453 311.471 28.4615C311.788 28.7778 312 29.1994 312.106 29.6211C312.212 30.0427 312.318 30.5698 312.318 31.0969V31.4131H306.811C306.811 31.7293 306.917 32.0456 307.023 32.3618C307.129 32.6781 307.34 32.8889 307.552 33.0997C307.764 33.3105 307.976 33.5214 308.294 33.6268C308.611 33.7322 308.929 33.8376 309.247 33.8376C309.67 33.8376 309.988 33.7322 310.412 33.6268C310.729 33.5214 311.153 33.3105 311.365 32.9943L311.894 33.7322C311.577 34.0484 311.153 34.3647 310.729 34.4701C310.094 34.4701 309.564 34.5755 309.035 34.5755ZM311.153 30.5698C311.153 30.359 311.153 30.0427 311.047 29.8319C310.941 29.5157 310.835 29.3048 310.623 29.094C310.412 28.8832 310.2 28.6724 309.882 28.567C309.564 28.4615 309.247 28.3561 308.929 28.3561C308.611 28.3561 308.188 28.4615 307.976 28.567C307.764 28.6724 307.446 28.8832 307.34 29.094C307.129 29.3048 307.023 29.5157 306.917 29.8319C306.811 30.1482 306.811 30.359 306.705 30.6752H311.153V30.5698ZM313.801 34.3647V27.5128H314.86V30.359H318.461V27.5128H319.52V34.3647H318.461V31.3077H314.86V34.3647H313.801ZM322.803 34.3647V28.4615H320.79V27.5128H325.874V28.4615H323.862V34.3647H322.803ZM330.534 34.5755C330.11 34.5755 329.581 34.4701 329.263 34.2593C328.839 34.0484 328.522 33.7322 328.31 33.416V37H327.251V27.6182H328.31V28.6724C328.522 28.3561 328.839 28.0399 329.263 27.8291C329.687 27.6182 330.11 27.5128 330.64 27.5128C331.063 27.5128 331.487 27.6182 331.911 27.7236C332.334 27.9345 332.652 28.1453 332.864 28.4615C333.181 28.7778 333.393 29.094 333.499 29.6211C333.605 30.0427 333.711 30.5698 333.711 31.0969C333.711 31.6239 333.605 32.151 333.499 32.5727C333.393 32.9943 333.181 33.416 332.864 33.7322C332.546 34.0484 332.228 34.2593 331.911 34.4701C331.381 34.4701 330.957 34.5755 330.534 34.5755ZM330.216 33.6268C330.534 33.6268 330.852 33.5214 331.169 33.416C331.487 33.3105 331.699 33.0997 331.911 32.8889C332.122 32.6781 332.228 32.3618 332.334 32.0456C332.44 31.7293 332.44 31.4131 332.44 30.9915C332.44 30.5698 332.44 30.2536 332.334 29.9373C332.228 29.6211 332.122 29.3048 331.911 29.094C331.699 28.8832 331.487 28.6724 331.169 28.567C330.852 28.4615 330.64 28.3561 330.216 28.3561C329.792 28.3561 329.369 28.4615 329.051 28.6724C328.628 28.8832 328.416 29.094 328.204 29.4103V32.4672C328.416 32.7835 328.628 32.9943 329.051 33.2051C329.369 33.5214 329.792 33.6268 330.216 33.6268ZM335.723 26.6695C335.511 26.6695 335.406 26.5641 335.194 26.4587C335.088 26.3533 334.982 26.1425 334.982 25.9316C334.982 25.7208 335.088 25.6154 335.194 25.4046C335.3 25.2991 335.511 25.1937 335.723 25.1937C335.935 25.1937 336.041 25.2991 336.253 25.4046C336.359 25.51 336.465 25.7208 336.465 25.9316C336.465 26.1425 336.359 26.2479 336.253 26.4587C336.041 26.5641 335.829 26.6695 335.723 26.6695ZM335.194 34.3647V27.5128H336.253V34.3647H335.194ZM338.265 34.3647V27.5128H342.078C342.713 27.5128 343.137 27.7236 343.454 28.0399C343.772 28.3561 343.984 28.7778 343.984 29.3048C343.984 29.7265 343.878 30.0427 343.666 30.359C343.454 30.5698 343.137 30.7806 342.925 30.886C343.137 30.886 343.243 30.9915 343.454 31.0969C343.56 31.2023 343.772 31.3077 343.878 31.5185C343.984 31.6239 344.09 31.8348 344.196 32.0456C344.302 32.2564 344.302 32.3618 344.302 32.5727C344.302 33.0997 344.09 33.6268 343.772 33.943C343.454 34.2593 342.925 34.4701 342.289 34.4701H338.265V34.3647ZM341.866 33.416C342.184 33.416 342.501 33.3105 342.713 33.0997C342.925 32.8889 343.031 32.6781 343.031 32.3618C343.031 32.0456 342.925 31.8348 342.713 31.6239C342.501 31.4131 342.289 31.3077 341.866 31.3077H339.324V33.416H341.866ZM341.866 30.4644C342.184 30.4644 342.501 30.359 342.607 30.2536C342.819 30.0427 342.819 29.8319 342.819 29.6211C342.819 29.3048 342.713 29.094 342.607 28.8832C342.395 28.6724 342.184 28.6724 341.866 28.6724H339.324V30.5698H341.866V30.4644Z" fill="white"/>
<path d="M41.5153 0C23.0876 0 7.41344 10.7521 1.16497 15.7066C0.423625 16.339 0 17.2878 0 18.1311C0 19.0798 0.423625 19.9231 1.16497 20.5556C7.41344 25.51 23.0876 36.2621 41.5153 36.2621C59.943 36.2621 75.6171 25.51 81.8656 20.5556C83.4542 19.2906 83.4542 16.9715 81.8656 15.7066C75.723 10.7521 59.943 0 41.5153 0ZM42.3625 28.4615C36.0081 28.9886 30.7128 23.718 31.2424 17.3932C31.666 12.4387 35.6904 8.32764 40.668 8.0114C47.1283 7.37892 52.3177 12.6496 51.8941 18.9744C51.4705 23.9288 47.446 28.0399 42.3625 28.4615Z" fill="#00BBE4"/>
</g>
<defs>
<clipPath id="clip0_1_2135">
<rect width="416" height="37" fill="white"/>
</clipPath>
</defs>
</svg>
