<svg width="93" height="63" viewBox="0 0 93 63" fill="none" xmlns="http://www.w3.org/2000/svg">
<path d="M47.8971 23.4807C46.9197 23.3418 46.2215 22.3692 46.3611 21.3966C46.5007 20.424 47.4782 19.7294 48.4557 19.8683C49.4332 20.0072 50.1314 20.9798 49.9917 21.9524C49.8521 22.9249 49.0143 23.4807 48.1764 23.4807C48.0368 23.6196 48.0368 23.6196 47.8971 23.4807ZM41.1944 22.786C40.9152 21.8134 41.3341 20.7019 42.4512 20.424C43.4287 20.1462 44.5458 20.563 44.8251 21.6745C45.1043 22.6471 44.6854 23.7586 43.5683 24.0365C43.4287 24.0365 43.1494 24.1754 43.0098 24.1754C42.1719 24.0365 41.3341 23.4807 41.1944 22.786ZM51.9467 25.2869C51.1089 24.7312 50.9692 23.4807 51.5278 22.6471C52.0863 21.8134 53.3431 21.6745 54.1809 22.2303C55.0188 22.786 55.1584 24.0365 54.5998 24.8701C54.1809 25.4259 53.6224 25.5648 53.0638 25.5648C52.6449 25.5648 52.226 25.4259 51.9467 25.2869ZM37.1449 26.2595C36.4467 25.5648 36.3071 24.3143 37.1449 23.6196C37.8431 22.9249 39.0998 22.786 39.798 23.6196C40.4962 24.3143 40.6359 25.5648 39.798 26.2595C39.3791 26.6763 38.9602 26.8152 38.4016 26.8152C37.9827 26.8152 37.5638 26.6763 37.1449 26.2595ZM54.7395 28.6214C54.3206 27.6489 54.7395 26.5374 55.5773 26.1205C56.5548 25.7037 57.6719 26.1205 58.0908 26.9542C58.5097 27.9268 58.0908 29.0383 57.253 29.4551C56.9737 29.594 56.6944 29.594 56.4152 29.594C55.717 29.594 55.0188 29.3161 54.7395 28.6214ZM35.3296 31.2613C34.3521 30.9834 33.7935 29.8719 34.0728 28.8993C34.3521 27.9268 35.4692 27.371 36.4467 27.6489C37.4242 27.9268 37.9827 29.0383 37.7034 30.0108C37.4242 30.8445 36.726 31.4002 35.8881 31.4002C35.6089 31.4002 35.4692 31.2613 35.3296 31.2613ZM57.3926 34.7348C56.4152 34.7348 55.5773 33.9011 55.5773 32.7896C55.5773 31.817 56.4152 30.9834 57.5323 30.9834C58.5098 30.9834 59.3476 31.817 59.3476 32.9286C59.3476 34.0401 58.5097 34.7348 57.3926 34.7348C57.5323 34.7348 57.3926 34.7348 57.3926 34.7348ZM33.6539 35.0126C33.5143 34.0401 34.0728 33.0675 35.1899 32.7896C36.1674 32.6507 37.1449 33.2064 37.4242 34.318C37.5638 35.2905 37.0053 36.2631 35.8881 36.541C35.7485 36.541 35.6089 36.541 35.4692 36.541C34.6314 36.541 33.9332 35.9852 33.6539 35.0126ZM55.1584 39.5976C54.1809 39.0419 53.9016 37.9304 54.4602 37.0967C55.0188 36.1242 56.1359 35.8463 56.9737 36.402C57.9512 36.9578 58.2305 38.0693 57.6719 38.9029C57.3926 39.5976 56.6944 39.8755 55.9962 39.8755C55.8566 39.8755 55.4377 39.7366 55.1584 39.5976ZM36.4467 40.5702C35.7485 39.7366 35.8881 38.6251 36.726 37.9304C37.5638 37.2357 38.6809 37.3746 39.3791 38.2082C40.0773 39.0419 39.9377 40.1534 39.0998 40.8481C38.6809 41.126 38.262 41.2649 37.8431 41.2649C37.2845 41.2649 36.8656 41.126 36.4467 40.5702ZM51.1088 42.9322C50.5503 42.0985 50.6899 40.8481 51.6674 40.2923C52.5052 39.7366 53.762 39.8755 54.3206 40.8481C54.8791 41.6817 54.7395 42.9322 53.762 43.4879C53.4827 43.7658 53.0638 43.7658 52.6449 43.7658C51.9467 43.7658 51.3881 43.4879 51.1088 42.9322ZM41.3341 44.1826C40.3566 43.7658 39.9377 42.6543 40.3566 41.6817C40.7755 40.7091 41.8926 40.2923 42.8701 40.7091C43.8476 41.126 44.2665 42.2375 43.8476 43.2101C43.5683 43.9047 42.8701 44.3216 42.1719 44.3216C41.8926 44.3216 41.6134 44.3216 41.3341 44.1826ZM45.3836 43.4879C45.3836 42.5154 46.2215 41.5428 47.3386 41.5428H47.4782H47.6179C48.5953 41.5428 49.5728 42.3764 49.5728 43.349C49.5728 44.3216 48.735 45.2941 47.7575 45.2941H47.6179H47.4782C46.2215 45.4331 45.3836 44.5994 45.3836 43.4879Z" fill="#00BBE4"/>
<path d="M3.77018 33.9009H27.9278C28.9053 33.9009 29.6035 33.2062 29.6035 32.2337C29.6035 31.2611 28.9053 30.5664 27.9278 30.5664H3.77018C2.7927 30.5664 2.09451 31.2611 2.09451 32.2337C2.09451 33.2062 2.7927 33.9009 3.77018 33.9009Z" fill="#00BBE4"/>
<path d="M31.1284 28.482C31.8266 28.482 32.3851 28.0651 32.6644 27.5094C33.0833 26.6757 32.6644 25.7032 31.6869 25.2864L25.8221 22.9244C24.9842 22.6465 24.0068 22.9244 23.5878 23.897C23.3086 24.7306 23.5878 25.7032 24.5653 26.12L30.4302 28.482C30.7095 28.482 30.8491 28.482 31.1284 28.482Z" fill="#00BBE4"/>
<path d="M25.2639 41.6812C25.5432 41.6812 25.6828 41.6812 25.9621 41.5422L31.827 39.1803C32.6648 38.7634 33.0837 37.7909 32.8045 36.9572C32.3855 36.1236 31.4081 35.7068 30.5702 35.9847L24.7054 38.3466C23.8675 38.6245 23.4486 39.736 23.7279 40.5696C24.0072 41.2643 24.5657 41.6812 25.2639 41.6812Z" fill="#00BBE4"/>
<path d="M46.5 14.5883C27.2297 14.5883 10.6126 26.1202 4.32883 31.122C3.90991 31.5388 3.77027 31.9557 3.77027 32.2335C3.77027 32.5114 3.90991 32.9282 4.32883 33.345C10.6126 38.3468 27.2297 49.8788 46.5 49.8788C65.7703 49.8788 82.527 38.3468 88.6712 33.345C89.0901 32.9282 89.2297 32.5114 89.2297 32.2335C89.2297 31.9557 89.0901 31.5388 88.6712 31.122C82.527 26.1202 65.7703 14.5883 46.5 14.5883ZM46.5 53.6301C25.973 53.6301 8.51802 41.5424 1.95495 36.2628C0.698198 35.2902 0 33.9008 0 32.2335C0 30.7052 0.698198 29.1769 1.95495 28.2043C8.51802 22.9246 25.973 10.8369 46.5 10.8369C67.027 10.8369 84.482 22.9246 91.045 28.2043C92.3018 29.1769 93 30.7052 93 32.2335C93 33.7619 92.3018 35.2902 91.045 36.2628C84.482 41.5424 67.027 53.6301 46.5 53.6301Z" fill="#00BBE4"/>
</svg>
