<svg width="93" height="64" viewBox="0 0 93 64" fill="none" xmlns="http://www.w3.org/2000/svg">
<g clip-path="url(#clip0_1_1738)">
<path d="M47.8971 23.7389C46.9197 23.5984 46.2215 22.6152 46.3611 21.6319C46.5007 20.6486 47.4782 19.9463 48.4557 20.0867C49.4332 20.2272 50.1314 21.2105 49.9917 22.1938C49.8521 23.177 49.0143 23.7389 48.1764 23.7389C48.0368 23.8794 48.0368 23.8794 47.8971 23.7389ZM41.1944 23.0366C40.9152 22.0533 41.3341 20.9295 42.4512 20.6486C43.4287 20.3677 44.5458 20.7891 44.8251 21.9128C45.1043 22.8961 44.6854 24.0198 43.5683 24.3008C43.4287 24.3008 43.1494 24.4412 43.0098 24.4412C42.1719 24.3008 41.3341 23.7389 41.1944 23.0366ZM51.9467 25.565C51.1089 25.0031 50.9692 23.7389 51.5278 22.8961C52.0863 22.0533 53.3431 21.9128 54.1809 22.4747C55.0188 23.0366 55.1584 24.3008 54.5998 25.1436C54.1809 25.7054 53.6224 25.8459 53.0638 25.8459C52.6449 25.8459 52.226 25.7054 51.9467 25.565ZM37.1449 26.5482C36.4467 25.8459 36.3071 24.5817 37.1449 23.8794C37.8431 23.177 39.0998 23.0366 39.798 23.8794C40.4962 24.5817 40.6359 25.8459 39.798 26.5482C39.3791 26.9696 38.9602 27.1101 38.4016 27.1101C37.9827 27.1101 37.5638 26.9696 37.1449 26.5482ZM54.7395 28.9362C54.3206 27.9529 54.7395 26.8292 55.5773 26.4078C56.5548 25.9864 57.6719 26.4078 58.0908 27.2506C58.5098 28.2338 58.0908 29.3576 57.253 29.779C56.9737 29.9194 56.6944 29.9194 56.4152 29.9194C55.717 29.9194 55.0188 29.6385 54.7395 28.9362ZM35.3296 31.605C34.3521 31.3241 33.7935 30.2004 34.0728 29.2171C34.3521 28.2338 35.4692 27.672 36.4467 27.9529C37.4242 28.2338 37.9827 29.3576 37.7034 30.3408C37.4242 31.1836 36.726 31.7455 35.8881 31.7455C35.6089 31.7455 35.4692 31.605 35.3296 31.605ZM57.3926 35.1167C56.4152 35.1167 55.5773 34.2739 55.5773 33.1502C55.5773 32.1669 56.4152 31.3241 57.5323 31.3241C58.5098 31.3241 59.3476 32.1669 59.3476 33.2906C59.3476 34.4144 58.5098 35.1167 57.3926 35.1167C57.5323 35.1167 57.3926 35.1167 57.3926 35.1167ZM33.6539 35.3977C33.5143 34.4144 34.0728 33.4311 35.1899 33.1502C36.1674 33.0097 37.1449 33.5716 37.4242 34.6953C37.5638 35.6786 37.0053 36.6619 35.8881 36.9428C35.7485 36.9428 35.6089 36.9428 35.4692 36.9428C34.6314 36.9428 33.9332 36.3809 33.6539 35.3977ZM55.1584 40.0331C54.1809 39.4712 53.9016 38.3475 54.4602 37.5047C55.0188 36.5214 56.1359 36.2405 56.9737 36.8023C57.9512 37.3642 58.2305 38.4879 57.6719 39.3307C57.3926 40.0331 56.6944 40.314 55.9962 40.314C55.8566 40.314 55.4377 40.1735 55.1584 40.0331ZM36.4467 41.0163C35.7485 40.1735 35.8881 39.0498 36.726 38.3475C37.5638 37.6451 38.6809 37.7856 39.3791 38.6284C40.0773 39.4712 39.9377 40.5949 39.0998 41.2973C38.6809 41.5782 38.262 41.7187 37.8431 41.7187C37.2845 41.7187 36.8656 41.5782 36.4467 41.0163ZM51.1089 43.4043C50.5503 42.5615 50.6899 41.2973 51.6674 40.7354C52.5052 40.1735 53.762 40.314 54.3206 41.2973C54.8791 42.1401 54.7395 43.4043 53.762 43.9661C53.4827 44.2471 53.0638 44.2471 52.6449 44.2471C51.9467 44.2471 51.3881 43.9661 51.1089 43.4043ZM41.3341 44.6685C40.3566 44.2471 39.9377 43.1233 40.3566 42.1401C40.7755 41.1568 41.8926 40.7354 42.8701 41.1568C43.8476 41.5782 44.2665 42.7019 43.8476 43.6852C43.5683 44.3875 42.8701 44.8089 42.1719 44.8089C41.8926 44.8089 41.6134 44.8089 41.3341 44.6685ZM45.3836 43.9661C45.3836 42.9829 46.2215 41.9996 47.3386 41.9996H47.4782H47.6179C48.5953 41.9996 49.5728 42.8424 49.5728 43.8257C49.5728 44.8089 48.735 45.7922 47.7575 45.7922H47.6179H47.4782C46.2215 45.9327 45.3836 45.0899 45.3836 43.9661Z" fill="#00BBE4"/>
<path d="M89.2298 34.274H65.0722C64.0947 34.274 63.3965 33.5717 63.3965 32.5884C63.3965 31.6052 64.0947 30.9028 65.0722 30.9028H89.2298C90.2073 30.9028 90.9055 31.6052 90.9055 32.5884C90.9055 33.5717 90.2073 34.274 89.2298 34.274Z" fill="#00BBE4"/>
<path d="M63.5357 28.7962C62.8375 28.7962 62.2789 28.3747 61.9996 27.8129C61.5807 26.9701 61.9996 25.9868 62.9771 25.5654L68.842 23.1775C69.6798 22.8965 70.6573 23.1775 71.0762 24.1607C71.3555 25.0035 71.0762 25.9868 70.0988 26.4082L64.2339 28.7962C63.9546 28.7962 63.815 28.7962 63.5357 28.7962Z" fill="#00BBE4"/>
<path d="M69.4001 42.1398C69.1209 42.1398 68.9812 42.1398 68.7019 41.9993L62.8371 39.6114C61.9992 39.19 61.5803 38.2067 61.8596 37.3639C62.2785 36.5211 63.256 36.0997 64.0938 36.3806L69.9587 38.7686C70.7965 39.0495 71.2155 40.1732 70.9362 41.016C70.6569 41.7184 70.0983 42.1398 69.4001 42.1398Z" fill="#00BBE4"/>
<path d="M46.5 14.7487C27.2297 14.7487 10.6126 26.4074 4.32883 31.4642C3.90991 31.8856 3.77027 32.307 3.77027 32.588C3.77027 32.8689 3.90991 33.2903 4.32883 33.7117C10.6126 38.7685 27.2297 50.4273 46.5 50.4273C65.7703 50.4273 82.527 38.7685 88.6712 33.7117C89.0901 33.2903 89.2297 32.8689 89.2297 32.588C89.2297 32.307 89.0901 31.8856 88.6712 31.4642C82.527 26.4074 65.7703 14.7487 46.5 14.7487ZM46.5 54.2199C25.973 54.2199 8.51802 41.9993 1.95495 36.6615C0.698198 35.6783 0 34.2736 0 32.588C0 31.0428 0.698198 29.4977 1.95495 28.5144C8.51802 23.1767 25.973 10.9561 46.5 10.9561C67.027 10.9561 84.482 23.1767 91.045 28.5144C92.3018 29.4977 93 31.0428 93 32.588C93 34.1331 92.3018 35.6783 91.045 36.6615C84.482 41.9993 67.027 54.2199 46.5 54.2199Z" fill="#00BBE4"/>
<path d="M2.65222 18.8226C1.5351 18.8226 0.697266 17.9798 0.697266 16.8561V16.2942C0.697266 15.1704 1.5351 14.3276 2.65222 14.3276C3.76934 14.3276 4.60718 15.1704 4.60718 16.2942V16.8561C4.46754 17.9798 3.6297 18.8226 2.65222 18.8226ZM2.65222 11.6588C1.5351 11.6588 0.697266 10.816 0.697266 9.69223V9.13036C0.697266 8.00662 1.5351 7.16382 2.65222 7.16382C3.76934 7.16382 4.60718 8.00662 4.60718 9.13036V9.69223C4.46754 10.816 3.6297 11.6588 2.65222 11.6588ZM2.65222 4.49495C1.5351 4.49495 0.697266 3.65214 0.697266 2.52841V1.96654C0.697266 0.842802 1.5351 0 2.65222 0C3.76934 0 4.60718 0.842802 4.60718 1.96654V2.52841C4.46754 3.51168 3.6297 4.49495 2.65222 4.49495Z" fill="#00BBE4"/>
<path d="M19.4104 2.2473C19.4104 3.37104 18.5726 4.21384 17.4554 4.21384H16.8969C15.7798 4.21384 14.9419 3.37104 14.9419 2.2473C14.9419 1.12356 15.7798 0.280762 16.8969 0.280762H17.4554C18.5726 0.280762 19.4104 1.12356 19.4104 2.2473ZM12.2888 2.2473C12.2888 3.23057 11.3113 4.21384 10.3338 4.21384H9.77527C8.65815 4.21384 7.82031 3.23057 7.82031 2.2473C7.82031 1.26403 8.65815 0.280762 9.77527 0.280762H10.3338C11.3113 0.280762 12.2888 1.12356 12.2888 2.2473Z" fill="#00BBE4"/>
<path d="M19.409 61.6648C19.409 62.7885 18.5711 63.6313 17.454 63.6313H16.8955C15.7783 63.6313 14.9405 62.7885 14.9405 61.6648C14.9405 60.541 15.7783 59.6982 16.8955 59.6982H17.454C18.5711 59.6982 19.409 60.541 19.409 61.6648ZM12.2874 61.6648C12.2874 62.7885 11.4495 63.6313 10.3324 63.6313H9.77384C8.65672 63.6313 7.81889 62.7885 7.81889 61.6648C7.81889 60.541 8.65672 59.6982 9.77384 59.6982H10.3324C11.4495 59.6982 12.2874 60.541 12.2874 61.6648ZM5.02609 61.6648C5.02609 62.7885 4.18826 63.6313 3.07114 63.6313H2.65222C1.5351 63.6313 0.697266 62.7885 0.697266 61.6648C0.697266 60.541 1.5351 59.6982 2.65222 59.6982H3.21078C4.18826 59.6982 5.02609 60.541 5.02609 61.6648Z" fill="#00BBE4"/>
<path d="M2.93152 44.8091C4.04864 44.8091 4.88647 45.6519 4.88647 46.7756V47.3375C4.88647 48.4612 4.04864 49.304 2.93152 49.304C1.8144 49.304 0.976562 48.4612 0.976562 47.3375V46.7756C0.976562 45.6519 1.8144 44.8091 2.93152 44.8091ZM2.93152 51.9729C4.04864 51.9729 4.88647 52.8157 4.88647 53.9394V54.5013C4.88647 55.625 4.04864 56.4678 2.93152 56.4678C1.8144 56.4678 0.976562 55.625 0.976562 54.5013V53.9394C0.976562 52.8157 1.8144 51.9729 2.93152 51.9729Z" fill="#00BBE4"/>
<path d="M87.1348 16.8561V16.2942C87.1348 15.1704 87.9726 14.3276 89.0897 14.3276C90.2068 14.3276 91.0447 15.1704 91.0447 16.2942V16.8561C91.0447 17.9798 90.2068 18.8226 89.0897 18.8226C87.9726 18.8226 87.1348 17.9798 87.1348 16.8561ZM87.1348 9.69223V9.13036C87.1348 8.00662 87.9726 7.16382 89.0897 7.16382C90.2068 7.16382 91.0447 8.00662 91.0447 9.13036V9.69223C91.0447 10.816 90.2068 11.6588 89.0897 11.6588C87.9726 11.6588 87.1348 10.816 87.1348 9.69223ZM87.1348 2.52841V1.96654C87.1348 0.842802 87.9726 0 89.0897 0C90.2068 0 91.0447 0.842802 91.0447 1.96654V2.52841C91.0447 3.65214 90.2068 4.49495 89.0897 4.49495C87.9726 4.49495 87.1348 3.51168 87.1348 2.52841Z" fill="#00BBE4"/>
<path d="M74.2889 0.280762H74.8475C75.9646 0.280762 76.8025 1.12356 76.8025 2.2473C76.8025 3.37104 75.825 4.21384 74.8475 4.21384H74.2889C73.1718 4.21384 72.334 3.37104 72.334 2.2473C72.334 1.12356 73.1718 0.280762 74.2889 0.280762ZM81.4106 0.280762H81.9691C83.0862 0.280762 83.9241 1.12356 83.9241 2.2473C83.9241 3.37104 83.0862 4.21384 81.9691 4.21384H81.4106C80.2934 4.21384 79.4556 3.37104 79.4556 2.2473C79.4556 1.12356 80.2934 0.280762 81.4106 0.280762Z" fill="#00BBE4"/>
<path d="M74.2889 59.6982H74.8475C75.9646 59.6982 76.8025 60.541 76.8025 61.6648C76.8025 62.7885 75.9646 63.6313 74.8475 63.6313H74.2889C73.1718 63.6313 72.334 62.7885 72.334 61.6648C72.334 60.541 73.1718 59.6982 74.2889 59.6982ZM81.4106 59.6982H81.9691C83.0862 59.6982 83.9241 60.541 83.9241 61.6648C83.9241 62.7885 83.0862 63.6313 81.9691 63.6313H81.4106C80.2934 63.6313 79.4556 62.7885 79.4556 61.6648C79.4556 60.541 80.2934 59.6982 81.4106 59.6982ZM88.5322 59.6982H89.0907C90.2079 59.6982 91.0457 60.541 91.0457 61.6648C91.0457 62.7885 90.2079 63.6313 89.0907 63.6313H88.5322C87.4151 63.6313 86.5772 62.7885 86.5772 61.6648C86.5772 60.541 87.5547 59.6982 88.5322 59.6982Z" fill="#00BBE4"/>
<path d="M90.7654 46.7756V47.3375C90.7654 48.4612 89.9275 49.304 88.8104 49.304C87.6933 49.304 86.8555 48.4612 86.8555 47.3375V46.7756C86.8555 45.6519 87.6933 44.8091 88.8104 44.8091C89.9275 44.8091 90.7654 45.6519 90.7654 46.7756ZM90.7654 53.9394V54.5013C90.7654 55.625 89.9275 56.4678 88.8104 56.4678C87.6933 56.4678 86.8555 55.625 86.8555 54.5013V53.9394C86.8555 52.8157 87.6933 51.9729 88.8104 51.9729C89.9275 51.9729 90.7654 52.8157 90.7654 53.9394Z" fill="#00BBE4"/>
</g>
<defs>
<clipPath id="clip0_1_1738">
<rect width="93" height="63.6316" fill="white"/>
</clipPath>
</defs>
</svg>
