<svg width="93" height="51" viewBox="0 0 93 51" fill="none" xmlns="http://www.w3.org/2000/svg">
<g opacity="0.95" clip-path="url(#clip0_1_1705)">
<path d="M32.7836 33.0933L18.3987 47.3949C17.5624 48.2263 17.5624 49.3904 18.3987 50.2219C18.7333 50.5545 19.2351 50.8871 19.9041 50.8871C20.4059 50.8871 20.9077 50.7208 21.4095 50.2219L35.6271 35.9204C36.4635 35.0889 36.4635 33.9248 35.6271 33.0933C34.7908 32.2619 33.62 32.2619 32.7836 33.0933Z" fill="#00BBE4"/>
<path d="M93.0017 21.1197C92.8344 19.623 92.1654 18.1263 90.8272 17.2949C84.1366 11.9734 66.7409 0 46.5017 0C26.2625 0 8.69952 11.9734 2.17614 17.1286C1.00527 18.1263 0.168943 19.4567 0.00167689 20.9534C-0.165589 22.6164 0.670742 24.2793 2.00887 25.4434C5.01966 27.7716 10.2049 31.5964 17.0628 35.0886C17.8992 35.4212 18.7355 35.2549 19.4046 34.756C20.4082 33.7582 20.0736 32.2616 18.9028 31.5964C12.3794 28.2704 7.36139 24.6119 4.51786 22.4501C4.01607 22.1175 4.01607 21.6186 4.01607 21.4523C4.01607 21.286 4.01607 20.7871 4.51786 20.4545C10.7067 15.4656 27.2661 3.99112 46.5017 3.99112C65.7373 3.99112 82.2967 15.4656 88.4855 20.4545C88.9873 20.7871 88.9873 21.286 88.9873 21.4523C88.9873 21.6186 88.9873 22.1175 88.4855 22.4501C82.2967 27.439 66.2391 38.9134 47.0035 38.9134H46.3344C45.4981 38.9134 44.829 39.5786 44.829 40.4101V41.4079C44.829 42.2394 45.3308 42.7383 45.9999 42.7383H46.6689C67.0754 42.7383 83.9693 30.5986 90.66 25.4434C92.3326 24.4456 93.0017 22.7826 93.0017 21.1197Z" fill="#00BBE4"/>
<path d="M35.461 19.623C34.4574 19.623 33.6211 20.4545 33.6211 21.4523C33.6211 22.4501 34.4574 23.2816 35.461 23.2816C36.4646 23.2816 37.301 22.4501 37.301 21.4523C37.4682 20.4545 36.6319 19.623 35.461 19.623Z" fill="#00BBE4"/>
<path d="M36.1294 17.4614C36.464 17.6277 36.7985 17.7939 37.133 17.7939C37.8021 17.7939 38.4712 17.4614 38.8057 16.9625C39.3075 16.131 39.1402 14.9669 38.1366 14.3017C37.3003 13.8028 36.1294 13.9691 35.4604 14.9669C34.9586 15.7984 35.2931 16.9625 36.1294 17.4614Z" fill="#00BBE4"/>
<path d="M49.3444 29.9337C48.3408 30.2663 47.839 31.4303 48.1735 32.4281C48.5081 33.2596 49.1771 33.7585 50.0135 33.7585C50.1807 33.7585 50.348 33.7585 50.6825 33.5922C51.6861 33.2596 52.1879 32.0955 51.8534 31.0977C51.3516 30.1 50.348 29.6011 49.3444 29.9337Z" fill="#00BBE4"/>
<path d="M47.3373 8.81348C46.3337 8.81348 45.3301 9.47866 45.3301 10.6427C45.3301 11.6405 45.9991 12.6383 47.17 12.6383H47.3373C48.3409 12.6383 49.1772 11.8068 49.1772 10.809C49.1772 9.81126 48.3409 8.97977 47.3373 8.81348Z" fill="#00BBE4"/>
<path d="M40.479 10.3107C39.4754 10.8096 39.1409 11.9737 39.6427 12.8052C39.9772 13.4704 40.6462 13.803 41.3153 13.803C41.6498 13.803 41.9844 13.803 42.1516 13.6367C43.1552 13.1378 43.4898 11.9737 42.988 11.1422C42.6534 10.1445 41.4826 9.81186 40.479 10.3107Z" fill="#00BBE4"/>
<path d="M55.7005 15.4655C54.6969 15.7981 54.1951 16.9622 54.6969 17.96C55.0314 18.6251 55.7005 19.124 56.5368 19.124C56.8713 19.124 57.0386 19.124 57.2059 18.9577C58.2095 18.6251 58.7113 17.4611 58.2095 16.4633C57.7077 15.6318 56.7041 15.1329 55.7005 15.4655Z" fill="#00BBE4"/>
<path d="M53.8603 11.142C53.024 10.6431 51.8531 10.8094 51.184 11.6408C50.515 12.4723 50.8495 13.6364 51.6858 14.3016C52.0204 14.4679 52.3549 14.6342 52.8567 14.6342C53.5258 14.6342 54.0276 14.3016 54.3621 13.8027C54.8639 12.9712 54.6966 11.8071 53.8603 11.142Z" fill="#00BBE4"/>
<path d="M57.2045 24.9443C58.2081 24.9443 58.8772 24.2792 59.0444 23.2814C59.2117 22.2836 58.5426 21.2858 57.3718 21.1195C56.3682 20.9532 55.3646 21.6184 55.1973 22.7825C55.03 23.7803 55.6991 24.7781 56.87 24.9443C57.0372 24.9443 57.0372 24.9443 57.2045 24.9443Z" fill="#00BBE4"/>
<path d="M53.3582 27.2725C52.6891 28.104 52.8564 29.2681 53.6927 29.9333C54.0272 30.2659 54.529 30.4322 54.8636 30.4322C55.3654 30.4322 56.0344 30.2659 56.369 29.767C57.038 28.9355 56.8708 27.7714 56.0344 27.1062C55.1981 26.2747 54.0272 26.441 53.3582 27.2725Z" fill="#00BBE4"/>
<path d="M33.2867 30.4325C34.4575 30.4325 35.2939 29.601 35.2939 28.437C35.2939 27.2729 34.4575 26.4414 33.2867 26.4414H25.4252C24.2543 26.4414 23.418 27.2729 23.418 28.437C23.418 29.601 24.2543 30.4325 25.4252 30.4325H33.2867Z" fill="#00BBE4"/>
<path d="M40.3117 25.9424C38.9736 25.9424 37.8027 27.1065 37.8027 28.4368C37.8027 29.7672 38.9736 30.9313 40.3117 30.9313C41.6499 30.9313 42.8207 29.7672 42.8207 28.4368C42.8207 27.1065 41.6499 25.9424 40.3117 25.9424Z" fill="#00BBE4"/>
<path d="M40.3119 33.5923C39.141 33.5923 38.3047 34.4238 38.3047 35.5878V42.7386C38.3047 43.9027 39.141 44.7342 40.3119 44.7342C41.4827 44.7342 42.3191 43.9027 42.3191 42.7386V35.5878C42.3191 34.5901 41.3155 33.5923 40.3119 33.5923Z" fill="#00BBE4"/>
</g>
<defs>
<clipPath id="clip0_1_1705">
<rect width="93" height="50.8868" fill="white"/>
</clipPath>
</defs>
</svg>
