<svg width="93" height="66" viewBox="0 0 93 66" fill="none" xmlns="http://www.w3.org/2000/svg">
<g clip-path="url(#clip0_1_1703)">
<path d="M59.8246 40.6137C58.7369 40.8844 58.193 41.9674 58.465 43.0505C58.7369 43.8627 59.5527 44.5396 60.3685 44.5396C60.5045 44.5396 60.7764 44.5396 60.9123 44.4042C62.0001 44.1335 62.5439 43.0505 62.272 41.9675C61.8641 40.8844 60.7764 40.3429 59.8246 40.6137Z" fill="#00BBE4"/>
<path d="M54.2498 41.697C53.1621 41.8324 52.4823 42.9154 52.6182 43.9985C52.7542 44.9461 53.57 45.623 54.5217 45.623H54.7937C55.8814 45.4876 56.5612 44.4046 56.4252 43.3216C56.2893 42.3739 55.3375 41.5617 54.2498 41.697Z" fill="#00BBE4"/>
<path d="M45.0046 31.2719C43.9169 31.2719 43.1011 32.0842 42.9651 33.1672C42.9651 34.2502 43.7809 35.1978 44.8686 35.1978C45.9564 35.1978 46.7722 34.3856 46.7722 33.3026C46.9081 32.0842 46.0923 31.2719 45.0046 31.2719Z" fill="#00BBE4"/>
<path d="M54.3861 30.5959C53.7063 29.7836 53.7063 28.5652 54.5221 27.8884C55.3378 27.2115 56.5615 27.3468 57.3773 28.0237C58.0572 28.836 58.0571 30.0544 57.2414 30.7313C56.8335 31.1374 56.2896 31.2728 55.8817 31.2728C55.3378 31.2728 54.794 31.002 54.3861 30.5959Z" fill="#00BBE4"/>
<path d="M59.2807 26.6696C59.9606 26.6696 60.7764 26.2635 61.0483 25.5866C61.4562 24.6389 61.0483 23.4205 60.0965 23.0144C59.1448 22.6083 57.9211 23.0144 57.5132 23.9621C57.1053 24.9097 57.5132 26.1281 58.465 26.5342C58.7369 26.6696 59.0088 26.6696 59.2807 26.6696Z" fill="#00BBE4"/>
<path d="M50.1706 30.4594C51.1223 30.0532 52.21 30.5947 52.6179 31.6778C52.8899 32.7608 52.346 33.8438 51.5302 34.1146C51.2583 34.2499 51.1223 34.2499 50.8504 34.2499C50.0346 34.2499 49.2188 33.7084 48.9469 32.8962C48.539 31.9485 49.0829 30.8655 50.1706 30.4594Z" fill="#00BBE4"/>
<path fill-rule="evenodd" clip-rule="evenodd" d="M46.5 0C67.0307 0 84.4342 12.0486 90.9605 17.3283C92.3202 18.276 93 19.7651 93 21.525C93 23.0142 92.1842 24.6387 90.9605 25.5864C88.1053 27.8878 80.2193 33.5736 72.8772 37.2288C71.5175 45.6222 64.0395 52.1204 55.2017 52.1204C51.8026 52.1204 48.5395 51.1727 45.8202 49.4128C36.4386 64.8458 32.6316 65.3874 31.4079 65.5227H30.864C29.9123 65.5227 28.9605 65.1166 28.2807 64.4397C27.4649 63.6274 27.057 62.5444 27.193 61.326L27.1969 61.287C27.3353 59.8976 27.7291 55.9429 41.1974 45.0807C40.3816 44.1331 39.8377 43.1854 39.2939 42.1024C19.7373 39.0137 4.06065 26.9999 2.08477 25.4857L2.03947 25.451C0.679825 24.5033 0 23.0142 0 21.3897C0 19.9005 0.815789 18.276 2.03947 17.3283C8.56579 12.0486 25.9693 0 46.5 0ZM73.1491 32.626C79.1316 29.3769 85.6579 24.9095 88.6491 22.4727C89.057 22.0665 89.057 21.6604 89.057 21.3897C89.057 21.1189 88.921 20.7128 88.5132 20.3066C82.3947 15.433 65.807 3.92595 46.5 3.92595C27.3289 3.92595 10.7412 15.433 4.48684 20.3066C3.94298 20.7128 3.94298 21.1189 3.94298 21.3897C3.94298 21.6604 4.07895 22.0665 4.48684 22.4727C10.1974 27.0755 23.386 35.1982 37.9342 37.9057C37.6623 36.6873 37.5263 35.4689 37.5263 34.2505C37.5263 33.1675 37.6623 32.0845 37.7982 31.0015C34.807 28.2939 33.3114 24.368 33.5833 20.3066C34.1272 13.9439 39.2939 8.93492 45.5482 8.39341C51.2588 7.98727 56.6974 11.5071 58.7368 16.7868C66.4868 18.276 72.4693 24.7741 73.1491 32.626ZM67.7105 39.801C67.8465 40.0718 67.8465 40.2071 67.8465 40.3425C68.6623 38.4472 69.2061 36.4166 69.2061 34.2505C69.2061 26.534 62.9517 20.3066 55.2017 20.3066C47.5877 20.3066 41.3333 26.534 41.3333 33.9798C41.3333 38.718 43.7807 42.9147 47.4518 45.4868C47.0439 45.0807 46.7719 44.6746 46.7719 44.1331C46.7719 43.0501 47.5877 42.1024 48.6754 42.1024C49.7632 42.1024 50.7149 42.9147 50.7149 43.9977C50.7149 45.0807 49.8991 46.0284 48.8114 46.0284H48.6754C48.4035 46.0284 48.1316 46.0284 47.8596 45.893C50.0351 47.2468 52.4824 48.059 55.2017 48.059C59.8246 48.059 63.9035 45.893 66.4868 42.3732C66.2149 42.5085 66.0789 42.5085 65.807 42.5085C65.1272 42.5085 64.3114 41.967 64.0395 41.2901C63.6316 40.2071 64.1754 39.1241 65.1272 38.718C66.0789 38.3118 67.3026 38.8534 67.7105 39.801ZM31 61.5968C30.864 60.7845 32.4956 57.5355 40.2456 50.7666C35.0789 58.8892 32.0877 61.4614 31 61.5968ZM37.3903 20.5774C37.1184 22.8788 37.7982 24.9095 39.0219 26.6694C41.7412 20.9835 47.4517 16.9222 54.114 16.5161C52.3465 13.6731 49.0833 12.0486 45.6842 12.3194C41.3333 12.5901 37.7982 16.2453 37.3903 20.5774Z" fill="#00BBE4"/>
</g>
<defs>
<clipPath id="clip0_1_1703">
<rect width="93" height="65.5227" fill="white"/>
</clipPath>
</defs>
</svg>
