<svg width="93" height="44" viewBox="0 0 93 44" fill="none" xmlns="http://www.w3.org/2000/svg">
<g clip-path="url(#clip0_1_1690)">
<path d="M46.432 3.92693C27.2001 3.92693 10.5782 15.7077 4.39652 20.7566C3.9844 21.1774 3.84703 21.5981 3.84703 21.8786C3.84703 22.1591 3.84703 22.5798 4.39652 23.0006C10.5782 28.0495 27.2001 39.8303 46.432 39.8303C65.6639 39.8303 82.2857 28.0495 88.4674 23.0006C88.8795 22.5798 89.0169 22.1591 89.0169 21.8786C89.0169 21.5981 89.0169 21.1774 88.4674 20.7566C82.2857 15.7077 65.6639 3.92693 46.432 3.92693ZM46.432 43.8974C25.9637 43.8974 8.51764 31.5557 1.92384 26.2263C0.687506 25.2445 -0.136719 23.7018 -0.136719 22.0188C-0.136719 20.3359 0.550135 18.7931 1.92384 17.8114C8.51764 12.3418 25.9637 0 46.432 0C66.9002 0 84.3463 12.3418 90.9401 17.6712C92.1764 18.6529 93.0006 20.1956 93.0006 21.8786C93.0006 23.5616 92.3138 25.1043 90.9401 26.086C84.4837 31.5557 66.9002 43.8974 46.432 43.8974Z" fill="#00BBE4"/>
<path d="M39.838 33.0981C38.8764 32.5372 38.6017 31.2749 39.1511 30.4334C39.7006 29.4517 40.937 29.1712 41.8986 29.7322C42.8602 30.2932 43.1349 31.5554 42.5854 32.3969C42.1733 33.0981 41.4865 33.3786 40.937 33.3786C40.5249 33.3786 40.1127 33.3786 39.838 33.0981Z" fill="#00BBE4"/>
<path d="M47.3946 33.9399C46.433 33.379 46.1583 32.1167 46.7078 31.2752C47.2573 30.2935 48.4936 30.013 49.4552 30.574C50.4168 31.135 50.6915 32.3972 50.1421 33.2387C49.7299 33.7997 49.0431 34.2204 48.4936 34.2204C48.0815 34.2204 47.8068 34.0802 47.3946 33.9399Z" fill="#00BBE4"/>
<path d="M53.9879 30.7141C53.1637 30.0129 53.0263 28.7507 53.5758 27.9092C54.2626 27.0677 55.499 26.9275 56.3232 27.4884C57.1474 28.1897 57.2848 29.4519 56.7353 30.2934C56.3232 30.8544 55.7737 31.1349 55.2242 31.1349C54.8121 31.1349 54.4 30.9946 53.9879 30.7141Z" fill="#00BBE4"/>
<path d="M34.4814 27.0679C34.0693 26.0862 34.4814 24.8239 35.443 24.4032C36.4046 23.9824 37.6409 24.4032 38.053 25.3849C38.4651 26.3666 38.053 27.6289 37.0914 28.0496C36.8167 28.1899 36.542 28.1899 36.2672 28.1899C35.5804 28.3301 34.8935 27.9094 34.4814 27.0679Z" fill="#00BBE4"/>
<path d="M57.2845 24.8239C56.1856 24.8239 55.3613 23.9824 55.3613 22.8604C55.3613 21.7385 56.3229 20.897 57.2845 20.897C58.3835 20.897 59.2077 21.7385 59.2077 22.8604C59.2077 23.9824 58.3835 24.8239 57.2845 24.8239Z" fill="#00BBE4"/>
<path d="M49.8656 23.7018C48.7667 23.2811 48.3546 22.1591 48.6293 21.1774C49.0414 20.1956 50.1404 19.6347 51.102 20.0554C52.0636 20.4761 52.613 21.5981 52.3383 22.5799C52.0636 23.4213 51.2393 23.8421 50.5525 23.8421C50.2777 23.8421 50.1404 23.8421 49.8656 23.7018Z" fill="#00BBE4"/>
<path d="M35.3041 21.4579C34.2051 21.3177 33.5183 20.1957 33.793 19.2139C33.9304 18.092 35.0293 17.3907 36.1283 17.6712C37.2273 17.8115 37.9141 18.9335 37.6394 20.0554C37.502 21.0372 36.6778 21.7384 35.7162 21.7384C35.5788 21.4579 35.4415 21.4579 35.3041 21.4579Z" fill="#00BBE4"/>
<path d="M44.2349 17.3907C43.9601 16.2688 44.647 15.287 45.6086 15.0065C46.7075 14.726 47.6691 15.287 47.9439 16.409C48.2186 17.531 47.6691 18.5127 46.5702 18.7932C46.4328 18.7932 46.1581 18.7932 46.0207 18.7932C45.1965 18.9335 44.5096 18.3725 44.2349 17.3907Z" fill="#00BBE4"/>
<path d="M37.3647 14.7262C36.6779 13.8847 36.6779 12.6225 37.3647 11.9212C38.189 11.22 39.4253 11.22 40.1122 12.0615C40.799 12.9029 40.799 14.1652 40.1122 14.8664C39.7 15.2872 39.2879 15.4274 38.7385 15.4274C38.189 15.2872 37.6395 15.1469 37.3647 14.7262Z" fill="#00BBE4"/>
<path d="M42.998 10.799C42.998 9.67704 43.8223 8.69531 44.9212 8.69531C46.0202 8.69531 46.8444 9.5368 46.9818 10.5185C46.9818 11.6405 46.1576 12.6222 45.0586 12.6222H44.9212C43.8223 12.6222 42.998 11.7808 42.998 10.799Z" fill="#00BBE4"/>
</g>
<defs>
<clipPath id="clip0_1_1690">
<rect width="93" height="43.8974" fill="white"/>
</clipPath>
</defs>
</svg>
