<svg width="93" height="36" viewBox="0 0 93 36" fill="none" xmlns="http://www.w3.org/2000/svg">
<g clip-path="url(#clip0_1_1720)">
<path d="M69.3339 35.0656C61.3659 35.0656 54.5871 29.6984 52.4464 22.3036C50.5436 22.1843 48.5219 21.9458 46.5001 21.8265C44.7162 21.9458 42.8134 22.1843 41.1485 22.3036C39.1267 29.6984 32.348 35.0656 24.261 35.0656C20.4554 35.0656 16.7687 33.8729 13.7955 31.6067C9.63312 33.6343 5.82749 34.4692 3.33005 34.827C2.02186 34.9463 0.832603 34.3499 0.237973 33.1572C-0.356656 31.9645 0.00012156 30.6526 0.951528 29.8177C2.37864 28.5057 4.75716 26.8359 8.56278 25.1661C7.61138 23.3771 7.13567 21.4687 6.89782 19.5604C3.80575 19.4411 1.78401 19.3218 1.78401 19.3218C0.832603 19.3218 0.00012156 18.487 0.00012156 17.4135C0.00012156 16.4594 0.832603 15.5052 1.90294 15.6245C2.25971 15.6245 4.0436 15.7437 6.89782 15.863C7.61138 7.03697 15.2226 0 24.261 0C33.894 0 41.7431 7.87186 41.7431 17.5328C41.7431 17.6521 41.7431 17.7713 41.7431 17.8906C43.2891 18.0099 44.9541 18.1291 46.5001 18.2484C48.284 18.1291 49.949 18.0099 51.7329 17.8906C51.7329 17.7713 51.7329 17.6521 51.7329 17.6521C51.7329 7.87186 59.582 0 69.3339 0C78.4912 0 85.9835 7.03697 86.816 15.863C89.3134 15.7437 90.9784 15.7437 91.2162 15.7437C92.2866 15.6245 93.0001 16.4594 93.1191 17.5328C93.1191 18.487 92.4055 19.3218 91.3352 19.4411C91.2163 19.4411 89.5513 19.5604 86.6971 19.6797C86.4592 21.7073 85.8646 23.7349 84.9132 25.5239C88.362 27.0744 90.6216 28.625 92.0487 29.9369C93.0001 30.7718 93.238 32.2031 92.7623 33.2765C92.1677 34.4692 90.9784 35.0656 89.6702 34.9463C87.1728 34.5885 83.4861 33.7536 79.5615 31.8453C76.5884 33.8729 73.0206 35.0656 69.3339 35.0656ZM56.371 22.7807C58.3927 27.9093 63.3876 31.4875 69.3339 31.4875C71.7124 31.4875 73.972 30.8911 75.9937 29.6984C73.8531 28.3864 71.7124 26.5974 69.6907 24.4505C66.3607 23.8541 61.7226 23.2578 56.371 22.7807ZM17.2444 29.5791C19.385 30.7718 21.7636 31.4875 24.261 31.4875C30.0884 31.4875 35.2022 27.7901 37.2239 22.6614C31.6344 23.2578 26.8774 23.8541 23.3096 24.5698C21.4068 26.5974 19.2661 28.2671 17.2444 29.5791ZM82.4157 29.102C84.1996 29.8177 85.7457 30.2947 87.2917 30.6526C86.2214 29.9369 84.7943 29.2213 83.0104 28.3864C82.7725 28.7442 82.6536 28.8635 82.4157 29.102ZM10.4656 28.2671C8.44386 29.102 6.89782 29.9369 5.70856 30.6526C7.2546 30.2947 9.03849 29.6984 10.9413 28.8635C10.8224 28.7442 10.5845 28.5057 10.4656 28.2671ZM77.6587 26.4781C78.1344 26.8359 78.6101 27.0744 79.0858 27.4323C79.2047 27.313 79.3237 27.1937 79.4426 27.0744C78.848 26.9552 78.2533 26.7166 77.6587 26.4781ZM14.0334 26.9552C14.1523 27.0744 14.1523 27.1937 14.2712 27.1937C14.628 26.9552 14.9848 26.7166 15.3416 26.4781C14.8659 26.7166 14.5091 26.8359 14.0334 26.9552ZM70.9989 21.1109C75.2802 21.9458 78.729 23.0192 81.5833 23.9734C82.2968 22.6614 82.7725 21.1109 83.0104 19.5604C78.729 19.7989 73.2585 20.0375 67.1932 20.3953C68.3825 20.6338 69.4528 20.7531 70.4042 20.9916C70.6421 21.1109 70.761 21.1109 70.9989 21.1109ZM10.5845 19.6797C10.7034 21.1109 11.1792 22.5422 11.8927 23.8541C14.628 22.9 17.9579 21.9458 22.0014 21.1109H22.1203C22.2393 21.1109 22.4771 20.9916 22.596 20.9916C23.5474 20.7531 24.6178 20.6338 25.807 20.3953C19.9797 20.1567 14.628 19.9182 10.5845 19.6797ZM10.4656 16.1015C17.4822 16.4594 27.8288 16.9364 38.1753 17.6521C38.1753 9.89946 31.9912 3.57812 24.261 3.57812C17.1254 3.57812 11.1792 9.06457 10.4656 16.1015ZM69.3339 3.57812C61.7226 3.57812 55.4196 9.78019 55.4196 17.5328C65.885 16.8172 76.3505 16.3401 83.1293 15.9823C82.4157 9.06457 76.4694 3.57812 69.3339 3.57812Z" fill="#00BBE4"/>
<path d="M50.3047 2.38525C51.1372 2.6238 51.8507 2.98161 52.5643 3.33942L50.3047 2.38525Z" fill="#00BBE4"/>
<path d="M50.5433 4.17454C50.3054 4.17454 50.1865 4.17454 49.9487 4.17454C49.9487 4.17454 49.8297 4.17454 49.7108 4.17454C48.7594 3.93599 48.2837 2.86256 48.5216 2.02766C48.7594 1.0735 49.7108 0.477144 50.6622 0.715686H50.7811C51.7325 0.954227 52.2082 1.90839 51.9704 2.86256C51.9704 3.57818 51.2568 4.17454 50.5433 4.17454Z" fill="#00BBE4"/>
<path d="M44.9547 2.1471C45.1926 2.1471 45.3115 2.02783 45.5494 2.02783L44.9547 2.1471ZM39.3652 5.24814C39.4842 5.12887 39.6031 5.0096 39.8409 4.89033L39.3652 5.24814Z" fill="#00BBE4"/>
<path d="M54.7061 6.67921C54.2303 6.67921 53.6357 6.55994 53.2789 6.20212C52.5654 5.60577 52.5654 4.53233 53.0411 3.81671C53.6357 2.98182 54.825 2.86255 55.5385 3.57817C55.7764 3.57817 55.8953 3.57817 55.8953 3.69744C56.4899 4.41306 56.4899 5.60577 55.6575 6.20212C55.4196 6.55994 55.0628 6.67921 54.7061 6.67921ZM39.4835 7.03702C39.0078 7.15629 38.4132 6.91775 37.9375 6.44067C37.224 5.72504 37.224 4.53233 37.9375 3.93598C38.0564 3.81671 38.2943 3.69744 38.4132 3.4589C39.2457 2.74327 40.435 2.86255 41.1485 3.57817C41.8621 4.29379 41.7431 5.4865 41.0296 6.08285C40.9107 6.20212 40.7917 6.32139 40.6728 6.44067C40.316 6.79848 39.9593 6.91775 39.4835 7.03702ZM45.192 3.93598C44.2406 4.05525 43.4081 3.4589 43.1702 2.50473C43.0513 1.55057 43.646 0.596403 44.5974 0.357862C44.8352 0.357862 45.0731 0.238591 45.3109 0.238591C46.2623 0.11932 47.2137 0.834944 47.3327 1.78911C47.4516 2.74327 46.738 3.69744 45.7866 3.81671C45.5488 3.81671 45.4298 3.81671 45.192 3.93598C45.3109 3.81671 45.192 3.93598 45.192 3.93598Z" fill="#00BBE4"/>
</g>
<defs>
<clipPath id="clip0_1_1720">
<rect width="93" height="35.0656" fill="white"/>
</clipPath>
</defs>
</svg>
