<svg width="93" height="61" viewBox="0 0 93 61" fill="none" xmlns="http://www.w3.org/2000/svg">
<g clip-path="url(#clip0_1_1687)">
<path d="M42.5292 29.8224C41.5516 29.3294 40.3295 29.6991 39.8407 30.685C39.3518 31.6709 39.8407 32.9032 40.6961 33.2729C40.9405 33.3961 41.3072 33.5193 41.5516 33.5193C42.2848 33.5193 43.0181 33.1496 43.2625 32.4102C43.9957 31.4244 43.5069 30.1921 42.5292 29.8224Z" fill="#00BBE4"/>
<path d="M46.316 12.4469C47.4158 12.4469 48.2713 11.461 48.2713 10.4752C48.2713 9.36607 47.2936 8.50344 46.316 8.50344C45.2161 8.50344 44.3606 9.4893 44.3606 10.4752C44.2384 11.5842 45.2161 12.4469 46.316 12.4469Z" fill="#00BBE4"/>
<path d="M47.4166 30.8076C46.3167 30.8076 45.4613 31.6703 45.4613 32.7794C45.4613 33.8884 46.3167 34.7511 47.4166 34.7511C48.5165 34.7511 49.3719 33.8884 49.3719 32.7794C49.3719 31.7935 48.5165 30.8076 47.4166 30.8076Z" fill="#00BBE4"/>
<path d="M42.2837 11.2142C42.8947 12.0768 42.5281 13.3091 41.6726 13.9253C41.4282 14.0485 41.0616 14.1718 40.695 14.295C39.9617 14.295 39.3507 13.9253 38.9841 13.3091C38.373 12.4465 38.7396 11.2142 39.5951 10.598C40.4506 9.98186 41.6726 10.2283 42.2837 11.2142Z" fill="#00BBE4"/>
<path d="M36.1741 26.1247C35.3187 26.7408 35.0742 27.9731 35.6853 28.8358C36.0519 29.4519 36.6629 29.6984 37.274 29.6984C37.6406 29.6984 38.0072 29.5752 38.3738 29.3287C39.2293 28.7125 39.4737 27.4802 38.8627 26.6176C38.2516 25.755 37.0296 25.5085 36.1741 26.1247Z" fill="#00BBE4"/>
<path d="M37.3953 22.059C37.5175 23.1681 36.6621 24.154 35.5622 24.154C34.3401 24.154 33.4847 23.4146 33.4847 22.3055C33.3624 21.1964 34.2179 20.2105 35.3178 20.2105C36.4176 20.0873 37.3953 20.9499 37.3953 22.059Z" fill="#00BBE4"/>
<path d="M35.8069 18.2391C36.0514 18.3624 36.418 18.4856 36.6624 18.4856C37.3956 18.4856 38.0067 18.1159 38.3733 17.3765C38.8621 16.3907 38.4955 15.1583 37.5179 14.6654C36.5402 14.1725 35.3181 14.5422 34.8293 15.528C34.4627 16.5139 34.8293 17.7462 35.8069 18.2391Z" fill="#00BBE4"/>
<path d="M54.3821 26.3717C54.9932 25.3858 56.0931 25.1394 57.0707 25.6323C58.0484 26.1252 58.415 27.3576 57.804 28.3434C57.4373 28.9596 56.8263 29.3293 56.0931 29.3293C55.7264 29.3293 55.3598 29.2061 55.1154 29.0828C54.1377 28.4667 53.8933 27.3576 54.3821 26.3717Z" fill="#00BBE4"/>
<path d="M57.5603 19.5942C56.4604 19.5942 55.605 20.4568 55.605 21.5659C55.605 22.675 56.4604 23.5376 57.5603 23.5376C58.6601 23.5376 59.5156 22.675 59.5156 21.5659C59.5156 20.58 58.6601 19.5942 57.5603 19.5942Z" fill="#00BBE4"/>
<path d="M57.0707 17.7449C56.8263 17.8681 56.4597 17.9914 56.0931 17.9914C55.3598 17.9914 54.7488 17.6217 54.3821 17.0055C53.8933 16.0196 54.1377 14.9106 55.1154 14.2944C56.093 13.8015 57.3151 14.0479 57.804 15.0338C58.2928 16.0196 58.0484 17.1287 57.0707 17.7449Z" fill="#00BBE4"/>
<path d="M50.9602 13.6781C51.2046 13.8013 51.5713 13.9246 51.9379 13.9246C52.6711 13.9246 53.2822 13.5549 53.6488 12.9387C54.1376 11.9529 53.8932 10.7205 52.9155 10.2276C51.9379 9.73467 50.838 9.98114 50.227 10.967C49.6159 11.9529 49.9826 13.0619 50.9602 13.6781Z" fill="#00BBE4"/>
<path d="M50.349 32.5329C49.8602 31.547 50.1046 30.3147 51.0823 29.8218C52.0599 29.3289 53.282 29.5753 53.7708 30.5612C54.2597 31.547 54.0152 32.7794 53.0376 33.2723C52.7932 33.3955 52.4265 33.5188 52.0599 33.5188C51.3267 33.5188 50.7156 33.1491 50.349 32.5329Z" fill="#00BBE4"/>
<path d="M88.6005 22.798C85.4231 25.2626 79.8016 29.4525 72.4691 33.0263C73.3246 31.0545 73.9356 29.0828 74.3022 26.9879L75.4021 20.4566C75.6465 19.2242 75.1577 18.1152 74.0578 17.499C72.958 16.8828 71.7359 17.0061 70.7582 17.9919L49.6163 39.3111C48.5164 39.4343 47.5388 39.4343 46.5611 39.4343C27.2523 39.4343 10.6321 27.7273 4.39947 22.798C3.91064 22.4283 3.91064 21.9354 3.91064 21.6889C3.91064 21.4424 4.03285 20.9495 4.39947 20.5798C10.6321 15.6505 27.2523 3.94343 46.5611 3.94343C65.7477 3.94343 82.3679 15.5273 88.6005 20.5798C89.0894 20.9495 89.0894 21.4424 89.0894 21.6889C89.0894 21.9354 88.9672 22.4283 88.6005 22.798ZM91.0447 17.499C84.4455 12.2 66.9698 0 46.5611 0C26.0302 0 8.55453 12.2 1.95532 17.499C0.733246 18.4848 0 20.0869 0 21.6889C0 23.2909 0.733246 24.8929 1.95532 25.8788C8.43233 31.0545 25.4192 43.0081 45.4612 43.3778L37.8844 51.0182C37.1511 51.7576 37.1511 52.9899 37.8844 53.8525C38.6176 54.5919 39.8397 54.5919 40.6951 53.8525L70.8804 23.4141L70.3916 26.2485C69.0473 34.0121 63.7924 40.4202 56.5821 43.3778L53.8936 44.3636C52.1827 44.9798 50.9606 46.4586 50.3495 48.0606L48.5164 53.4828C48.272 54.099 47.9054 54.7151 47.4166 55.2081L45.0946 57.5495C44.3614 58.2889 44.3614 59.5212 45.0946 60.3838C45.4612 60.7535 45.9501 61 46.4389 61C46.9277 61 47.4166 60.7535 47.7832 60.3838L50.1051 58.0424C50.9606 57.1798 51.6938 56.0707 52.0605 54.8384L53.8936 49.4162C54.138 48.8 54.6268 48.3071 55.2379 48.0606L57.9264 46.9515C62.3259 45.2263 65.9921 42.3919 68.8029 38.8182C78.9461 34.7515 86.8896 29.0828 90.9225 25.8788C92.1446 24.8929 92.8778 23.2909 92.8778 21.6889C92.8778 20.0869 92.2668 18.4848 91.0447 17.499Z" fill="#00BBE4"/>
</g>
<defs>
<clipPath id="clip0_1_1687">
<rect width="93" height="61" fill="white"/>
</clipPath>
</defs>
</svg>
