<svg width="93" height="66" viewBox="0 0 93 66" fill="none" xmlns="http://www.w3.org/2000/svg">
<path d="M49.6896 14.3352C49.6896 15.5298 48.6824 16.5538 47.3394 16.5538C46.1643 16.5538 45.1571 15.3592 45.1571 14.1646V2.21854C45.325 1.02394 46.3322 0 47.5073 0C48.6824 0 49.6896 1.1946 49.6896 2.3892V14.3352Z" fill="#00BBE3"/>
<path d="M35.7571 51.0257C35.0857 50.1725 35.4214 48.9779 36.2607 48.2952C37.1001 47.6126 38.2752 47.9539 39.1145 48.8072C39.786 49.6605 39.4503 50.8551 38.6109 51.5377C38.2752 51.7084 37.7716 51.879 37.4358 51.879C36.7644 51.879 36.0929 51.5377 35.7571 51.0257Z" fill="#00BBE3"/>
<path d="M42.639 51.8804C41.6318 51.3684 40.4567 51.8804 39.9531 52.7337C39.4495 53.7576 39.9531 54.9522 40.7924 55.4642C41.1282 55.6348 41.296 55.6348 41.6318 55.6348C42.3033 55.6348 43.1426 55.2935 43.4783 54.4402C43.982 53.587 43.6462 52.3924 42.639 51.8804Z" fill="#00BBE3"/>
<path d="M37.4345 44.1998C37.4345 45.2237 36.5951 46.2477 35.5879 46.2477C34.4128 46.2477 33.5735 45.5651 33.5735 44.3705C33.5735 43.3465 34.4128 42.3226 35.4201 42.3226C36.4273 42.3226 37.4345 43.1758 37.4345 44.1998Z" fill="#00BBE3"/>
<path d="M35.923 40.2754C36.2587 40.446 36.5945 40.446 36.7623 40.446C37.9374 40.446 38.441 39.4221 38.441 39.4221C38.9447 38.3982 38.6089 37.2036 37.6017 36.6916C36.5945 36.1796 35.4194 36.5209 34.9158 37.5449C34.58 38.5688 34.9158 39.7634 35.923 40.2754Z" fill="#00BBE3"/>
<path d="M48.1791 32.4248C48.347 33.4487 47.3398 34.4726 46.3325 34.4726C45.1575 34.4726 44.3181 33.6194 44.3181 32.5954C44.1502 31.4008 45.1574 30.5475 46.1647 30.5475C47.1719 30.3769 48.1791 31.4008 48.1791 32.4248Z" fill="#00BBE3"/>
<path d="M41.7987 36.0089C42.638 35.497 42.9738 34.1317 42.4702 33.2784C41.9665 32.4251 40.6236 32.0838 39.7842 32.5958C38.9449 33.1078 38.6091 34.473 39.1127 35.3263C39.4485 36.0089 40.12 36.1796 40.7914 36.1796C41.1272 36.1796 41.7987 36.0089 41.7987 36.0089Z" fill="#00BBE3"/>
<path d="M55.5652 43.859C55.5652 42.6644 56.5724 41.8111 57.5797 41.8111C58.7547 41.8111 59.5941 42.6644 59.5941 43.859C59.5941 45.0536 58.5869 45.9069 57.5797 45.9069C56.4046 45.9069 55.5652 44.8829 55.5652 43.859Z" fill="#00BBE3"/>
<path d="M57.0764 47.7842C56.0692 47.2722 54.8941 47.6135 54.3905 48.6374C53.8869 49.6614 54.2226 50.856 55.2298 51.368C55.5656 51.5386 55.9013 51.5386 56.2371 51.5386C56.9085 51.5386 57.58 51.1973 57.9158 50.5147C58.4194 49.4907 58.0836 48.2961 57.0764 47.7842Z" fill="#00BBE3"/>
<path d="M45.4919 55.1227C45.4919 53.9281 46.4991 53.0748 47.5063 53.0748C48.5135 53.0748 49.3529 53.9281 49.5208 55.1227C49.5208 56.3173 48.5135 57.1706 47.5063 57.1706C46.3312 57.1706 45.4919 56.1466 45.4919 55.1227Z" fill="#00BBE3"/>
<path d="M51.032 35.6684C51.3677 35.839 51.7035 35.839 52.0392 35.839C52.7107 35.839 53.3822 35.4977 53.7179 34.8151C54.2215 33.7911 53.8858 32.5965 52.8786 32.0845C51.8713 31.5726 50.6963 31.9139 50.1926 32.9378C49.689 33.9618 50.0248 35.1564 51.032 35.6684Z" fill="#00BBE3"/>
<path d="M57.0761 39.7622C56.7403 39.9329 56.4046 40.1035 56.0689 40.1035C55.3974 40.1035 54.7259 39.7622 54.3902 39.0796C53.8865 38.0556 54.2223 36.861 55.0616 36.3491C56.0688 35.8371 57.2439 36.0078 57.7476 37.0317C58.2512 37.885 58.0833 39.2502 57.0761 39.7622Z" fill="#00BBE3"/>
<path d="M51.1998 52.0505C50.1925 52.5625 50.0247 53.7571 50.5283 54.7811C50.864 55.4637 51.5355 55.805 52.207 55.805C52.5427 55.805 52.8785 55.6343 53.2142 55.4637C54.2214 54.9517 54.3893 53.7571 53.8857 52.7332C53.3821 51.7092 52.0391 51.5386 51.1998 52.0505Z" fill="#00BBE3"/>
<path fill-rule="evenodd" clip-rule="evenodd" d="M46.5 22.0159C66.9801 22.0159 84.4386 34.3032 90.9856 39.5936C92.3285 40.6176 93 42.1535 93 43.8601C93 45.5666 92.3285 47.1025 90.9856 48.1265C84.4386 53.4169 66.9801 65.7042 46.5 65.7042C26.0199 65.7042 8.56137 53.4169 2.01444 48.1265C0.67148 47.1025 0 45.5666 0 43.8601C0 42.1535 0.67148 40.6176 2.01444 39.5936C8.72924 34.3032 26.1877 22.0159 46.5 22.0159ZM46.6679 61.6084C65.805 61.6084 82.4242 50.0037 88.6354 44.884C89.139 44.5427 89.139 44.0307 89.139 43.8601C89.139 43.6894 89.139 43.1774 88.6354 42.8361C82.4242 37.887 65.9729 26.1117 46.6679 26.1117C27.5307 26.1117 10.9116 37.7164 4.70036 42.8361C4.19675 43.1774 4.19675 43.6894 4.19675 43.8601C4.19675 44.0307 4.19675 44.5427 4.70036 44.884C10.9116 49.8331 27.3628 61.6084 46.6679 61.6084Z" fill="#00BBE3"/>
<path d="M11.7515 24.2328C12.2551 24.7448 12.7587 24.9154 13.4302 24.9154C13.9338 24.9154 14.6053 24.7448 14.941 24.2328C15.7804 23.3795 15.9482 21.8436 15.1089 20.9903L7.05112 12.2868C6.21177 11.4335 4.70094 11.4335 3.86159 12.2868C2.85437 13.1401 2.85436 14.676 3.69371 15.5293L11.7515 24.2328Z" fill="#00BBE3"/>
<path d="M86.6926 10.5347C86.0211 10.5347 85.5175 10.7054 85.0139 11.2173L76.9561 19.9208C76.1168 20.7741 76.1168 22.3101 77.124 23.1633C77.9633 24.0166 79.4742 24.0166 80.3135 23.1633L88.3713 14.4598C89.2106 13.6065 89.0428 12.0706 88.2034 11.2173C87.8677 10.7054 87.1962 10.5347 86.6926 10.5347Z" fill="#00BBE3"/>
</svg>
