<svg width="19" height="19" viewBox="0 0 19 19" fill="none" xmlns="http://www.w3.org/2000/svg">
<path fill-rule="evenodd" clip-rule="evenodd" d="M5.99194 0.327148H12.6456C15.7073 0.327148 18.1902 2.81005 18.1902 5.87182V12.5254C18.1902 15.5872 15.7073 18.0701 12.6456 18.0701H5.99194C2.93017 18.0701 0.447266 15.5872 0.447266 12.5254V5.87182C0.447266 2.81005 2.93017 0.327148 5.99194 0.327148ZM12.6455 16.4066C14.7858 16.4066 16.5268 14.6656 16.5268 12.5253V5.87173C16.5268 3.73148 14.7858 1.99045 12.6455 1.99045H5.99191C3.85166 1.99045 2.11063 3.73148 2.11063 5.87173V12.5253C2.11063 14.6656 3.85166 16.4066 5.99191 16.4066H12.6455ZM4.88295 9.19855C4.88295 6.74891 6.86906 4.76281 9.31869 4.76281C11.7683 4.76281 13.7544 6.74891 13.7544 9.19855C13.7544 11.6482 11.7683 13.6343 9.31869 13.6343C6.86906 13.6343 4.88295 11.6482 4.88295 9.19855ZM6.54632 9.19845C6.54632 10.7266 7.79054 11.9708 9.31866 11.9708C10.8468 11.9708 12.091 10.7266 12.091 9.19845C12.091 7.66923 10.8468 6.42611 9.31866 6.42611C7.79054 6.42611 6.54632 7.66923 6.54632 9.19845ZM14.6783 4.4303C14.6783 4.75673 14.4136 5.02136 14.0872 5.02136C13.7608 5.02136 13.4961 4.75673 13.4961 4.4303C13.4961 4.10386 13.7608 3.83924 14.0872 3.83924C14.4136 3.83924 14.6783 4.10386 14.6783 4.4303Z" fill="#EFF6F8"/>
</svg>
