<svg width="115" height="102" viewBox="0 0 115 102" fill="none" xmlns="http://www.w3.org/2000/svg">
<path d="M35.22 51V57.3L19.62 93H9.06L24.12 58.92H10.2V65.76H1.56V51H35.22Z" fill="#00BBE4"/>
<g clip-path="url(#clip0_1_1915)">
<path d="M114.001 30.0998C114.001 29.0998 113.001 28.1998 111.501 26.8998C110.601 26.1998 107.901 25.4998 103.301 24.8998C102.701 24.7998 102.101 24.6998 101.501 24.6998H101.001C97.8009 24.5998 94.8009 25.4998 92.2009 27.4998C91.1009 28.2998 90.1009 29.2998 89.1009 30.2998L88.7009 30.6998C87.4009 31.9998 86.2009 33.1998 85.0009 34.4998L82.5009 37.0998L83.1009 35.0998C84.3009 31.2998 85.5009 27.3998 86.7009 23.5998C87.3009 21.6998 87.6009 19.6998 87.6009 17.7998C87.5009 13.1998 85.6009 9.19979 82.0009 5.79979C80.6009 4.49979 79.1009 3.29979 77.6009 2.09979L76.4009 1.09979C74.9009 -0.100211 73.1009 -0.100211 71.6009 1.19979L70.5009 2.09979C69.0009 2.99979 67.7009 3.99979 66.4009 5.09979C64.8009 6.49979 62.7009 8.49979 61.4009 11.1998C60.5009 13.0998 60.0009 14.9998 59.9009 16.9998C59.8009 18.5998 60.1009 20.3998 60.7009 22.5998C61.8009 26.5998 62.9009 30.4998 64.0009 34.4998L64.5009 36.3998C64.5009 36.5998 64.6009 36.6998 64.6009 36.8998C64.1009 36.3998 63.6009 35.8998 63.2009 35.3998C61.0009 33.0998 58.8009 30.7998 56.6009 28.4998C55.1009 26.8998 53.6009 25.8998 52.1009 25.1998C49.9009 24.2998 48.1009 23.9998 46.4009 24.2998C44.3009 24.6998 42.2009 25.1998 40.4009 25.6998C39.3009 25.9998 38.2009 26.2998 37.2009 26.6998C36.7009 26.8998 36.2009 26.9998 35.8009 27.1998C34.3009 27.6998 33.3009 28.8998 33.2009 30.4998C32.9009 32.8998 33.5009 35.8998 34.1009 37.9998C35.1009 41.7998 37.2009 44.6998 40.3009 46.8998C42.3009 48.2998 44.3009 49.1998 46.4009 49.7998C48.8009 50.3998 51.3009 50.9998 53.7009 51.5998C54.5009 51.7998 55.3009 51.9998 56.2009 52.1998L55.3009 52.3998C53.3009 52.9998 51.3009 53.4998 49.2009 53.9998C46.9009 54.5998 45.0009 55.9998 43.4009 58.3998C42.4009 59.8998 41.7009 61.5998 41.3009 63.7998L41.0009 64.0998C40.8009 65.1998 40.6009 66.2998 40.4009 67.3998C40.0009 69.1998 40.6009 70.6998 42.0009 71.6998C43.8009 72.9998 45.9009 73.8998 48.2009 74.2998C49.8009 74.5998 51.5009 74.5998 53.2009 74.2998C56.1009 73.7998 58.4009 72.6998 60.2009 70.8998C62.1009 69.0998 63.5009 67.5998 64.8009 66.1998C66.1009 64.7998 67.3009 63.4998 68.5009 62.0998C69.2009 61.3998 69.8009 60.5998 70.5009 59.8998C70.8009 59.5998 71.0009 59.2998 71.3009 58.9998C71.3009 60.4998 71.3009 61.9998 71.3009 63.4998L71.2009 70.9998C71.2009 72.1998 71.2009 73.3998 71.2009 74.5998C71.2009 74.9998 71.4009 75.1998 71.5009 75.3998C71.8009 75.6998 72.3009 75.6998 72.6009 75.6998C72.7009 75.6998 72.7009 75.6998 72.8009 75.6998C72.9009 75.6998 72.9009 75.6998 73.0009 75.6998C73.4009 75.6998 74.0009 75.5998 74.2009 74.8998L74.3009 70.2998C74.3009 69.0998 74.3009 67.7998 74.3009 66.5998C74.3009 64.3998 74.3009 62.0998 74.4009 59.8998C74.4009 59.3998 74.4009 58.9998 74.4009 58.4998L81.5009 65.8998C82.7009 67.2998 83.0009 67.6998 83.2009 67.8998C83.7009 68.3998 84.1009 68.8998 84.5009 69.2998C85.5009 70.3998 86.6009 71.5998 87.7009 72.5998C89.9009 74.5998 92.6009 75.2998 95.5009 74.6998C97.2009 74.2998 98.9009 73.8998 100.501 73.3998C101.501 73.0998 102.401 72.8998 103.401 72.5998C105.401 72.0998 106.201 70.3998 106.301 68.8998C106.501 66.4998 106.101 64.1998 105.101 61.9998C103.201 57.6998 100.201 54.8998 96.1009 53.5998C94.7009 53.1998 93.3009 52.7998 91.9009 52.3998C91.5009 52.2998 91.2009 52.1998 90.8009 52.0998L91.7009 51.8998C94.2009 51.2998 96.7009 50.7998 99.3009 50.2998C101.501 49.7998 104.101 49.1998 106.401 47.6998C108.701 46.1998 110.501 44.0998 111.701 41.5998C112.401 39.9998 113.001 38.1998 113.401 35.8998C113.701 34.4998 113.901 32.9998 114.101 31.4998C114.201 31.0998 114.201 30.5998 114.001 30.0998ZM90.4009 49.1998L86.0009 50.1998C85.3009 50.2998 84.7009 50.4998 84.0009 50.5998C83.2009 50.7998 82.6009 51.3998 82.6009 52.0998C82.6009 52.8998 83.1009 53.3998 83.8009 53.5998C84.4009 53.6998 85.1009 53.8998 85.7009 54.0998L88.6009 54.7998C90.5009 55.2998 92.4009 55.7998 94.2009 56.2998C96.4009 56.7998 98.2009 57.8998 99.7009 59.4998C102.101 62.0998 103.301 65.0998 103.101 68.6998C103.101 69.3998 102.901 69.5998 102.401 69.6998L101.101 69.9998C99.1009 70.4998 97.0009 71.0998 95.0009 71.5998C93.0009 72.0998 91.2009 71.4998 89.5009 69.9998C88.5009 68.9998 87.5009 67.8998 86.5009 66.7998C86.2009 66.3998 85.8009 66.0998 85.5009 65.6998C85.3009 65.4998 83.6009 63.5998 83.4009 63.3998C82.8009 62.6998 82.1009 61.9998 81.5009 61.2998C79.9009 59.4998 78.3009 57.6998 76.7009 55.7998C76.2009 55.1998 75.4009 54.4998 74.2009 54.4998C74.0009 54.4998 73.9009 54.4998 73.7009 54.4998C73.5009 54.4998 73.4009 54.4998 73.2009 54.4998C73.0009 54.4998 72.7009 54.4998 72.5009 54.4998C72.2009 54.5998 71.6009 54.5998 71.3009 54.9998C70.2009 55.9998 69.0009 57.0998 67.9009 58.1998C67.1009 58.9998 66.3009 59.8998 65.6009 60.6998C65.1009 61.1998 64.6009 61.7998 64.1009 62.2998C62.5009 63.9998 60.9009 65.6998 59.3009 67.3998C58.2009 68.4998 57.2009 69.5998 55.8009 70.1998C52.1009 71.7998 48.4009 71.5998 44.7009 69.6998C44.2009 69.3998 43.8009 69.0998 43.5009 68.7998C43.3009 68.4998 43.3009 68.1998 43.4009 67.5998L43.5009 67.2998C43.8009 65.2998 44.2009 63.1998 45.0009 61.1998C45.7009 59.5998 46.8009 58.2998 48.2009 57.2998C49.4009 56.5998 50.7009 56.1998 52.1009 55.8998C52.4009 55.7998 52.7009 55.7998 52.9009 55.6998C55.3009 55.0998 57.7009 54.4998 60.1009 53.8998L62.8009 53.1998C63.6009 52.9998 64.0009 52.4998 64.0009 51.6998C64.0009 50.9998 63.5009 50.3998 62.7009 50.1998C62.2009 50.0998 61.7009 49.9998 61.2009 49.8998L58.3009 49.1998C56.5009 48.7998 54.7009 48.3998 52.9009 47.9998L51.6009 47.6998C48.8009 47.0998 45.9009 46.3998 43.3009 44.9998C41.9009 44.1998 40.9009 43.4998 40.1009 42.6998C38.2009 40.7998 37.0009 38.3998 36.5009 35.1998C36.5009 34.9998 36.4009 34.7998 36.3009 34.4998C36.0009 33.4998 35.4009 31.3998 36.1009 30.2998C36.3009 29.9998 36.6009 29.7998 37.1009 29.6998C37.4009 29.5998 37.6009 29.4998 37.9009 29.4998C38.1009 29.3998 38.3009 29.3998 38.5009 29.2998L45.5009 27.1998C45.5009 27.1998 45.6009 27.1998 45.7009 27.0998C45.9009 26.9998 46.3009 26.8998 48.0009 26.9998C50.0009 27.0998 50.7009 27.4998 51.9009 28.1998C53.2009 28.8998 54.2009 29.9998 55.3009 31.0998C55.5009 31.2998 55.8009 31.5998 56.0009 31.7998C57.2009 32.9998 58.4009 34.2998 59.6009 35.4998L60.4009 36.2998C61.2009 37.0998 61.9009 37.8998 62.7009 38.6998C63.6009 39.5998 64.5009 40.5998 65.4009 41.4998C66.0009 42.0998 66.6009 42.6998 67.2009 43.2998C67.8009 43.8998 68.7009 43.9998 69.3009 43.5998C69.9009 43.1998 70.1009 42.3998 69.8009 41.5998C69.6009 40.9998 69.4009 40.4998 69.2009 39.8998C68.8009 38.7998 68.4009 37.6998 68.1009 36.5998C66.9009 32.4998 65.8009 28.7998 64.9009 25.2998C64.3009 22.9998 63.7009 20.6998 63.3009 18.3998C62.9009 16.0998 63.5009 13.6998 64.9009 11.3998C65.8009 9.99979 66.9009 8.69979 68.5009 7.29979C69.6009 6.29979 70.8009 5.39979 71.9009 4.39979L73.4009 3.19979C73.9009 2.79979 74.2009 2.79979 74.7009 3.19979L74.8009 3.29979C75.4009 3.79979 76.0009 4.29979 76.6009 4.79979C78.7009 6.39979 80.8009 8.19979 82.4009 10.5998C82.5009 10.6998 82.9009 11.4998 83.2009 12.0998C83.3009 12.2998 84.1009 14.3998 84.2009 14.5998C84.8009 16.9998 84.7009 19.3998 83.9009 22.0998C83.3009 24.0998 82.7009 26.1998 81.9009 28.6998C80.8009 32.1998 79.6009 35.7998 78.5009 39.2998L77.7009 41.8998C77.4009 42.6998 77.7009 43.4998 78.3009 43.8998C78.9009 44.2998 79.7009 44.0998 80.3009 43.4998L81.3009 42.4998C82.2009 41.4998 83.1009 40.4998 84.1009 39.4998L84.4009 39.0998C86.0009 37.3998 87.7009 35.6998 89.3009 33.9998L90.1009 33.0998C91.3009 31.7998 92.6009 30.4998 94.0009 29.3998C96.3009 27.5998 99.2009 26.8998 102.501 27.3998C103.101 27.4998 103.701 27.5998 104.301 27.5998H104.701C104.901 27.5998 105.001 27.6998 105.201 27.6998H105.401H105.501C108.101 27.9998 110.001 28.6998 110.701 29.7998C111.101 30.2998 111.201 30.8998 111.001 31.5998C110.601 33.7998 110.101 35.9998 109.501 38.1998C108.601 41.4998 106.601 43.8998 103.501 45.3998C102.001 46.0998 100.501 46.4998 98.8009 46.7998L98.3009 46.8998C95.7009 47.9998 93.1009 48.5998 90.4009 49.1998Z" fill="#00BBE4"/>
<path d="M73.6008 49.6996C74.6008 49.6996 75.4008 48.8996 75.4008 47.8996C75.4008 46.8996 74.6008 46.0996 73.6008 46.0996C72.6008 46.0996 71.8008 46.8996 71.8008 47.8996C71.8008 48.8996 72.6008 49.6996 73.6008 49.6996Z" fill="#00BBE4"/>
<path d="M44.5993 36.5001C45.5993 36.4001 46.2993 35.5001 46.1993 34.5001C46.0993 33.5001 45.1993 32.8001 44.1993 32.9001C43.1993 33.0001 42.4993 33.9001 42.5993 34.9001C42.6993 35.9001 43.5993 36.6001 44.5993 36.5001Z" fill="#00BBE4"/>
<path d="M49.8005 39.5997C50.8005 39.4997 51.5005 38.5997 51.4005 37.5997C51.3005 36.5997 50.4005 35.8997 49.4005 35.9997C48.4005 36.0997 47.7005 36.9997 47.8005 37.9997C47.9005 38.9997 48.8005 39.6997 49.8005 39.5997Z" fill="#00BBE4"/>
<path d="M54.9997 42.7003C55.9997 42.6003 56.6997 41.7003 56.5997 40.7003C56.4997 39.7003 55.5997 39.0003 54.5997 39.1003C53.5997 39.2003 52.8997 40.1003 52.9997 41.1003C53.0997 42.1003 53.9997 42.8003 54.9997 42.7003Z" fill="#00BBE4"/>
<path d="M60.2009 45.8995C61.2009 45.7995 61.9009 44.8995 61.8009 43.8995C61.7009 42.8995 60.8009 42.1995 59.8009 42.2995C58.8009 42.3995 58.1009 43.2995 58.2009 44.2995C58.4009 45.2995 59.2009 45.9995 60.2009 45.8995Z" fill="#00BBE4"/>
<path d="M81.4 57.6996C82.4 57.5996 83.1 56.7996 83.1 55.7996C83 54.7996 82.2 54.0996 81.2 54.0996C80.2 54.1996 79.5 54.9996 79.5 55.9996C79.5 56.9996 80.4 57.6996 81.4 57.6996Z" fill="#00BBE4"/>
<path d="M76.4996 53.3002C77.4996 53.2002 78.1996 52.4002 78.1996 51.4002C78.0996 50.4002 77.2996 49.7002 76.2996 49.7002C75.2996 49.8002 74.5996 50.6002 74.5996 51.6002C74.6996 52.6002 75.4996 53.3002 76.4996 53.3002Z" fill="#00BBE4"/>
<path d="M86.4 61.1C87.4 61 88.1 60.2 88.1 59.2C88 58.2 87.2 57.5 86.2 57.5C85.2 57.6 84.5 58.4 84.5 59.4C84.6 60.4 85.4 61.1 86.4 61.1Z" fill="#00BBE4"/>
<path d="M91.4 64.5004C92.4 64.4004 93.1 63.6004 93.1 62.6004C93 61.6004 92.2 60.9004 91.2 60.9004C90.2 61.0004 89.5 61.8004 89.5 62.8004C89.6 63.8004 90.5 64.5004 91.4 64.5004Z" fill="#00BBE4"/>
<path d="M96.4996 67.8998C97.4996 67.7998 98.1996 66.9998 98.1996 65.9998C98.0996 64.9998 97.2996 64.2998 96.2996 64.2998C95.2996 64.3998 94.5996 65.1998 94.5996 66.1998C94.6996 67.1998 95.4996 67.9998 96.4996 67.8998Z" fill="#00BBE4"/>
<path d="M65.4001 49.0001C66.4001 48.9001 67.1001 48.0001 67.0001 47.0001C66.9001 46.0001 66.0001 45.3001 65.0001 45.4001C64.0001 45.5001 63.3001 46.4001 63.4001 47.4001C63.6001 48.4001 64.5001 49.1001 65.4001 49.0001Z" fill="#00BBE4"/>
<path d="M99.4992 38.8998C100.499 38.8998 101.299 38.0998 101.299 37.0998C101.299 36.0998 100.499 35.2998 99.4992 35.2998C98.4992 35.2998 97.6992 36.0998 97.6992 37.0998C97.6992 38.0998 98.4992 38.8998 99.4992 38.8998Z" fill="#00BBE4"/>
<path d="M93.8 42.3002C94.8 42.3002 95.6 41.5002 95.6 40.5002C95.6 39.5002 94.8 38.7002 93.8 38.7002C92.8 38.7002 92 39.5002 92 40.5002C92 41.5002 92.8 42.3002 93.8 42.3002Z" fill="#00BBE4"/>
<path d="M87.9992 45.6996C88.9992 45.6996 89.7992 44.8996 89.7992 43.8996C89.7992 42.8996 88.9992 42.0996 87.9992 42.0996C86.9992 42.0996 86.1992 42.8996 86.1992 43.8996C86.1992 44.8996 86.9992 45.6996 87.9992 45.6996Z" fill="#00BBE4"/>
<path d="M82.3 49.1996C83.3 49.1996 84.1 48.3996 84.1 47.3996C84.1 46.3996 83.3 45.5996 82.3 45.5996C81.3 45.5996 80.5 46.3996 80.5 47.3996C80.5 48.3996 81.3 49.1996 82.3 49.1996Z" fill="#00BBE4"/>
<path d="M49.6008 67.0004C50.6008 67.0004 51.4008 66.2004 51.4008 65.2004C51.4008 64.2004 50.6008 63.4004 49.6008 63.4004C48.6008 63.4004 47.8008 64.2004 47.8008 65.2004C47.8008 66.2004 48.6008 67.0004 49.6008 67.0004Z" fill="#00BBE4"/>
<path d="M54.8 63.5004C55.8 63.5004 56.6 62.7004 56.6 61.7004C56.6 60.7004 55.8 59.9004 54.8 59.9004C53.8 59.9004 53 60.7004 53 61.7004C53 62.7004 53.8 63.5004 54.8 63.5004Z" fill="#00BBE4"/>
<path d="M59.9992 59.8998C60.9992 59.8998 61.7992 59.0998 61.7992 58.0998C61.7992 57.0998 60.9992 56.2998 59.9992 56.2998C58.9992 56.2998 58.1992 57.0998 58.1992 58.0998C58.1992 59.0998 58.9992 59.8998 59.9992 59.8998Z" fill="#00BBE4"/>
<path d="M65.2004 56.3002C66.2004 56.3002 67.0004 55.5002 67.0004 54.5002C67.0004 53.5002 66.2004 52.7002 65.2004 52.7002C64.2004 52.7002 63.4004 53.5002 63.4004 54.5002C63.5004 55.5002 64.3004 56.3002 65.2004 56.3002Z" fill="#00BBE4"/>
<path d="M70.4992 52.6996C71.4992 52.6996 72.2992 51.8996 72.2992 50.8996C72.2992 49.8996 71.4992 49.0996 70.4992 49.0996C69.4992 49.0996 68.6992 49.8996 68.6992 50.8996C68.6992 51.8996 69.4992 52.6996 70.4992 52.6996Z" fill="#00BBE4"/>
<path d="M73.6008 43.1996C74.6008 43.1996 75.4008 42.3996 75.4008 41.3996C75.4008 40.3996 74.6008 39.5996 73.6008 39.5996C72.6008 39.5996 71.8008 40.3996 71.8008 41.3996C71.8008 42.3996 72.6008 43.1996 73.6008 43.1996Z" fill="#00BBE4"/>
<path d="M73.6008 36.8002C74.6008 36.8002 75.4008 36.0002 75.4008 35.0002C75.4008 34.0002 74.6008 33.2002 73.6008 33.2002C72.6008 33.2002 71.8008 34.0002 71.8008 35.0002C71.8008 36.0002 72.6008 36.8002 73.6008 36.8002Z" fill="#00BBE4"/>
<path d="M73.6008 30.3002C74.6008 30.3002 75.4008 29.5002 75.4008 28.5002C75.4008 27.5002 74.6008 26.7002 73.6008 26.7002C72.6008 26.7002 71.8008 27.5002 71.8008 28.5002C71.8008 29.5002 72.6008 30.3002 73.6008 30.3002Z" fill="#00BBE4"/>
<path d="M73.6008 23.8002C74.6008 23.8002 75.4008 23.0002 75.4008 22.0002C75.4008 21.0002 74.6008 20.2002 73.6008 20.2002C72.6008 20.2002 71.8008 21.0002 71.8008 22.0002C71.8008 23.0002 72.6008 23.8002 73.6008 23.8002Z" fill="#00BBE4"/>
<path d="M73.6008 17.3998C74.6008 17.3998 75.4008 16.5998 75.4008 15.5998C75.4008 14.5998 74.6008 13.7998 73.6008 13.7998C72.6008 13.7998 71.8008 14.5998 71.8008 15.5998C71.8008 16.5998 72.6008 17.3998 73.6008 17.3998Z" fill="#00BBE4"/>
<path d="M73.6008 10.8998C74.6008 10.8998 75.4008 10.0998 75.4008 9.0998C75.4008 8.0998 74.6008 7.2998 73.6008 7.2998C72.6008 7.2998 71.8008 8.0998 71.8008 9.0998C71.8008 10.0998 72.6008 10.8998 73.6008 10.8998Z" fill="#00BBE4"/>
</g>
<defs>
<clipPath id="clip0_1_1915">
<rect width="81.2" height="75.6" fill="white" transform="translate(33)"/>
</clipPath>
</defs>
</svg>
