<svg width="41" height="41" viewBox="0 0 41 41" fill="none" xmlns="http://www.w3.org/2000/svg">
<path d="M20.5 0C12.5521 0 6.08594 6.46615 6.08594 14.4141C6.08594 17.0994 6.82978 19.72 8.23756 21.9936L19.6795 40.4322C19.8987 40.7854 20.2848 41 20.7001 41C20.7033 41 20.7064 41 20.7096 41C21.1285 40.9967 21.5155 40.7755 21.7306 40.4161L32.881 21.7989C34.2111 19.5733 34.9141 17.0197 34.9141 14.4141C34.9141 6.46615 28.4479 0 20.5 0ZM30.8193 20.5655L20.6819 37.4915L10.2794 20.7279C9.10761 18.8355 8.47227 16.6522 8.47227 14.4141C8.47227 7.7908 13.8767 2.38633 20.5 2.38633C27.1233 2.38633 32.5197 7.7908 32.5197 14.4141C32.5197 16.5859 31.9263 18.7133 30.8193 20.5655Z" fill="#00BBE4"/>
<path d="M20.5 7.20703C16.526 7.20703 13.293 10.4401 13.293 14.4141C13.293 18.3626 16.4734 21.6211 20.5 21.6211C24.5762 21.6211 27.707 18.3192 27.707 14.4141C27.707 10.4401 24.474 7.20703 20.5 7.20703ZM20.5 19.2348C17.8368 19.2348 15.6793 17.07 15.6793 14.4141C15.6793 11.7648 17.8507 9.59336 20.5 9.59336C23.1493 9.59336 25.3127 11.7648 25.3127 14.4141C25.3127 17.0313 23.2054 19.2348 20.5 19.2348Z" fill="#00BBE4"/>
</svg>
