<svg width="584" height="405" viewBox="0 0 584 405" fill="none" xmlns="http://www.w3.org/2000/svg">
<g filter="url(#filter0_d_1_2084)">
<path d="M189.492 49.2905C189.829 46.8195 188.257 45.5839 186.012 45.247C183.879 44.91 181.634 44.91 179.388 44.7977C177.704 44.6854 176.469 44.3484 176.469 42.102C176.357 37.9461 174.449 35.812 170.407 36.4859C166.141 37.1598 162.212 37.0475 158.619 34.5765C158.282 34.3518 157.721 34.3518 157.272 34.3518C153.567 34.4641 150.424 33.1163 147.393 31.2068C142.902 28.3988 138.074 27.0509 132.686 27.3879C128.195 27.6125 123.48 27.9495 119.214 25.3661C118.091 24.6922 115.958 24.8045 114.611 25.3661C109.334 27.3879 104.058 28.0618 98.5568 26.8263C97.8832 26.714 97.0973 26.8263 96.3115 26.8263C92.7189 27.1633 90.3614 28.7358 89.0142 32.2177C88.3406 34.0149 86.8811 35.5873 85.6462 37.1598C83.9622 39.4063 82.1659 39.6309 80.1451 37.4968C78.2366 35.475 75.7668 34.6888 73.0724 35.9243C70.4903 37.1598 69.8167 39.6309 69.9289 42.2143C70.0412 44.91 70.378 47.6057 70.8271 50.1891C71.1639 52.0985 71.6129 54.1203 72.6233 55.8051C74.5318 59.2871 77.0017 62.4321 78.9102 65.914C79.5838 67.1496 80.1451 69.2837 79.5838 70.1822C77.6753 73.2149 77.563 76.1353 78.1244 79.5049C78.4612 81.1897 78.3489 82.9869 78.2366 84.784C78.0121 88.6029 76.8894 89.7261 73.4092 90.9617C71.6129 91.5233 69.7044 92.4218 68.2449 93.545C64.4279 96.5777 60.6108 99.7227 57.0183 103.092C53.4258 106.35 49.9456 109.944 46.4653 113.314C42.3115 117.469 38.0453 121.625 34.116 126.006C32.9934 127.354 32.3198 129.488 32.2075 131.285C31.983 134.655 32.2075 138.024 32.6566 141.394C32.8811 143.64 33.7792 145.887 34.3406 148.021C34.6774 149.256 35.1264 150.492 35.4632 151.727C35.1264 151.952 34.7896 152.177 34.4528 152.401C34.116 151.727 33.8915 150.941 33.3302 150.492C30.4112 147.796 27.8291 147.908 25.247 150.941C24.3489 152.064 23.4508 153.3 22.8894 154.648C21.0932 159.141 18.511 162.959 15.2553 166.441C14.3572 167.452 13.5713 168.576 12.8977 169.811C11.326 172.844 11.1015 175.989 13.01 178.797C15.4799 182.391 18.1742 185.761 21.2054 188.793C25.0225 192.612 29.2886 196.094 33.3302 199.576C35.9123 201.823 38.3821 201.261 40.4029 198.453C42.1992 195.757 42.9851 195.645 45.3426 198.004C47.2512 200.025 49.3842 201.261 52.1909 201.823C55.5589 202.384 58.9268 203.17 61.958 204.518C66.6732 206.428 71.2761 207.102 76.3281 206.315C81.4923 205.529 85.3094 207.551 87.667 212.044C88.4528 213.392 89.1264 214.852 89.9123 216.2C91.7085 219.008 94.5152 220.131 97.5464 218.783C99.4549 217.884 101.588 216.2 102.598 214.403C104.507 210.808 107.314 209.685 111.018 209.797C114.723 209.91 118.428 210.471 122.133 210.359C128.083 210.134 133.247 208.562 136.952 203.17C138.074 201.486 140.544 200.25 142.565 199.688C147.393 198.341 151.546 196.319 153.679 191.489C154.241 191.601 154.578 191.489 154.914 191.714C159.63 193.96 164.12 193.96 168.948 191.714C171.305 190.59 174.673 190.141 177.143 190.815C183.43 192.612 189.043 195.87 193.983 200.587C197.014 203.507 200.943 205.641 205.883 204.294C209.251 203.395 212.395 205.529 213.742 208.899C214.864 211.819 216.773 213.616 220.029 213.953C220.815 214.066 222.274 215.189 222.274 215.75C222.162 219.232 222.386 222.939 221.376 226.084C219.131 232.486 222.835 240.236 229.684 241.36C232.603 241.809 232.715 243.044 232.49 245.403C231.929 252.816 233.501 259.219 241.135 262.701C241.808 263.038 242.594 263.375 242.931 263.936C243.717 265.172 245.064 266.744 244.84 267.98C244.054 272.922 243.156 277.639 248.095 281.683C244.84 282.02 242.482 282.694 241.247 279.324C240.573 277.302 237.542 277.527 236.195 279.324C235.634 279.998 235.409 280.897 235.072 281.795C232.041 277.19 228.898 275.73 224.295 277.078C222.948 275.281 221.151 274.157 219.131 275.73C216.436 277.752 212.395 278.875 212.395 283.368C212.395 283.705 212.507 284.154 212.619 284.379C214.528 288.31 215.089 292.129 213.966 296.622C213.293 299.43 212.17 300.328 209.925 300.665C207.792 301.114 205.771 302.125 205.771 304.484C205.771 307.404 204.199 308.977 202.066 310.437C199.035 312.459 197.351 315.042 198.025 318.861C198.137 319.535 197.8 320.209 197.688 321.108C196.453 320.771 195.555 320.434 194.544 320.097C191.401 319.086 189.492 320.321 189.043 323.579C188.706 325.713 189.492 327.622 191.289 328.521C195.891 330.992 200.607 333.351 205.322 335.485C207.343 336.383 209.251 335.597 210.374 333.351C210.598 332.901 211.272 332.227 211.609 332.34C214.528 332.789 216.436 330.88 218.569 329.419C220.815 327.847 223.172 327.173 225.867 327.622C230.245 328.296 233.388 330.318 234.96 334.698C235.297 335.597 236.644 336.72 237.43 336.72C238.216 336.72 239.451 335.485 239.788 334.586C240.573 332.564 241.022 330.543 241.359 328.408C241.696 326.05 240.91 324.14 238.44 323.354C234.399 322.006 234.399 322.006 235.185 317.738C235.409 316.727 235.521 315.716 235.858 314.256C236.756 315.604 237.318 316.727 238.216 317.401C239.114 318.075 240.798 318.749 241.584 318.412C242.594 317.963 243.829 316.278 243.717 315.379C243.38 312.684 244.952 311.111 246.299 309.314C249.218 311.448 250.565 311.111 252.586 308.528C254.27 306.281 256.291 304.259 258.311 302.238C260.445 300.104 262.802 298.194 262.129 294.824C266.507 294.263 267.63 290.444 269.763 287.748C272.008 284.94 273.692 281.683 272.569 277.864C276.499 277.527 280.091 276.965 283.684 276.965C287.837 276.853 291.542 275.281 295.472 274.607C296.033 274.494 296.482 274.494 297.156 274.494C302.208 274.382 301.085 274.831 299.176 274.831C297.268 274.719 295.696 275.618 295.696 277.864C295.696 279.998 301.758 280.784 303.106 281.009C305.351 281.346 307.596 281.795 309.842 282.245C307.821 283.817 305.8 284.603 304.116 285.726C300.973 287.973 304.79 290.219 305.351 289.995C309.28 288.647 311.975 290.781 314.669 293.027C318.374 296.06 322.415 297.857 327.131 297.632C332.183 297.408 337.235 296.734 342.174 295.948C345.205 295.498 348.012 294.712 350.706 296.509C353.625 298.419 356.432 298.868 359.463 295.948C360.137 299.093 358.79 302.462 362.494 304.035C353.625 307.18 345.767 310.886 338.694 316.053C335.551 318.3 332.519 320.771 329.376 323.129C328.366 323.916 327.355 324.702 326.457 325.713C323.987 328.521 324.998 331.441 328.59 331.89C330.162 332.115 331.958 332.003 333.53 331.441C338.133 330.093 341.837 330.88 344.869 334.811C345.654 335.934 346.777 336.833 347.788 337.843C349.472 339.528 351.492 340.539 354.074 339.978C356.208 339.528 357.892 340.427 359.014 342.224C360.586 344.47 361.035 346.941 360.474 349.637C360.025 351.659 359.463 353.793 359.239 355.927C359.014 358.061 357.892 359.297 356.432 360.757C355.197 361.88 353.625 363.902 353.962 365.137C354.187 366.598 356.095 368.282 357.667 369.069C360.025 370.304 362.607 370.978 365.189 371.877C376.865 375.583 384.499 370.641 390 360.869C394.041 353.568 400.216 350.311 408.299 353.344C410.432 354.13 411.555 353.793 412.79 351.659C414.137 349.076 415.821 346.492 419.638 346.829C420.424 346.941 421.771 345.481 422.332 344.47C422.894 343.459 422.894 342.112 423.118 340.988C423.679 338.18 425.7 337.394 427.946 339.079C428.956 339.753 429.742 340.651 430.64 341.55C434.232 345.032 435.916 345.144 440.183 342.673C441.642 341.887 443.663 341.438 445.235 341.662C450.736 342.336 454.889 338.854 454.777 333.351C454.777 332.227 454.44 330.992 454.777 330.093C455.114 329.082 455.9 327.847 456.798 327.51C459.941 326.274 460.503 324.927 458.819 322.118C457.808 320.546 456.686 319.535 454.665 319.423C452.981 319.198 451.297 318.637 449.613 318.075C444.561 316.39 442.091 317.176 438.835 321.332C437.937 322.568 436.702 323.466 435.58 321.781C434.12 319.535 432.436 320.097 430.864 321.22C429.63 322.118 428.731 323.466 427.496 324.477C425.363 326.274 423.118 328.071 420.873 329.644C420.311 329.981 419.077 330.093 418.627 329.756C416.27 327.398 413.239 327.061 410.208 326.836C408.973 326.724 407.85 326.274 406.727 325.937C406.615 325.713 406.615 325.488 406.503 325.151C407.064 324.814 407.625 324.477 408.074 324.028C411.555 320.658 411.779 316.727 408.074 313.47C406.166 311.785 403.696 310.886 401.451 309.651C401.002 309.426 400.104 309.314 399.991 308.977C399.205 305.607 396.623 305.607 394.939 305.607C393.592 303.698 392.582 302.462 391.796 301.002C391.459 300.44 391.235 299.654 391.347 299.093C391.796 297.408 392.245 295.723 393.143 294.151C393.592 293.364 394.715 292.578 395.613 292.353C401.9 291.006 407.176 288.31 409.983 282.132C410.32 281.458 411.667 280.672 412.116 280.897C413.688 281.683 414.923 282.244 416.382 280.784C417.954 279.212 417.505 277.639 416.607 275.954C415.821 274.27 414.923 272.697 414.137 271.125C415.596 272.36 416.607 273.933 417.729 275.393C419.189 277.302 420.985 277.752 423.006 276.179C424.578 274.831 426.149 273.371 427.721 271.911C431.426 268.429 435.467 266.07 440.968 267.53C442.316 267.867 444.336 266.632 445.684 265.621C449.052 263.262 452.42 261.353 456.686 263.15C459.043 264.161 460.84 263.487 462.187 261.353C462.636 260.567 463.085 259.78 463.646 258.994C465.779 255.624 469.372 254.164 473.077 255.175C475.322 255.737 477.006 254.95 477.904 252.929C481.047 245.628 488.345 246.751 494.07 244.842C494.295 244.729 494.744 244.954 495.081 245.179C497.663 246.751 499.796 245.74 501.368 243.494C502.715 241.472 503.725 239.113 504.736 236.867C505.521 235.182 505.634 233.497 503.837 232.149C503.501 231.925 503.388 231.026 503.501 230.464C503.725 228.218 504.286 225.972 504.399 223.725C504.511 221.142 505.521 219.682 508.104 218.671C512.482 216.874 516.411 214.29 518.657 209.797C519.33 208.562 521.014 207.102 522.249 206.989C528.311 206.877 534.149 205.305 540.324 206.203C546.386 207.102 548.295 204.294 547.846 198.004C547.734 195.87 548.295 193.735 548.968 191.601C549.417 190.141 550.54 188.906 551.214 187.558C552.449 184.974 552 183.627 549.53 182.166C548.968 181.829 548.183 180.931 548.295 180.369C548.744 174.529 547.397 169.923 540.885 168.688C541.783 163.409 541.783 163.409 546.386 161.949C546.948 161.836 547.621 161.724 547.846 161.275C548.632 160.039 549.979 158.579 549.754 157.456C549.53 156.333 547.509 154.76 546.611 154.872C542.232 155.546 540.773 151.84 537.966 149.818C541.783 149.706 544.702 148.133 547.284 145.437C553.459 138.923 553.571 138.361 548.07 131.285C546.948 129.825 546.499 128.477 547.509 126.792C548.856 124.321 548.07 122.636 545.264 122.299C543.355 122.075 541.222 122.187 539.314 122.636C536.507 123.31 534.262 122.749 532.465 120.277C530.557 117.582 527.975 116.683 524.831 116.683C523.708 116.683 522.137 115.897 521.351 114.998C518.432 111.853 516.187 111.404 512.819 114.324C511.135 115.785 509.788 115.785 508.328 114.324C506.083 112.19 503.501 111.292 500.469 111.741C497.887 112.19 495.754 111.292 494.295 109.045C493.846 108.484 493.397 107.697 492.723 107.585C491.6 107.248 490.141 106.911 489.131 107.361C488.345 107.697 487.896 109.158 487.447 110.169C487.222 110.842 487.447 111.741 487.447 112.977C486.212 112.752 485.089 112.864 484.303 112.303C481.16 110.281 477.904 108.259 474.985 105.9C473.526 104.665 472.627 102.755 471.505 101.183C470.607 99.9473 469.821 98.7118 468.81 97.4763C468.361 96.9147 467.688 96.5777 467.351 95.9038C465.667 92.5341 464.432 91.9725 461.176 93.7697C457.247 95.9038 453.654 98.3748 449.725 100.621C447.143 102.081 444.449 103.205 441.642 104.553C439.958 100.734 437.376 99.7227 434.12 99.2734C432.548 99.0488 430.752 98.0379 429.742 96.9147C425.588 91.9725 420.648 91.6356 415.933 96.1284C414.81 97.1393 413.688 98.1502 412.565 99.0488C411.106 95.9038 409.871 93.2081 408.636 90.4C408.411 89.8384 408.636 88.9399 408.973 88.2659C410.32 85.7949 409.534 83.8854 408.187 81.639C406.727 79.2803 405.717 76.4722 405.38 73.7765C404.819 69.2837 404.145 68.4974 399.767 68.9467C399.093 69.059 397.746 68.3851 397.634 67.8235C395.725 61.4212 393.929 60.635 387.867 62.9937C386.519 63.5553 384.611 64.2292 383.376 63.6676C380.008 62.4321 376.865 61.3089 372.486 63.106C373.16 61.4212 373.384 60.5226 373.721 59.7364C374.956 57.2653 374.731 54.9066 373.272 52.6602C372.486 51.5369 371.7 50.4137 370.914 49.2905C367.771 44.91 367.995 43.7868 373.16 43.3375C374.282 43.2252 375.854 42.102 376.191 41.0911C376.528 40.3048 375.517 38.7323 374.731 37.8338C372.935 35.6997 370.69 34.0149 369.23 31.7684C367.883 29.7466 367.322 27.1633 366.648 24.8045C364.403 17.616 360.361 14.8079 352.952 14.8079C350.706 14.8079 348.237 14.134 346.104 13.2354C341.501 11.2137 339.929 11.4383 336.224 14.9203C335.214 15.9312 333.642 17.279 332.632 17.0544C328.59 16.3804 324.099 17.616 320.507 14.3587C319.609 13.5724 317.363 13.2354 316.353 13.7971C315.343 14.2463 315.006 16.1558 314.669 17.5036C314.445 18.1776 314.894 18.9638 314.894 19.6377C315.118 23.7936 311.301 28.2865 307.933 27.0509C303.779 25.4784 299.738 24.5799 295.359 24.9168C294.91 24.9168 294.349 24.5799 293.788 24.3552C291.093 23.1197 288.623 23.6813 286.827 25.9277C285.255 27.8372 283.459 28.6234 280.989 28.0618C278.519 27.5002 276.835 28.6234 275.6 30.9822C274.141 33.7902 272.457 36.5982 270.548 39.0693C267.966 42.4389 266.731 45.9209 267.405 50.4137C267.966 54.1203 267.517 57.9392 267.293 61.7582C267.18 62.9937 266.395 64.1169 265.946 65.3524C265.609 65.3524 265.272 65.4648 264.935 65.4648C263.363 63.3307 261.23 61.3089 260.332 58.8378C258.648 53.7834 256.178 51.9862 250.902 52.7725C249.779 52.9971 248.32 52.9971 247.534 52.3232C244.84 50.5261 243.043 51.4246 240.573 52.9971C237.991 54.6819 234.736 55.2435 231.255 56.5914C231.031 54.345 230.919 52.8848 230.919 51.4246C230.806 46.2579 228.785 44.6854 223.846 46.1455C222.049 46.5948 220.366 47.3811 218.794 48.392C217.447 49.2905 216.548 50.863 215.314 52.2109C214.752 48.2796 213.405 47.2687 210.037 48.6166C207.792 49.5152 207.006 48.7289 206.557 46.8195C206.332 46.1455 206.108 45.4716 205.771 44.7977C204.311 41.765 202.066 41.0911 199.259 43.1129C198.361 43.7868 197.576 44.91 196.79 45.6962C195.892 46.4825 194.993 47.2687 193.983 47.8303C192.411 48.1673 191.064 48.7289 189.492 49.2905Z" fill="white"/>
<path d="M189.492 49.2905C189.829 46.8195 188.257 45.5839 186.012 45.247C183.879 44.91 181.634 44.91 179.388 44.7977C177.704 44.6854 176.469 44.3484 176.469 42.102C176.357 37.9461 174.449 35.812 170.407 36.4859C166.141 37.1598 162.212 37.0475 158.619 34.5765C158.282 34.3518 157.721 34.3518 157.272 34.3518C153.567 34.4641 150.424 33.1163 147.393 31.2068C142.902 28.3988 138.074 27.0509 132.686 27.3879C128.195 27.6125 123.48 27.9495 119.214 25.3661C118.091 24.6922 115.958 24.8045 114.611 25.3661C109.334 27.3879 104.058 28.0618 98.5568 26.8263C97.8832 26.714 97.0973 26.8263 96.3115 26.8263C92.7189 27.1633 90.3614 28.7358 89.0142 32.2177C88.3406 34.0149 86.8811 35.5873 85.6462 37.1598C83.9622 39.4063 82.1659 39.6309 80.1451 37.4968C78.2366 35.475 75.7668 34.6888 73.0724 35.9243C70.4903 37.1598 69.8167 39.6309 69.9289 42.2143C70.0412 44.91 70.378 47.6057 70.8271 50.1891C71.1639 52.0985 71.6129 54.1203 72.6233 55.8051C74.5318 59.2871 77.0017 62.4321 78.9102 65.914C79.5838 67.1496 80.1451 69.2837 79.5838 70.1822C77.6753 73.2149 77.563 76.1353 78.1244 79.5049C78.4612 81.1897 78.3489 82.9869 78.2366 84.784C78.0121 88.6029 76.8894 89.7261 73.4092 90.9617C71.6129 91.5233 69.7044 92.4218 68.2449 93.545C64.4279 96.5777 60.6108 99.7227 57.0183 103.092C53.4258 106.35 49.9456 109.944 46.4653 113.314C42.3115 117.469 38.0453 121.625 34.116 126.006C32.9934 127.354 32.3198 129.488 32.2075 131.285C31.983 134.655 32.2075 138.024 32.6566 141.394C32.8811 143.64 33.7792 145.887 34.3406 148.021C34.6774 149.256 35.1264 150.492 35.4632 151.727C35.1264 151.952 34.7896 152.177 34.4528 152.401C34.116 151.727 33.8915 150.941 33.3302 150.492C30.4112 147.796 27.8291 147.908 25.247 150.941C24.3489 152.064 23.4508 153.3 22.8894 154.648C21.0932 159.141 18.511 162.959 15.2553 166.441C14.3572 167.452 13.5713 168.576 12.8977 169.811C11.326 172.844 11.1015 175.989 13.01 178.797C15.4799 182.391 18.1742 185.761 21.2054 188.793C25.0225 192.612 29.2886 196.094 33.3302 199.576C35.9123 201.823 38.3821 201.261 40.4029 198.453C42.1992 195.757 42.9851 195.645 45.3426 198.004C47.2512 200.025 49.3842 201.261 52.1909 201.823C55.5589 202.384 58.9268 203.17 61.958 204.518C66.6732 206.428 71.2761 207.102 76.3281 206.315C81.4923 205.529 85.3094 207.551 87.667 212.044C88.4528 213.392 89.1264 214.852 89.9123 216.2C91.7085 219.008 94.5152 220.131 97.5464 218.783C99.4549 217.884 101.588 216.2 102.598 214.403C104.507 210.808 107.314 209.685 111.018 209.797C114.723 209.91 118.428 210.471 122.133 210.359C128.083 210.134 133.247 208.562 136.952 203.17C138.074 201.486 140.544 200.25 142.565 199.688C147.393 198.341 151.546 196.319 153.679 191.489C154.241 191.601 154.578 191.489 154.914 191.714C159.63 193.96 164.12 193.96 168.948 191.714C171.305 190.59 174.673 190.141 177.143 190.815C183.43 192.612 189.043 195.87 193.983 200.587C197.014 203.507 200.943 205.641 205.883 204.294C209.251 203.395 212.395 205.529 213.742 208.899C214.864 211.819 216.773 213.616 220.029 213.953C220.815 214.066 222.274 215.189 222.274 215.75C222.162 219.232 222.386 222.939 221.376 226.084C219.131 232.486 222.835 240.236 229.684 241.36C232.603 241.809 232.715 243.044 232.49 245.403C231.929 252.816 233.501 259.219 241.135 262.701C241.808 263.038 242.594 263.375 242.931 263.936C243.717 265.172 245.064 266.744 244.84 267.98C244.054 272.922 243.156 277.639 248.095 281.683C244.84 282.02 242.482 282.694 241.247 279.324C240.573 277.302 237.542 277.527 236.195 279.324C235.634 279.998 235.409 280.897 235.072 281.795C232.041 277.19 228.898 275.73 224.295 277.078C222.948 275.281 221.151 274.157 219.131 275.73C216.436 277.752 212.395 278.875 212.395 283.368C212.395 283.705 212.507 284.154 212.619 284.379C214.528 288.31 215.089 292.129 213.966 296.622C213.293 299.43 212.17 300.328 209.925 300.665C207.792 301.114 205.771 302.125 205.771 304.484C205.771 307.404 204.199 308.977 202.066 310.437C199.035 312.459 197.351 315.042 198.025 318.861C198.137 319.535 197.8 320.209 197.688 321.108C196.453 320.771 195.555 320.434 194.544 320.097C191.401 319.086 189.492 320.321 189.043 323.579C188.706 325.713 189.492 327.622 191.289 328.521C195.891 330.992 200.607 333.351 205.322 335.485C207.343 336.383 209.251 335.597 210.374 333.351C210.598 332.901 211.272 332.227 211.609 332.34C214.528 332.789 216.436 330.88 218.569 329.419C220.815 327.847 223.172 327.173 225.867 327.622C230.245 328.296 233.388 330.318 234.96 334.698C235.297 335.597 236.644 336.72 237.43 336.72C238.216 336.72 239.451 335.485 239.788 334.586C240.573 332.564 241.022 330.543 241.359 328.408C241.696 326.05 240.91 324.14 238.44 323.354C234.399 322.006 234.399 322.006 235.185 317.738C235.409 316.727 235.521 315.716 235.858 314.256C236.756 315.604 237.318 316.727 238.216 317.401C239.114 318.075 240.798 318.749 241.584 318.412C242.594 317.963 243.829 316.278 243.717 315.379C243.38 312.684 244.952 311.111 246.299 309.314C249.218 311.448 250.565 311.111 252.586 308.528C254.27 306.281 256.291 304.259 258.311 302.238C260.445 300.104 262.802 298.194 262.129 294.824C266.507 294.263 267.63 290.444 269.763 287.748C272.008 284.94 273.692 281.683 272.569 277.864C276.499 277.527 280.091 276.965 283.684 276.965C287.837 276.853 291.542 275.281 295.472 274.607C296.033 274.494 296.482 274.494 297.156 274.494C302.208 274.382 301.085 274.831 299.176 274.831C297.268 274.719 295.696 275.618 295.696 277.864C295.696 279.998 301.758 280.784 303.106 281.009C305.351 281.346 307.596 281.795 309.842 282.245C307.821 283.817 305.8 284.603 304.116 285.726C300.973 287.973 304.79 290.219 305.351 289.995C309.28 288.647 311.975 290.781 314.669 293.027C318.374 296.06 322.415 297.857 327.131 297.632C332.183 297.408 337.235 296.734 342.174 295.948C345.205 295.498 348.012 294.712 350.706 296.509C353.625 298.419 356.432 298.868 359.463 295.948C360.137 299.093 358.79 302.462 362.494 304.035C353.625 307.18 345.767 310.886 338.694 316.053C335.551 318.3 332.519 320.771 329.376 323.129C328.366 323.916 327.355 324.702 326.457 325.713C323.987 328.521 324.998 331.441 328.59 331.89C330.162 332.115 331.958 332.003 333.53 331.441C338.133 330.093 341.837 330.88 344.869 334.811C345.654 335.934 346.777 336.833 347.788 337.843C349.472 339.528 351.492 340.539 354.074 339.978C356.208 339.528 357.892 340.427 359.014 342.224C360.586 344.47 361.035 346.941 360.474 349.637C360.025 351.659 359.463 353.793 359.239 355.927C359.014 358.061 357.892 359.297 356.432 360.757C355.197 361.88 353.625 363.902 353.962 365.137C354.187 366.598 356.095 368.282 357.667 369.069C360.025 370.304 362.607 370.978 365.189 371.877C376.865 375.583 384.499 370.641 390 360.869C394.041 353.568 400.216 350.311 408.299 353.344C410.432 354.13 411.555 353.793 412.79 351.659C414.137 349.076 415.821 346.492 419.638 346.829C420.424 346.941 421.771 345.481 422.332 344.47C422.894 343.459 422.894 342.112 423.118 340.988C423.679 338.18 425.7 337.394 427.946 339.079C428.956 339.753 429.742 340.651 430.64 341.55C434.232 345.032 435.916 345.144 440.183 342.673C441.642 341.887 443.663 341.438 445.235 341.662C450.736 342.336 454.889 338.854 454.777 333.351C454.777 332.227 454.44 330.992 454.777 330.093C455.114 329.082 455.9 327.847 456.798 327.51C459.941 326.274 460.503 324.927 458.819 322.118C457.808 320.546 456.686 319.535 454.665 319.423C452.981 319.198 451.297 318.637 449.613 318.075C444.561 316.39 442.091 317.176 438.835 321.332C437.937 322.568 436.702 323.466 435.58 321.781C434.12 319.535 432.436 320.097 430.864 321.22C429.63 322.118 428.731 323.466 427.496 324.477C425.363 326.274 423.118 328.071 420.873 329.644C420.311 329.981 419.077 330.093 418.627 329.756C416.27 327.398 413.239 327.061 410.208 326.836C408.973 326.724 407.85 326.274 406.727 325.937C406.615 325.713 406.615 325.488 406.503 325.151C407.064 324.814 407.625 324.477 408.074 324.028C411.555 320.658 411.779 316.727 408.074 313.47C406.166 311.785 403.696 310.886 401.451 309.651C401.002 309.426 400.104 309.314 399.991 308.977C399.205 305.607 396.623 305.607 394.939 305.607C393.592 303.698 392.582 302.462 391.796 301.002C391.459 300.44 391.235 299.654 391.347 299.093C391.796 297.408 392.245 295.723 393.143 294.151C393.592 293.364 394.715 292.578 395.613 292.353C401.9 291.006 407.176 288.31 409.983 282.132C410.32 281.458 411.667 280.672 412.116 280.897C413.688 281.683 414.923 282.244 416.382 280.784C417.954 279.212 417.505 277.639 416.607 275.954C415.821 274.27 414.923 272.697 414.137 271.125C415.596 272.36 416.607 273.933 417.729 275.393C419.189 277.302 420.985 277.752 423.006 276.179C424.578 274.831 426.149 273.371 427.721 271.911C431.426 268.429 435.467 266.07 440.968 267.53C442.316 267.867 444.336 266.632 445.684 265.621C449.052 263.262 452.42 261.353 456.686 263.15C459.043 264.161 460.84 263.487 462.187 261.353C462.636 260.567 463.085 259.78 463.646 258.994C465.779 255.624 469.372 254.164 473.077 255.175C475.322 255.737 477.006 254.95 477.904 252.929C481.047 245.628 488.345 246.751 494.07 244.842C494.295 244.729 494.744 244.954 495.081 245.179C497.663 246.751 499.796 245.74 501.368 243.494C502.715 241.472 503.725 239.113 504.736 236.867C505.521 235.182 505.634 233.497 503.837 232.149C503.501 231.925 503.388 231.026 503.501 230.464C503.725 228.218 504.286 225.972 504.399 223.725C504.511 221.142 505.521 219.682 508.104 218.671C512.482 216.874 516.411 214.29 518.657 209.797C519.33 208.562 521.014 207.102 522.249 206.989C528.311 206.877 534.149 205.305 540.324 206.203C546.386 207.102 548.295 204.294 547.846 198.004C547.734 195.87 548.295 193.735 548.968 191.601C549.417 190.141 550.54 188.906 551.214 187.558C552.449 184.974 552 183.627 549.53 182.166C548.968 181.829 548.183 180.931 548.295 180.369C548.744 174.529 547.397 169.923 540.885 168.688C541.783 163.409 541.783 163.409 546.386 161.949C546.948 161.836 547.621 161.724 547.846 161.275C548.632 160.039 549.979 158.579 549.754 157.456C549.53 156.333 547.509 154.76 546.611 154.872C542.232 155.546 540.773 151.84 537.966 149.818C541.783 149.706 544.702 148.133 547.284 145.437C553.459 138.923 553.571 138.361 548.07 131.285C546.948 129.825 546.499 128.477 547.509 126.792C548.856 124.321 548.07 122.636 545.264 122.299C543.355 122.075 541.222 122.187 539.314 122.636C536.507 123.31 534.262 122.749 532.465 120.277C530.557 117.582 527.975 116.683 524.831 116.683C523.708 116.683 522.137 115.897 521.351 114.998C518.432 111.853 516.187 111.404 512.819 114.324C511.135 115.785 509.788 115.785 508.328 114.324C506.083 112.19 503.501 111.292 500.469 111.741C497.887 112.19 495.754 111.292 494.295 109.045C493.846 108.484 493.397 107.697 492.723 107.585C491.6 107.248 490.141 106.911 489.131 107.361C488.345 107.697 487.896 109.158 487.447 110.169C487.222 110.842 487.447 111.741 487.447 112.977C486.212 112.752 485.089 112.864 484.303 112.303C481.16 110.281 477.904 108.259 474.985 105.9C473.526 104.665 472.627 102.755 471.505 101.183C470.607 99.9473 469.821 98.7118 468.81 97.4763C468.361 96.9147 467.688 96.5777 467.351 95.9038C465.667 92.5341 464.432 91.9725 461.176 93.7697C457.247 95.9038 453.654 98.3748 449.725 100.621C447.143 102.081 444.449 103.205 441.642 104.553C439.958 100.734 437.376 99.7227 434.12 99.2734C432.548 99.0488 430.752 98.0379 429.742 96.9147C425.588 91.9725 420.648 91.6356 415.933 96.1284C414.81 97.1393 413.688 98.1502 412.565 99.0488C411.106 95.9038 409.871 93.2081 408.636 90.4C408.411 89.8384 408.636 88.9399 408.973 88.2659C410.32 85.7949 409.534 83.8854 408.187 81.639C406.727 79.2803 405.717 76.4722 405.38 73.7765C404.819 69.2837 404.145 68.4974 399.767 68.9467C399.093 69.059 397.746 68.3851 397.634 67.8235C395.725 61.4212 393.929 60.635 387.867 62.9937C386.519 63.5553 384.611 64.2292 383.376 63.6676C380.008 62.4321 376.865 61.3089 372.486 63.106C373.16 61.4212 373.384 60.5226 373.721 59.7364C374.956 57.2653 374.731 54.9066 373.272 52.6602C372.486 51.5369 371.7 50.4137 370.914 49.2905C367.771 44.91 367.995 43.7868 373.16 43.3375C374.282 43.2252 375.854 42.102 376.191 41.0911C376.528 40.3048 375.517 38.7323 374.731 37.8338C372.935 35.6997 370.69 34.0149 369.23 31.7684C367.883 29.7466 367.322 27.1633 366.648 24.8045C364.403 17.616 360.361 14.8079 352.952 14.8079C350.706 14.8079 348.237 14.134 346.104 13.2354C341.501 11.2137 339.929 11.4383 336.224 14.9203C335.214 15.9312 333.642 17.279 332.632 17.0544C328.59 16.3804 324.099 17.616 320.507 14.3587C319.609 13.5724 317.363 13.2354 316.353 13.7971C315.343 14.2463 315.006 16.1558 314.669 17.5036C314.445 18.1776 314.894 18.9638 314.894 19.6377C315.118 23.7936 311.301 28.2865 307.933 27.0509C303.779 25.4784 299.738 24.5799 295.359 24.9168C294.91 24.9168 294.349 24.5799 293.788 24.3552C291.093 23.1197 288.623 23.6813 286.827 25.9277C285.255 27.8372 283.459 28.6234 280.989 28.0618C278.519 27.5002 276.835 28.6234 275.6 30.9822C274.141 33.7902 272.457 36.5982 270.548 39.0693C267.966 42.4389 266.731 45.9209 267.405 50.4137C267.966 54.1203 267.517 57.9392 267.293 61.7582C267.18 62.9937 266.395 64.1169 265.946 65.3524C265.609 65.3524 265.272 65.4648 264.935 65.4648C263.363 63.3307 261.23 61.3089 260.332 58.8378C258.648 53.7834 256.178 51.9862 250.902 52.7725C249.779 52.9971 248.32 52.9971 247.534 52.3232C244.84 50.5261 243.043 51.4246 240.573 52.9971C237.991 54.6819 234.736 55.2435 231.255 56.5914C231.031 54.345 230.919 52.8848 230.919 51.4246C230.806 46.2579 228.785 44.6854 223.846 46.1455C222.049 46.5948 220.366 47.3811 218.794 48.392C217.447 49.2905 216.548 50.863 215.314 52.2109C214.752 48.2796 213.405 47.2687 210.037 48.6166C207.792 49.5152 207.006 48.7289 206.557 46.8195C206.332 46.1455 206.108 45.4716 205.771 44.7977C204.311 41.765 202.066 41.0911 199.259 43.1129C198.361 43.7868 197.576 44.91 196.79 45.6962C195.892 46.4825 194.993 47.2687 193.983 47.8303C192.411 48.1673 191.064 48.7289 189.492 49.2905Z" stroke="#00BBE4" stroke-width="2" stroke-linecap="round" stroke-linejoin="round"/>
</g>
<g clip-path="url(#clip0_1_2084)">
<path d="M501.549 157.492C493.795 157.492 487.486 164.178 487.486 172.397C487.486 175.174 488.212 177.884 489.585 180.235L500.748 199.301C500.962 199.666 501.339 199.888 501.744 199.888C501.747 199.888 501.75 199.888 501.753 199.888C502.162 199.885 502.54 199.656 502.749 199.284L513.628 180.033C514.925 177.732 515.611 175.091 515.611 172.397C515.611 164.178 509.303 157.492 501.549 157.492ZM511.617 178.758L501.726 196.26L491.578 178.926C490.434 176.969 489.814 174.711 489.814 172.397C489.814 165.548 495.087 159.96 501.549 159.96C508.011 159.96 513.275 165.548 513.275 172.397C513.275 174.643 512.696 176.843 511.617 178.758Z" fill="#00BBE4"/>
<path d="M501.549 164.945C497.672 164.945 494.518 168.288 494.518 172.397C494.518 176.48 497.62 179.85 501.549 179.85C505.526 179.85 508.58 176.435 508.58 172.397C508.58 168.288 505.426 164.945 501.549 164.945ZM501.549 177.382C498.951 177.382 496.846 175.144 496.846 172.397C496.846 169.658 498.964 167.412 501.549 167.412C504.134 167.412 506.244 169.658 506.244 172.397C506.244 175.104 504.188 177.382 501.549 177.382Z" fill="#00BBE4"/>
</g>
<g clip-path="url(#clip1_1_2084)">
<path d="M463.318 183.989C455.564 183.989 449.256 190.676 449.256 198.894C449.256 201.671 449.982 204.381 451.355 206.732L462.518 225.798C462.732 226.163 463.108 226.385 463.514 226.385C463.517 226.385 463.52 226.385 463.523 226.385C463.932 226.382 464.309 226.153 464.519 225.781L475.397 206.53C476.695 204.229 477.381 201.588 477.381 198.894C477.381 190.676 471.072 183.989 463.318 183.989ZM473.386 205.255L463.496 222.757L453.347 205.423C452.204 203.466 451.584 201.208 451.584 198.894C451.584 192.045 456.857 186.457 463.318 186.457C469.78 186.457 475.045 192.045 475.045 198.894C475.045 201.14 474.466 203.34 473.386 205.255Z" fill="#00BBE4"/>
<path d="M463.318 191.442C459.441 191.442 456.287 194.785 456.287 198.894C456.287 202.977 459.39 206.347 463.318 206.347C467.295 206.347 470.35 202.932 470.35 198.894C470.35 194.785 467.195 191.442 463.318 191.442ZM463.318 203.879C460.72 203.879 458.615 201.641 458.615 198.894C458.615 196.155 460.734 193.909 463.318 193.909C465.903 193.909 468.014 196.155 468.014 198.894C468.014 201.601 465.958 203.879 463.318 203.879Z" fill="#00BBE4"/>
</g>
<g clip-path="url(#clip2_1_2084)">
<path d="M309.336 153.252C301.582 153.252 295.273 159.938 295.273 168.157C295.273 170.934 295.999 173.643 297.373 175.994L308.535 195.061C308.749 195.426 309.126 195.648 309.531 195.648C309.534 195.648 309.537 195.648 309.54 195.648C309.949 195.644 310.327 195.416 310.537 195.044L321.415 175.793C322.713 173.492 323.398 170.851 323.398 168.157C323.398 159.938 317.09 153.252 309.336 153.252Z" fill="#00BBE4"/>
<path d="M309.336 160.705C305.459 160.705 302.305 164.048 302.305 168.157C302.305 172.24 305.408 175.609 309.336 175.609C313.313 175.609 316.367 172.195 316.367 168.157C316.367 164.048 313.213 160.705 309.336 160.705ZM309.336 173.142C306.738 173.142 304.633 170.903 304.633 168.157C304.633 165.417 306.751 163.172 309.336 163.172C311.921 163.172 314.031 165.417 314.031 168.157C314.031 170.863 311.975 173.142 309.336 173.142Z" fill="#EFF6F8"/>
</g>
<g clip-path="url(#clip3_1_2084)">
<path d="M374.115 196.708C366.361 196.708 360.053 203.394 360.053 211.613C360.053 214.39 360.778 217.099 362.152 219.45L373.315 238.517C373.529 238.882 373.905 239.104 374.31 239.104C374.314 239.104 374.317 239.104 374.32 239.104C374.728 239.1 375.106 238.872 375.316 238.5L386.194 219.249C387.492 216.948 388.178 214.307 388.178 211.613C388.178 203.394 381.869 196.708 374.115 196.708ZM384.183 217.974L374.293 235.476L364.144 218.142C363.001 216.185 362.381 213.927 362.381 211.613C362.381 204.764 367.654 199.176 374.115 199.176C380.577 199.176 385.842 204.764 385.842 211.613C385.842 213.859 385.263 216.058 384.183 217.974Z" fill="#00BBE4"/>
<path d="M374.115 204.161C370.238 204.161 367.084 207.504 367.084 211.613C367.084 215.696 370.187 219.065 374.115 219.065C378.092 219.065 381.146 215.651 381.146 211.613C381.146 207.504 377.992 204.161 374.115 204.161ZM374.115 216.598C371.517 216.598 369.412 214.359 369.412 211.613C369.412 208.874 371.531 206.628 374.115 206.628C376.7 206.628 378.811 208.874 378.811 211.613C378.811 214.319 376.755 216.598 374.115 216.598Z" fill="#00BBE4"/>
</g>
<g clip-path="url(#clip4_1_2084)">
<path d="M260 78C252.246 78 245.938 84.6863 245.938 92.9048C245.938 95.6815 246.663 98.3914 248.037 100.742L259.2 119.809C259.413 120.174 259.79 120.396 260.195 120.396C260.198 120.396 260.201 120.396 260.205 120.396C260.613 120.392 260.991 120.164 261.201 119.792L272.079 100.541C273.377 98.2397 274.062 95.5992 274.062 92.9048C274.062 84.6863 267.754 78 260 78ZM270.068 99.2657L260.177 116.768L250.029 99.4336C248.885 97.4767 248.266 95.2192 248.266 92.9048C248.266 86.056 253.538 80.4676 260 80.4676C266.462 80.4676 271.727 86.056 271.727 92.9048C271.727 95.1505 271.148 97.3504 270.068 99.2657Z" fill="#00BBE4"/>
<path d="M260 85.4526C256.123 85.4526 252.969 88.7958 252.969 92.905C252.969 96.988 256.072 100.357 260 100.357C263.977 100.357 267.031 96.9432 267.031 92.905C267.031 88.7958 263.877 85.4526 260 85.4526ZM260 97.8899C257.402 97.8899 255.297 95.6514 255.297 92.905C255.297 90.1655 257.415 87.9202 260 87.9202C262.585 87.9202 264.695 90.1655 264.695 92.905C264.695 95.6113 262.639 97.8899 260 97.8899Z" fill="#00BBE4"/>
</g>
<path d="M189.492 49.2905C189.829 46.8195 188.257 45.5839 186.012 45.247C183.879 44.91 181.634 44.91 179.388 44.7977C177.704 44.6854 176.469 44.3484 176.469 42.102C176.357 37.9461 174.449 35.812 170.407 36.4859C166.141 37.1598 162.212 37.0475 158.619 34.5765C158.282 34.3518 157.721 34.3518 157.272 34.3518C153.567 34.4641 150.424 33.1163 147.393 31.2068C142.902 28.3988 138.074 27.0509 132.686 27.3879C128.195 27.6125 123.48 27.9495 119.214 25.3661C118.091 24.6922 115.958 24.8045 114.611 25.3661C109.334 27.3879 104.058 28.0618 98.5568 26.8263C97.8832 26.714 97.0973 26.8263 96.3115 26.8263C92.7189 27.1633 90.3614 28.7358 89.0142 32.2177C88.3406 34.0149 86.8811 35.5873 85.6462 37.1598C83.9622 39.4063 82.1659 39.6309 80.1451 37.4968C78.2366 35.475 75.7668 34.6888 73.0724 35.9243C70.4903 37.1598 69.8167 39.6309 69.9289 42.2143C70.0412 44.91 70.378 47.6057 70.8271 50.1891C71.1639 52.0985 71.6129 54.1203 72.6233 55.8051C74.5318 59.2871 77.0017 62.4321 78.9102 65.914C79.5838 67.1496 80.1451 69.2837 79.5838 70.1822C77.6753 73.2149 77.563 76.1353 78.1244 79.5049C78.4612 81.1897 78.3489 82.9869 78.2366 84.784C78.0121 88.6029 76.8894 89.7261 73.4092 90.9617C71.6129 91.5233 69.7044 92.4218 68.2449 93.545C64.4279 96.5777 60.6108 99.7227 57.0183 103.092C53.4258 106.35 49.9456 109.944 46.4653 113.314C42.3115 117.469 38.0453 121.625 34.116 126.006C32.9934 127.354 32.3198 129.488 32.2075 131.285C31.983 134.655 32.2075 138.024 32.6566 141.394C32.8811 143.64 33.7792 145.887 34.3406 148.021C34.6774 149.256 35.1264 150.492 35.4632 151.727C35.1264 151.952 34.7896 152.177 34.4528 152.401C34.116 151.727 33.8915 150.941 33.3302 150.492C30.4112 147.796 27.8291 147.908 25.247 150.941C24.3489 152.064 23.4508 153.3 22.8894 154.648C21.0932 159.141 18.511 162.959 15.2553 166.441C14.3572 167.452 13.5713 168.576 12.8977 169.811C11.326 172.844 11.1015 175.989 13.01 178.797C15.4799 182.391 18.1742 185.761 21.2054 188.793C25.0225 192.612 29.2886 196.094 33.3302 199.576C35.9123 201.823 38.3821 201.261 40.4029 198.453C42.1992 195.757 42.9851 195.645 45.3426 198.004C47.2512 200.025 49.3842 201.261 52.1909 201.823C55.5589 202.384 58.9268 203.17 61.958 204.518C66.6732 206.428 71.2761 207.102 76.3281 206.315C81.4923 205.529 85.3094 207.551 87.667 212.044C88.4528 213.392 89.1264 214.852 89.9123 216.2C91.7085 219.008 94.5152 220.131 97.5464 218.783C99.4549 217.884 101.588 216.2 102.598 214.403C104.507 210.808 107.314 209.685 111.018 209.797C114.723 209.91 118.428 210.471 122.133 210.359C128.083 210.134 133.247 208.562 136.952 203.17C138.074 201.486 140.544 200.25 142.565 199.688C147.393 198.341 151.546 196.319 153.679 191.489C154.241 191.601 154.578 191.489 154.914 191.714C159.63 193.96 164.12 193.96 168.948 191.714C171.305 190.59 174.673 190.141 177.143 190.815C183.43 192.612 189.043 195.87 193.983 200.587C197.014 203.507 200.943 205.641 205.883 204.294C209.251 203.395 212.395 205.529 213.742 208.899C214.864 211.819 216.773 213.616 220.029 213.953C220.815 214.066 222.274 215.189 222.274 215.75C222.162 219.232 222.386 222.939 221.376 226.084C219.131 232.486 222.835 240.236 229.684 241.36C232.603 241.809 232.715 243.044 232.49 245.403C231.929 252.816 233.501 259.219 241.135 262.701C241.808 263.038 242.594 263.375 242.931 263.936C243.717 265.172 245.064 266.744 244.84 267.98C244.054 272.922 243.156 277.639 248.095 281.683C244.84 282.02 242.482 282.694 241.247 279.324C240.573 277.302 237.542 277.527 236.195 279.324C235.634 279.998 235.409 280.897 235.072 281.795C232.041 277.19 228.898 275.73 224.295 277.078C222.948 275.281 221.151 274.157 219.131 275.73C216.436 277.752 212.395 278.875 212.395 283.368C212.395 283.705 212.507 284.154 212.619 284.379C214.528 288.31 215.089 292.129 213.966 296.622C213.293 299.43 212.17 300.328 209.925 300.665C207.792 301.114 205.771 302.125 205.771 304.484C205.771 307.404 204.199 308.977 202.066 310.437C199.035 312.459 197.351 315.042 198.025 318.861C198.137 319.535 197.8 320.209 197.688 321.108C196.453 320.771 195.555 320.434 194.544 320.097C191.401 319.086 189.492 320.321 189.043 323.579C188.706 325.713 189.492 327.622 191.289 328.521C195.891 330.992 200.607 333.351 205.322 335.485C207.343 336.383 209.251 335.597 210.374 333.351C210.598 332.901 211.272 332.227 211.609 332.34C214.528 332.789 216.436 330.88 218.569 329.419C220.815 327.847 223.172 327.173 225.867 327.622C230.245 328.296 233.388 330.318 234.96 334.698C235.297 335.597 236.644 336.72 237.43 336.72C238.216 336.72 239.451 335.485 239.788 334.586C240.573 332.564 241.022 330.543 241.359 328.408C241.696 326.05 240.91 324.14 238.44 323.354C234.399 322.006 234.399 322.006 235.185 317.738C235.409 316.727 235.521 315.716 235.858 314.256C236.756 315.604 237.318 316.727 238.216 317.401C239.114 318.075 240.798 318.749 241.584 318.412C242.594 317.963 243.829 316.278 243.717 315.379C243.38 312.684 244.952 311.111 246.299 309.314C249.218 311.448 250.565 311.111 252.586 308.528C254.27 306.281 256.291 304.259 258.311 302.238C260.445 300.104 262.802 298.194 262.129 294.824C266.507 294.263 267.63 290.444 269.763 287.748C272.008 284.94 273.692 281.683 272.569 277.864C276.499 277.527 280.091 276.965 283.684 276.965C287.837 276.853 291.542 275.281 295.472 274.607C296.033 274.494 296.482 274.494 297.156 274.494C302.208 274.382 301.085 274.831 299.176 274.831C297.268 274.719 295.696 275.618 295.696 277.864C295.696 279.998 301.758 280.784 303.106 281.009C305.351 281.346 307.596 281.795 309.842 282.245C307.821 283.817 305.8 284.603 304.116 285.726C300.973 287.973 304.79 290.219 305.351 289.995C309.28 288.647 311.975 290.781 314.669 293.027C318.374 296.06 322.415 297.857 327.131 297.632C332.183 297.408 337.235 296.734 342.174 295.948C345.205 295.498 348.012 294.712 350.706 296.509C353.625 298.419 356.432 298.868 359.463 295.948C360.137 299.093 358.79 302.462 362.494 304.035C353.625 307.18 345.767 310.886 338.694 316.053C335.551 318.3 332.519 320.771 329.376 323.129C328.366 323.916 327.355 324.702 326.457 325.713C323.987 328.521 324.998 331.441 328.59 331.89C330.162 332.115 331.958 332.003 333.53 331.441C338.133 330.093 341.837 330.88 344.869 334.811C345.654 335.934 346.777 336.833 347.788 337.843C349.472 339.528 351.492 340.539 354.074 339.978C356.208 339.528 357.892 340.427 359.014 342.224C360.586 344.47 361.035 346.941 360.474 349.637C360.025 351.659 359.463 353.793 359.239 355.927C359.014 358.061 357.892 359.297 356.432 360.757C355.197 361.88 353.625 363.902 353.962 365.137C354.187 366.598 356.095 368.282 357.667 369.069C360.025 370.304 362.607 370.978 365.189 371.877C376.865 375.583 384.499 370.641 390 360.869C394.041 353.568 400.216 350.311 408.299 353.344C410.432 354.13 411.555 353.793 412.79 351.659C414.137 349.076 415.821 346.492 419.638 346.829C420.424 346.941 421.771 345.481 422.332 344.47C422.894 343.459 422.894 342.112 423.118 340.988C423.679 338.18 425.7 337.394 427.946 339.079C428.956 339.753 429.742 340.651 430.64 341.55C434.232 345.032 435.916 345.144 440.183 342.673C441.642 341.887 443.663 341.438 445.235 341.662C450.736 342.336 454.889 338.854 454.777 333.351C454.777 332.227 454.44 330.992 454.777 330.093C455.114 329.082 455.9 327.847 456.798 327.51C459.941 326.274 460.503 324.927 458.819 322.118C457.808 320.546 456.686 319.535 454.665 319.423C452.981 319.198 451.297 318.637 449.613 318.075C444.561 316.39 442.091 317.176 438.835 321.332C437.937 322.568 436.702 323.466 435.58 321.781C434.12 319.535 432.436 320.097 430.864 321.22C429.63 322.118 428.731 323.466 427.496 324.477C425.363 326.274 423.118 328.071 420.873 329.644C420.311 329.981 419.077 330.093 418.627 329.756C416.27 327.398 413.239 327.061 410.208 326.836C408.973 326.724 407.85 326.274 406.727 325.937C406.615 325.713 406.615 325.488 406.503 325.151C407.064 324.814 407.625 324.477 408.074 324.028C411.555 320.658 411.779 316.727 408.074 313.47C406.166 311.785 403.696 310.886 401.451 309.651C401.002 309.426 400.104 309.314 399.991 308.977C399.205 305.607 396.623 305.607 394.939 305.607C393.592 303.698 392.582 302.462 391.796 301.002C391.459 300.44 391.235 299.654 391.347 299.093C391.796 297.408 392.245 295.723 393.143 294.151C393.592 293.364 394.715 292.578 395.613 292.353C401.9 291.006 407.176 288.31 409.983 282.132C410.32 281.458 411.667 280.672 412.116 280.897C413.688 281.683 414.923 282.244 416.382 280.784C417.954 279.212 417.505 277.639 416.607 275.954C415.821 274.27 414.923 272.697 414.137 271.125C415.596 272.36 416.607 273.933 417.729 275.393C419.189 277.302 420.985 277.752 423.006 276.179C424.578 274.831 426.149 273.371 427.721 271.911C431.426 268.429 435.467 266.07 440.968 267.53C442.316 267.867 444.336 266.632 445.684 265.621C449.052 263.262 452.42 261.353 456.686 263.15C459.043 264.161 460.84 263.487 462.187 261.353C462.636 260.567 463.085 259.78 463.646 258.994C465.779 255.624 469.372 254.164 473.077 255.175C475.322 255.737 477.006 254.95 477.904 252.929C481.047 245.628 488.345 246.751 494.07 244.842C494.295 244.729 494.744 244.954 495.081 245.179C497.663 246.751 499.796 245.74 501.368 243.494C502.715 241.472 503.725 239.113 504.736 236.867C505.521 235.182 505.634 233.497 503.837 232.149C503.501 231.925 503.388 231.026 503.501 230.464C503.725 228.218 504.286 225.972 504.399 223.725C504.511 221.142 505.521 219.682 508.104 218.671C512.482 216.874 516.411 214.29 518.657 209.797C519.33 208.562 521.014 207.102 522.249 206.989C528.311 206.877 534.149 205.305 540.324 206.203C546.386 207.102 548.295 204.294 547.846 198.004C547.734 195.87 548.295 193.735 548.968 191.601C549.417 190.141 550.54 188.906 551.214 187.558C552.449 184.974 552 183.627 549.53 182.166C548.968 181.829 548.183 180.931 548.295 180.369C548.744 174.529 547.397 169.923 540.885 168.688C541.783 163.409 541.783 163.409 546.386 161.949C546.948 161.836 547.621 161.724 547.846 161.275C548.632 160.039 549.979 158.579 549.754 157.456C549.53 156.333 547.509 154.76 546.611 154.872C542.232 155.546 540.773 151.84 537.966 149.818C541.783 149.706 544.702 148.133 547.284 145.437C553.459 138.923 553.571 138.361 548.07 131.285C546.948 129.825 546.499 128.477 547.509 126.792C548.856 124.321 548.07 122.636 545.264 122.299C543.355 122.075 541.222 122.187 539.314 122.636C536.507 123.31 534.262 122.749 532.465 120.277C530.557 117.582 527.975 116.683 524.831 116.683C523.708 116.683 522.137 115.897 521.351 114.998C518.432 111.853 516.187 111.404 512.819 114.324C511.135 115.785 509.788 115.785 508.328 114.324C506.083 112.19 503.501 111.292 500.469 111.741C497.887 112.19 495.754 111.292 494.295 109.045C493.846 108.484 493.397 107.697 492.723 107.585C491.6 107.248 490.141 106.911 489.131 107.361C488.345 107.697 487.896 109.158 487.447 110.169C487.222 110.842 487.447 111.741 487.447 112.977C486.212 112.752 485.089 112.864 484.303 112.303C481.16 110.281 477.904 108.259 474.985 105.9C473.526 104.665 472.627 102.755 471.505 101.183C470.607 99.9473 469.821 98.7118 468.81 97.4763C468.361 96.9147 467.688 96.5777 467.351 95.9038C465.667 92.5341 464.432 91.9725 461.176 93.7697C457.247 95.9038 453.654 98.3748 449.725 100.621C447.143 102.081 444.449 103.205 441.642 104.553C439.958 100.734 437.376 99.7227 434.12 99.2734C432.548 99.0488 430.752 98.0379 429.742 96.9147C425.588 91.9725 420.648 91.6356 415.933 96.1284C414.81 97.1393 413.688 98.1502 412.565 99.0488C411.106 95.9038 409.871 93.2081 408.636 90.4C408.411 89.8384 408.636 88.9399 408.973 88.2659C410.32 85.7949 409.534 83.8854 408.187 81.639C406.727 79.2803 405.717 76.4722 405.38 73.7765C404.819 69.2837 404.145 68.4974 399.767 68.9467C399.093 69.059 397.746 68.3851 397.634 67.8235C395.725 61.4212 393.929 60.635 387.867 62.9937C386.519 63.5553 384.611 64.2292 383.376 63.6676C380.008 62.4321 376.865 61.3089 372.486 63.106C373.16 61.4212 373.384 60.5226 373.721 59.7364C374.956 57.2653 374.731 54.9066 373.272 52.6602C372.486 51.5369 371.7 50.4137 370.914 49.2905C367.771 44.91 367.995 43.7868 373.16 43.3375C374.282 43.2252 375.854 42.102 376.191 41.0911C376.528 40.3048 375.517 38.7323 374.731 37.8338C372.935 35.6997 370.69 34.0149 369.23 31.7684C367.883 29.7466 367.322 27.1633 366.648 24.8045C364.403 17.616 360.361 14.8079 352.952 14.8079C350.706 14.8079 348.237 14.134 346.104 13.2354C341.501 11.2137 339.929 11.4383 336.224 14.9203C335.214 15.9312 333.642 17.279 332.632 17.0544C328.59 16.3804 324.099 17.616 320.507 14.3587C319.609 13.5724 317.363 13.2354 316.353 13.7971C315.343 14.2463 315.006 16.1558 314.669 17.5036C314.445 18.1776 314.894 18.9638 314.894 19.6377C315.118 23.7936 311.301 28.2865 307.933 27.0509C303.779 25.4784 299.738 24.5799 295.359 24.9168C294.91 24.9168 294.349 24.5799 293.788 24.3552C291.093 23.1197 288.623 23.6813 286.827 25.9277C285.255 27.8372 283.459 28.6234 280.989 28.0618C278.519 27.5002 276.835 28.6234 275.6 30.9822C274.141 33.7902 272.457 36.5982 270.548 39.0693C267.966 42.4389 266.731 45.9209 267.405 50.4137C267.966 54.1203 267.517 57.9392 267.293 61.7582C267.18 62.9937 266.395 64.1169 265.946 65.3524C265.609 65.3524 265.272 65.4648 264.935 65.4648C263.363 63.3307 261.23 61.3089 260.332 58.8378C258.648 53.7834 256.178 51.9862 250.902 52.7725C249.779 52.9971 248.32 52.9971 247.534 52.3232C244.84 50.5261 243.043 51.4246 240.573 52.9971C237.991 54.6819 234.736 55.2435 231.255 56.5914C231.031 54.345 230.919 52.8848 230.919 51.4246C230.806 46.2579 228.785 44.6854 223.846 46.1455C222.049 46.5948 220.366 47.3811 218.794 48.392C217.447 49.2905 216.548 50.863 215.314 52.2109C214.752 48.2796 213.405 47.2687 210.037 48.6166C207.792 49.5152 207.006 48.7289 206.557 46.8195C206.332 46.1455 206.108 45.4716 205.771 44.7977C204.311 41.765 202.066 41.0911 199.259 43.1129C198.361 43.7868 197.576 44.91 196.79 45.6962C195.892 46.4825 194.993 47.2687 193.983 47.8303C192.411 48.1673 191.064 48.7289 189.492 49.2905Z" fill="white" fill-opacity="0.05" stroke="#00BBE4" stroke-opacity="0.2" stroke-width="2" stroke-linecap="round" stroke-linejoin="round"/>
<defs>
<filter id="filter0_d_1_2084" x="0.648438" y="0.95166" width="582.414" height="403.157" filterUnits="userSpaceOnUse" color-interpolation-filters="sRGB">
<feFlood flood-opacity="0" result="BackgroundImageFix"/>
<feColorMatrix in="SourceAlpha" type="matrix" values="0 0 0 0 0 0 0 0 0 0 0 0 0 0 0 0 0 0 127 0" result="hardAlpha"/>
<feOffset dx="10" dy="10"/>
<feGaussianBlur stdDeviation="10"/>
<feComposite in2="hardAlpha" operator="out"/>
<feColorMatrix type="matrix" values="0 0 0 0 0.160784 0 0 0 0 0.258823 0 0 0 0 0.576471 0 0 0 0.4 0"/>
<feBlend mode="normal" in2="BackgroundImageFix" result="effect1_dropShadow_1_2084"/>
<feBlend mode="normal" in="SourceGraphic" in2="effect1_dropShadow_1_2084" result="shape"/>
</filter>
<clipPath id="clip0_1_2084">
<rect width="40" height="42.3958" fill="white" transform="translate(481.549 157.492)"/>
</clipPath>
<clipPath id="clip1_1_2084">
<rect width="40" height="42.3958" fill="white" transform="translate(443.318 183.989)"/>
</clipPath>
<clipPath id="clip2_1_2084">
<rect width="40" height="42.3958" fill="white" transform="translate(289.336 153.252)"/>
</clipPath>
<clipPath id="clip3_1_2084">
<rect width="40" height="42.3958" fill="white" transform="translate(354.115 196.708)"/>
</clipPath>
<clipPath id="clip4_1_2084">
<rect width="40" height="42.3958" fill="white" transform="translate(240 78)"/>
</clipPath>
</defs>
</svg>
