<svg width="470" height="492" viewBox="0 0 470 492" fill="none" xmlns="http://www.w3.org/2000/svg">
<g filter="url(#filter0_d_1_2039)">
<path d="M153.582 288.11C152.124 289.083 151.395 288.11 150.18 287.623C137.298 283.245 134.868 285.434 136.812 298.812C137.541 303.434 138.513 308.056 138.756 312.677C139 320.461 143.374 322.65 150.18 322.407C157.714 322.164 165.491 322.65 173.026 322.164C177.4 321.921 179.102 323.137 179.345 327.758C179.588 334.326 181.046 341.137 181.775 347.704C182.504 354.758 185.907 358.164 193.198 357.191C199.274 356.461 205.35 355.975 211.183 355.488C216.773 355.002 219.447 355.731 218.232 362.785C216.287 374.948 217.017 375.191 229.412 377.623C224.065 383.948 225.28 390.272 231.599 393.921C240.592 399.272 242.779 410.461 252.015 415.569C253.716 416.542 255.174 419.704 254.931 422.38C254.445 429.191 256.39 436.002 256.876 442.812C257.362 448.407 256.147 456.677 265.139 459.11C277.534 462.272 289.444 461.056 301.11 455.218C307.672 452.056 312.533 448.65 310.831 440.137C310.345 438.191 311.074 436.975 312.533 435.515C319.338 429.677 316.664 425.056 310.831 420.677C307.672 418.245 304.026 416.785 303.297 411.677C302.082 403.65 300.137 395.623 294.547 389.785C296.006 387.596 297.95 387.596 299.651 387.353C305.727 387.11 310.588 385.407 310.831 378.11C311.074 372.272 319.338 370.812 319.338 364.731C319.338 362.785 318.366 360.839 317.394 359.137C313.991 352.326 310.102 345.758 306.7 338.948C302.568 330.677 309.373 316.569 318.123 316.569C333.191 316.326 348.26 313.65 363.329 312.921C369.648 312.677 372.322 309.515 372.078 303.677C372.078 297.596 372.322 291.272 372.078 285.191C372.078 281.785 372.808 280.569 376.453 281.056C383.501 282.029 390.307 282.515 397.355 283.002C402.945 283.245 407.077 278.866 404.889 275.218C400.515 267.434 405.132 261.839 406.348 255.029C410.965 256.488 415.34 257.948 419.715 259.407C427.735 261.839 432.839 258.191 434.055 249.921C434.541 246.515 435.513 243.353 436.485 239.948C440.131 227.785 439.888 227.542 427.735 223.407C424.333 222.191 420.444 220.975 422.388 216.353C424.09 211.975 422.145 209.056 420.201 205.894C413.882 194.948 403.674 187.894 394.681 179.623C391.279 176.461 388.119 174.758 389.821 168.677C391.522 163.083 391.522 156.272 383.745 153.353C393.952 146.542 393.709 137.299 383.988 126.596C395.411 118.569 396.14 118.326 394.681 112.002C393.466 106.894 395.897 105.677 398.813 104.461C409.264 100.083 419.715 95.9476 430.409 91.8125C435.27 89.8665 437.457 86.9476 436.728 81.8395C436.242 77.2179 435.999 72.353 435.027 67.9746C433.082 60.9206 435.999 52.1638 431.138 46.8125C422.632 37.5692 412.424 29.2989 401.001 24.6773C389.091 19.8125 375.967 18.1098 363.815 14.2179C356.524 11.7854 352.392 13.7314 350.205 20.2989C345.101 35.6233 335.136 46.8125 321.039 54.353C319.095 55.5692 317.151 57.0287 315.449 58.4881C311.804 61.1638 308.887 63.8395 309.13 69.1908C309.373 74.7854 304.755 78.6773 302.082 82.8125C301.596 83.2989 296.978 81.1097 294.061 80.1368C293.332 79.8935 292.36 79.8935 291.388 79.6503C281.909 76.2449 272.43 80.8665 262.952 79.8935C257.362 79.4071 254.202 78.9206 254.445 72.353C254.688 65.0557 250.8 60.4341 243.508 58.9746C239.863 58.2449 236.217 57.0287 232.571 55.8125C228.683 54.5962 225.28 55.326 223.336 58.7314C220.176 64.8125 217.017 63.5962 212.642 59.9476C209.725 57.2719 206.566 54.5962 204.621 50.9476C199.76 41.4611 194.413 31.9746 189.31 22.4881C187.608 19.5692 186.15 16.6503 181.775 16.407C163.547 14.9476 145.319 13.0016 127.09 11.2989C120.528 10.5692 114.209 10.5692 111.536 18.5962C110.563 21.7584 107.647 21.2719 104.973 21.2719C91.1199 21.2719 77.5094 21.2719 63.656 21.2719C58.7951 21.2719 55.1494 22.2449 53.9342 27.5962C51.7468 36.8395 54.4203 43.407 62.6838 48.5152C64.3851 49.4881 65.6003 51.1908 67.5447 52.6503C60.4964 54.5962 53.4481 56.0557 56.3646 65.7854C58.309 71.6233 62.1977 78.4341 52.719 81.8395C52.2329 82.0827 51.7468 82.8125 51.7468 83.2989C50.0455 93.0287 41.782 96.9206 34.9768 101.785C29.1437 106.164 26.7133 110.299 31.5742 117.11C34.7338 121.731 36.6781 127.812 30.1159 131.461C25.255 134.137 21.8524 136.812 21.8524 142.894C21.8524 148.002 18.2068 154.812 20.1511 157.975C26.2272 166.488 19.422 170.867 16.5055 176.704C14.5611 180.596 11.4016 184.731 15.0472 188.867C19.179 193.731 17.9637 197.137 14.075 200.785C10.1863 204.434 9.9433 208.326 13.589 212.218C15.0472 213.677 16.0194 215.137 16.5055 217.326C18.6929 225.596 23.7968 227.299 30.1159 221.704C32.7894 219.272 34.7338 217.326 39.1085 218.542C43.4833 219.758 59.5242 208.326 59.0381 203.704C58.552 194.948 63.656 197.38 68.0307 197.866C71.1903 198.353 74.3499 199.083 77.5094 199.569C84.0716 200.542 90.6338 201.029 93.0642 192.758C93.5503 191.056 94.7655 190.569 96.2238 190.569C98.8973 190.812 98.1682 192.758 98.4112 194.461C103.758 220.002 116.396 239.948 140.944 251.137C145.805 253.326 148.964 257.948 152.124 262.083C155.04 265.731 149.45 267.921 148.964 271.326C148.478 274.002 148.721 276.677 150.18 278.866C152.61 281.542 153.825 284.704 153.582 288.11Z" fill="white"/>
<path d="M153.582 288.11C152.124 289.083 151.395 288.11 150.18 287.623C137.298 283.245 134.868 285.434 136.812 298.812C137.541 303.434 138.513 308.056 138.756 312.677C139 320.461 143.374 322.65 150.18 322.407C157.714 322.164 165.491 322.65 173.026 322.164C177.4 321.921 179.102 323.137 179.345 327.758C179.588 334.326 181.046 341.137 181.775 347.704C182.504 354.758 185.907 358.164 193.198 357.191C199.274 356.461 205.35 355.975 211.183 355.488C216.773 355.002 219.447 355.731 218.232 362.785C216.287 374.948 217.017 375.191 229.412 377.623C224.065 383.948 225.28 390.272 231.599 393.921C240.592 399.272 242.779 410.461 252.015 415.569C253.716 416.542 255.174 419.704 254.931 422.38C254.445 429.191 256.39 436.002 256.876 442.812C257.362 448.407 256.147 456.677 265.139 459.11C277.534 462.272 289.444 461.056 301.11 455.218C307.672 452.056 312.533 448.65 310.831 440.137C310.345 438.191 311.074 436.975 312.533 435.515C319.338 429.677 316.664 425.056 310.831 420.677C307.672 418.245 304.026 416.785 303.297 411.677C302.082 403.65 300.137 395.623 294.547 389.785C296.006 387.596 297.95 387.596 299.651 387.353C305.727 387.11 310.588 385.407 310.831 378.11C311.074 372.272 319.338 370.812 319.338 364.731C319.338 362.785 318.366 360.839 317.394 359.137C313.991 352.326 310.102 345.758 306.7 338.948C302.568 330.677 309.373 316.569 318.123 316.569C333.191 316.326 348.26 313.65 363.329 312.921C369.648 312.677 372.322 309.515 372.078 303.677C372.078 297.596 372.322 291.272 372.078 285.191C372.078 281.785 372.808 280.569 376.453 281.056C383.501 282.029 390.307 282.515 397.355 283.002C402.945 283.245 407.077 278.866 404.889 275.218C400.515 267.434 405.132 261.839 406.348 255.029C410.965 256.488 415.34 257.948 419.715 259.407C427.735 261.839 432.839 258.191 434.055 249.921C434.541 246.515 435.513 243.353 436.485 239.948C440.131 227.785 439.888 227.542 427.735 223.407C424.333 222.191 420.444 220.975 422.388 216.353C424.09 211.975 422.145 209.056 420.201 205.894C413.882 194.948 403.674 187.894 394.681 179.623C391.279 176.461 388.119 174.758 389.821 168.677C391.522 163.083 391.522 156.272 383.745 153.353C393.952 146.542 393.709 137.299 383.988 126.596C395.411 118.569 396.14 118.326 394.681 112.002C393.466 106.894 395.897 105.677 398.813 104.461C409.264 100.083 419.715 95.9476 430.409 91.8125C435.27 89.8665 437.457 86.9476 436.728 81.8395C436.242 77.2179 435.999 72.353 435.027 67.9746C433.082 60.9206 435.999 52.1638 431.138 46.8125C422.632 37.5692 412.424 29.2989 401.001 24.6773C389.091 19.8125 375.967 18.1098 363.815 14.2179C356.524 11.7854 352.392 13.7314 350.205 20.2989C345.101 35.6233 335.136 46.8125 321.039 54.353C319.095 55.5692 317.151 57.0287 315.449 58.4881C311.804 61.1638 308.887 63.8395 309.13 69.1908C309.373 74.7854 304.755 78.6773 302.082 82.8125C301.596 83.2989 296.978 81.1097 294.061 80.1368C293.332 79.8935 292.36 79.8935 291.388 79.6503C281.909 76.2449 272.43 80.8665 262.952 79.8935C257.362 79.4071 254.202 78.9206 254.445 72.353C254.688 65.0557 250.8 60.4341 243.508 58.9746C239.863 58.2449 236.217 57.0287 232.571 55.8125C228.683 54.5962 225.28 55.326 223.336 58.7314C220.176 64.8125 217.017 63.5962 212.642 59.9476C209.725 57.2719 206.566 54.5962 204.621 50.9476C199.76 41.4611 194.413 31.9746 189.31 22.4881C187.608 19.5692 186.15 16.6503 181.775 16.407C163.547 14.9476 145.319 13.0016 127.09 11.2989C120.528 10.5692 114.209 10.5692 111.536 18.5962C110.563 21.7584 107.647 21.2719 104.973 21.2719C91.1199 21.2719 77.5094 21.2719 63.656 21.2719C58.7951 21.2719 55.1494 22.2449 53.9342 27.5962C51.7468 36.8395 54.4203 43.407 62.6838 48.5152C64.3851 49.4881 65.6003 51.1908 67.5447 52.6503C60.4964 54.5962 53.4481 56.0557 56.3646 65.7854C58.309 71.6233 62.1977 78.4341 52.719 81.8395C52.2329 82.0827 51.7468 82.8125 51.7468 83.2989C50.0455 93.0287 41.782 96.9206 34.9768 101.785C29.1437 106.164 26.7133 110.299 31.5742 117.11C34.7338 121.731 36.6781 127.812 30.1159 131.461C25.255 134.137 21.8524 136.812 21.8524 142.894C21.8524 148.002 18.2068 154.812 20.1511 157.975C26.2272 166.488 19.422 170.867 16.5055 176.704C14.5611 180.596 11.4016 184.731 15.0472 188.867C19.179 193.731 17.9637 197.137 14.075 200.785C10.1863 204.434 9.9433 208.326 13.589 212.218C15.0472 213.677 16.0194 215.137 16.5055 217.326C18.6929 225.596 23.7968 227.299 30.1159 221.704C32.7894 219.272 34.7338 217.326 39.1085 218.542C43.4833 219.758 59.5242 208.326 59.0381 203.704C58.552 194.948 63.656 197.38 68.0307 197.866C71.1903 198.353 74.3499 199.083 77.5094 199.569C84.0716 200.542 90.6338 201.029 93.0642 192.758C93.5503 191.056 94.7655 190.569 96.2238 190.569C98.8973 190.812 98.1682 192.758 98.4112 194.461C103.758 220.002 116.396 239.948 140.944 251.137C145.805 253.326 148.964 257.948 152.124 262.083C155.04 265.731 149.45 267.921 148.964 271.326C148.478 274.002 148.721 276.677 150.18 278.866C152.61 281.542 153.825 284.704 153.582 288.11Z" stroke="#00BBE4" stroke-width="2" stroke-linecap="round" stroke-linejoin="round"/>
</g>
<path d="M153.582 288.11C152.124 289.083 151.395 288.11 150.18 287.623C137.298 283.245 134.868 285.434 136.812 298.812C137.541 303.434 138.513 308.056 138.756 312.677C139 320.461 143.374 322.65 150.18 322.407C157.714 322.164 165.491 322.65 173.026 322.164C177.4 321.921 179.102 323.137 179.345 327.758C179.588 334.326 181.046 341.137 181.775 347.704C182.504 354.758 185.907 358.164 193.198 357.191C199.274 356.461 205.35 355.975 211.183 355.488C216.773 355.002 219.447 355.731 218.232 362.785C216.287 374.948 217.017 375.191 229.412 377.623C224.065 383.948 225.28 390.272 231.599 393.921C240.592 399.272 242.779 410.461 252.015 415.569C253.716 416.542 255.174 419.704 254.931 422.38C254.445 429.191 256.39 436.002 256.876 442.812C257.362 448.407 256.147 456.677 265.139 459.11C277.534 462.272 289.444 461.056 301.11 455.218C307.672 452.056 312.533 448.65 310.831 440.137C310.345 438.191 311.074 436.975 312.533 435.515C319.338 429.677 316.664 425.056 310.831 420.677C307.672 418.245 304.026 416.785 303.297 411.677C302.082 403.65 300.137 395.623 294.547 389.785C296.006 387.596 297.95 387.596 299.651 387.353C305.727 387.11 310.588 385.407 310.831 378.11C311.074 372.272 319.338 370.812 319.338 364.731C319.338 362.785 318.366 360.839 317.394 359.137C313.991 352.326 310.102 345.758 306.7 338.948C302.568 330.677 309.373 316.569 318.123 316.569C333.191 316.326 348.26 313.65 363.329 312.921C369.648 312.677 372.322 309.515 372.078 303.677C372.078 297.596 372.322 291.272 372.078 285.191C372.078 281.785 372.808 280.569 376.453 281.056C383.501 282.029 390.307 282.515 397.355 283.002C402.945 283.245 407.077 278.866 404.889 275.218C400.515 267.434 405.132 261.839 406.348 255.029C410.965 256.488 415.34 257.948 419.715 259.407C427.735 261.839 432.839 258.191 434.055 249.921C434.541 246.515 435.513 243.353 436.485 239.948C440.131 227.785 439.888 227.542 427.735 223.407C424.333 222.191 420.444 220.975 422.388 216.353C424.09 211.975 422.145 209.056 420.201 205.894C413.882 194.948 403.674 187.894 394.681 179.623C391.279 176.461 388.119 174.758 389.821 168.677C391.522 163.083 391.522 156.272 383.745 153.353C393.952 146.542 393.709 137.299 383.988 126.596C395.411 118.569 396.14 118.326 394.681 112.002C393.466 106.894 395.897 105.677 398.813 104.461C409.264 100.083 419.715 95.9476 430.409 91.8125C435.27 89.8665 437.457 86.9476 436.728 81.8395C436.242 77.2179 435.999 72.353 435.027 67.9746C433.082 60.9206 435.999 52.1638 431.138 46.8125C422.632 37.5692 412.424 29.2989 401.001 24.6773C389.091 19.8125 375.967 18.1098 363.815 14.2179C356.524 11.7854 352.392 13.7314 350.205 20.2989C345.101 35.6233 335.136 46.8125 321.039 54.353C319.095 55.5692 317.151 57.0287 315.449 58.4881C311.804 61.1638 308.887 63.8395 309.13 69.1908C309.373 74.7854 304.755 78.6773 302.082 82.8125C301.596 83.2989 296.978 81.1097 294.061 80.1368C293.332 79.8935 292.36 79.8935 291.388 79.6503C281.909 76.2449 272.43 80.8665 262.952 79.8935C257.362 79.4071 254.202 78.9206 254.445 72.353C254.688 65.0557 250.8 60.4341 243.508 58.9746C239.863 58.2449 236.217 57.0287 232.571 55.8125C228.683 54.5962 225.28 55.326 223.336 58.7314C220.176 64.8125 217.017 63.5962 212.642 59.9476C209.725 57.2719 206.566 54.5962 204.621 50.9476C199.76 41.4611 194.413 31.9746 189.31 22.4881C187.608 19.5692 186.15 16.6503 181.775 16.407C163.547 14.9476 145.319 13.0016 127.09 11.2989C120.528 10.5692 114.209 10.5692 111.536 18.5962C110.563 21.7584 107.647 21.2719 104.973 21.2719C91.1199 21.2719 77.5094 21.2719 63.656 21.2719C58.7951 21.2719 55.1494 22.2449 53.9342 27.5962C51.7468 36.8395 54.4203 43.407 62.6838 48.5152C64.3851 49.4881 65.6003 51.1908 67.5447 52.6503C60.4964 54.5962 53.4481 56.0557 56.3646 65.7854C58.309 71.6233 62.1977 78.4341 52.719 81.8395C52.2329 82.0827 51.7468 82.8125 51.7468 83.2989C50.0455 93.0287 41.782 96.9206 34.9768 101.785C29.1437 106.164 26.7133 110.299 31.5742 117.11C34.7338 121.731 36.6781 127.812 30.1159 131.461C25.255 134.137 21.8524 136.812 21.8524 142.894C21.8524 148.002 18.2068 154.812 20.1511 157.975C26.2272 166.488 19.422 170.867 16.5055 176.704C14.5611 180.596 11.4016 184.731 15.0472 188.867C19.179 193.731 17.9637 197.137 14.075 200.785C10.1863 204.434 9.9433 208.326 13.589 212.218C15.0472 213.677 16.0194 215.137 16.5055 217.326C18.6929 225.596 23.7968 227.299 30.1159 221.704C32.7894 219.272 34.7338 217.326 39.1085 218.542C43.4833 219.758 59.5242 208.326 59.0381 203.704C58.552 194.948 63.656 197.38 68.0307 197.866C71.1903 198.353 74.3499 199.083 77.5094 199.569C84.0716 200.542 90.6338 201.029 93.0642 192.758C93.5503 191.056 94.7655 190.569 96.2238 190.569C98.8973 190.812 98.1682 192.758 98.4112 194.461C103.758 220.002 116.396 239.948 140.944 251.137C145.805 253.326 148.964 257.948 152.124 262.083C155.04 265.731 149.45 267.921 148.964 271.326C148.478 274.002 148.721 276.677 150.18 278.866C152.61 281.542 153.825 284.704 153.582 288.11Z" fill="white" fill-opacity="0.05" stroke="#00BBE4" stroke-opacity="0.2" stroke-width="2" stroke-linecap="round" stroke-linejoin="round"/>
<defs>
<filter id="filter0_d_1_2039" x="0" y="0" width="469.541" height="491.812" filterUnits="userSpaceOnUse" color-interpolation-filters="sRGB">
<feFlood flood-opacity="0" result="BackgroundImageFix"/>
<feColorMatrix in="SourceAlpha" type="matrix" values="0 0 0 0 0 0 0 0 0 0 0 0 0 0 0 0 0 0 127 0" result="hardAlpha"/>
<feOffset dx="10" dy="10"/>
<feGaussianBlur stdDeviation="10"/>
<feComposite in2="hardAlpha" operator="out"/>
<feColorMatrix type="matrix" values="0 0 0 0 0.160784 0 0 0 0 0.258823 0 0 0 0 0.576471 0 0 0 0.4 0"/>
<feBlend mode="normal" in2="BackgroundImageFix" result="effect1_dropShadow_1_2039"/>
<feBlend mode="normal" in="SourceGraphic" in2="effect1_dropShadow_1_2039" result="shape"/>
</filter>
</defs>
</svg>
