<svg width="34" height="17" viewBox="0 0 34 17" fill="none" xmlns="http://www.w3.org/2000/svg">
<path d="M17.0057 1C9.9071 1 3.84846 5.42308 1.45214 7.49038C1.13564 7.73077 1 8.11538 1 8.5C1 8.88462 1.13564 9.22115 1.45214 9.50962C3.84846 11.5288 9.9071 16 17.0057 16C24.1042 16 30.1628 11.5769 32.5592 9.50962C33.1469 8.98077 33.1469 8.01923 32.5592 7.49038C30.1628 5.42308 24.1042 1 17.0057 1ZM17.3674 12.6827C14.9258 12.875 12.8912 10.7115 13.0721 8.11538C13.2077 6.04808 14.7902 4.41346 16.7344 4.22115C19.1759 4.02885 21.2105 6.19231 21.0297 8.78846C20.8488 10.8558 19.2663 12.5385 17.3674 12.6827Z" stroke="#00BBE4" stroke-width="1.5" stroke-miterlimit="10"/>
</svg>
