<svg width="24" height="24" viewBox="0 0 24 24" fill="none" xmlns="http://www.w3.org/2000/svg">
<path fill-rule="evenodd" clip-rule="evenodd" d="M20.184 4.138C21.6225 4.219 22.329 4.432 22.98 5.59C23.658 6.7465 24 8.7385 24 12.247V12.2515V12.259C24 15.751 23.658 17.758 22.9815 18.9025C22.3305 20.0605 21.624 20.2705 20.1855 20.368C18.747 20.4505 15.1335 20.5 12.003 20.5C8.8665 20.5 5.2515 20.4505 3.8145 20.3665C2.379 20.269 1.6725 20.059 1.0155 18.901C0.345 17.7565 0 15.7495 0 12.2575V12.2545V12.25V12.2455C0 8.7385 0.345 6.7465 1.0155 5.59C1.6725 4.4305 2.3805 4.219 3.816 4.1365C5.2515 4.0405 8.8665 4 12.003 4C15.1335 4 18.747 4.0405 20.184 4.138ZM16.5 12.25L9.00001 7.75001V16.75L16.5 12.25Z" fill="#00BBE4"/>
</svg>
